%
M48
M72
T01C0.00787
T02C0.01378
T03C0.01575
T04C0.02559
T05C0.03200
T06C0.03543
T07C0.04000
%
T01
X84717Y185859
X88329Y189471
X91941Y193083
X88329Y196695
X84717Y193083
X81104Y196695
X84717Y200307
X81104Y189471
X91941Y185859
X95553Y189471
X95553Y196695
X91941Y200307
T02
X76310Y183020
X57600Y220950
X49600Y144890
X42110Y124220
X49600Y108960
X56549Y110100
X72790Y92140
X84200Y54030
X77805Y45070
X84520Y25470
X113700Y130970
X113480Y176530
X123690Y223870
X121310Y266420
T03
X96210Y29968
X96210Y13511
X62210Y13511
X62210Y29968
T04
X67832Y27881
X90588Y27881
T05
X89510Y62020
X79510Y62020
X79510Y82020
X89510Y82020
X109510Y82020
X109510Y62020
X59510Y62020
X59510Y82020
T06
X44353Y77020
X24667Y77020
X124667Y77020
X144353Y77020
T07
X21710Y23120
X21710Y40920
X47310Y40920
X47310Y23120
X59010Y102020
X70010Y102020
X99010Y102020
X110010Y102020
X123120Y32760
X133120Y32760
X139510Y282020
X139510Y292020
X139510Y302020
X139510Y312020
M30
