G75*
%MOIN*%
%OFA0B0*%
%FSLAX25Y25*%
%IPPOS*%
%LPD*%
%AMOC8*
5,1,8,0,0,1.08239X$1,22.5*
%
%ADD10C,0.07600*%
%ADD11R,0.07600X0.07600*%
%ADD12C,0.08000*%
%ADD13C,0.07400*%
%ADD14C,0.03575*%
%ADD15C,0.00039*%
%ADD16OC8,0.05200*%
%ADD17C,0.02787*%
%ADD18C,0.00600*%
%ADD19C,0.02978*%
%ADD20C,0.01500*%
D10*
X0024667Y0077020D03*
X0124667Y0077020D03*
D11*
X0144353Y0077020D03*
X0044353Y0077020D03*
D12*
X0059010Y0102020D03*
X0070010Y0102020D03*
X0099010Y0102020D03*
X0110010Y0102020D03*
D13*
X0123120Y0032760D03*
X0133120Y0032760D03*
X0047310Y0040920D03*
X0047310Y0023120D03*
X0021710Y0023120D03*
X0021710Y0040920D03*
X0139510Y0282020D03*
X0139510Y0292020D03*
X0139510Y0302020D03*
X0139510Y0312020D03*
D14*
X0096210Y0031755D02*
X0096210Y0028180D01*
X0096210Y0015298D02*
X0096210Y0011724D01*
X0062210Y0011724D02*
X0062210Y0015298D01*
X0062210Y0028180D02*
X0062210Y0031755D01*
D15*
X0064178Y0031756D02*
X0060241Y0031756D01*
X0060241Y0031718D02*
X0064178Y0031718D01*
X0064178Y0031680D02*
X0060241Y0031680D01*
X0060241Y0031643D02*
X0064178Y0031643D01*
X0064178Y0031605D02*
X0060241Y0031605D01*
X0060241Y0031567D02*
X0064178Y0031567D01*
X0064178Y0031529D02*
X0060241Y0031529D01*
X0060241Y0031491D02*
X0064178Y0031491D01*
X0064178Y0031453D02*
X0060241Y0031453D01*
X0060241Y0031415D02*
X0064178Y0031415D01*
X0064178Y0031377D02*
X0060241Y0031377D01*
X0060241Y0031339D02*
X0064178Y0031339D01*
X0064178Y0031302D02*
X0060241Y0031302D01*
X0060241Y0031264D02*
X0064178Y0031264D01*
X0064178Y0031226D02*
X0060241Y0031226D01*
X0060241Y0031188D02*
X0064178Y0031188D01*
X0064178Y0031150D02*
X0060241Y0031150D01*
X0060241Y0031112D02*
X0064178Y0031112D01*
X0064178Y0031074D02*
X0060241Y0031074D01*
X0060241Y0031036D02*
X0064178Y0031036D01*
X0064178Y0030999D02*
X0060241Y0030999D01*
X0060241Y0030961D02*
X0064178Y0030961D01*
X0064178Y0030923D02*
X0060241Y0030923D01*
X0060241Y0030885D02*
X0064178Y0030885D01*
X0064178Y0030847D02*
X0060241Y0030847D01*
X0060241Y0030809D02*
X0064178Y0030809D01*
X0064178Y0030771D02*
X0060241Y0030771D01*
X0060241Y0030733D02*
X0064178Y0030733D01*
X0064178Y0030696D02*
X0060241Y0030696D01*
X0060241Y0030658D02*
X0064178Y0030658D01*
X0064178Y0030620D02*
X0060241Y0030620D01*
X0060241Y0030582D02*
X0064178Y0030582D01*
X0064178Y0030544D02*
X0060241Y0030544D01*
X0060241Y0030506D02*
X0064178Y0030506D01*
X0064178Y0030468D02*
X0060241Y0030468D01*
X0060241Y0030430D02*
X0064178Y0030430D01*
X0064178Y0030392D02*
X0060241Y0030392D01*
X0060241Y0030355D02*
X0064178Y0030355D01*
X0064178Y0030317D02*
X0060241Y0030317D01*
X0060241Y0030279D02*
X0064178Y0030279D01*
X0064178Y0030241D02*
X0060241Y0030241D01*
X0060241Y0030203D02*
X0064178Y0030203D01*
X0064178Y0030165D02*
X0060241Y0030165D01*
X0060241Y0030127D02*
X0064178Y0030127D01*
X0064178Y0030089D02*
X0060241Y0030089D01*
X0060241Y0030052D02*
X0064178Y0030052D01*
X0064178Y0030014D02*
X0060241Y0030014D01*
X0060241Y0029976D02*
X0064178Y0029976D01*
X0064178Y0029938D02*
X0060241Y0029938D01*
X0060241Y0029900D02*
X0064178Y0029900D01*
X0064178Y0029862D02*
X0060241Y0029862D01*
X0060241Y0029824D02*
X0064178Y0029824D01*
X0064178Y0029786D02*
X0060241Y0029786D01*
X0060241Y0029748D02*
X0064178Y0029748D01*
X0064178Y0029711D02*
X0060241Y0029711D01*
X0060241Y0029673D02*
X0064178Y0029673D01*
X0064178Y0029635D02*
X0060241Y0029635D01*
X0060241Y0029597D02*
X0064178Y0029597D01*
X0064178Y0029559D02*
X0060241Y0029559D01*
X0060241Y0029521D02*
X0064178Y0029521D01*
X0064178Y0029483D02*
X0060241Y0029483D01*
X0060241Y0029445D02*
X0064178Y0029445D01*
X0064178Y0029408D02*
X0060241Y0029408D01*
X0060241Y0029370D02*
X0064178Y0029370D01*
X0064178Y0029332D02*
X0060241Y0029332D01*
X0060241Y0029294D02*
X0064178Y0029294D01*
X0064178Y0029256D02*
X0060241Y0029256D01*
X0060241Y0029218D02*
X0064178Y0029218D01*
X0064178Y0029180D02*
X0060241Y0029180D01*
X0060241Y0029142D02*
X0064178Y0029142D01*
X0064178Y0029104D02*
X0060241Y0029104D01*
X0060241Y0029067D02*
X0064178Y0029067D01*
X0064178Y0029029D02*
X0060241Y0029029D01*
X0060241Y0028991D02*
X0064178Y0028991D01*
X0064178Y0028953D02*
X0060241Y0028953D01*
X0060241Y0028915D02*
X0064178Y0028915D01*
X0064178Y0028877D02*
X0060241Y0028877D01*
X0060241Y0028839D02*
X0064178Y0028839D01*
X0064178Y0028801D02*
X0060241Y0028801D01*
X0060241Y0028764D02*
X0064178Y0028764D01*
X0064178Y0028726D02*
X0060241Y0028726D01*
X0060241Y0028688D02*
X0064178Y0028688D01*
X0064178Y0028650D02*
X0060241Y0028650D01*
X0060241Y0028612D02*
X0064178Y0028612D01*
X0064178Y0028574D02*
X0060241Y0028574D01*
X0060241Y0028536D02*
X0064178Y0028536D01*
X0064178Y0028498D02*
X0060241Y0028498D01*
X0060241Y0028461D02*
X0064178Y0028461D01*
X0064178Y0028423D02*
X0060241Y0028423D01*
X0060241Y0028385D02*
X0064178Y0028385D01*
X0064178Y0028347D02*
X0060241Y0028347D01*
X0060241Y0028309D02*
X0064178Y0028309D01*
X0064178Y0028271D02*
X0060241Y0028271D01*
X0060241Y0028233D02*
X0064178Y0028233D01*
X0064178Y0028195D02*
X0060241Y0028195D01*
X0060241Y0028157D02*
X0064178Y0028157D01*
X0064178Y0028120D02*
X0060241Y0028120D01*
X0060241Y0028082D02*
X0064178Y0028082D01*
X0064178Y0028044D02*
X0060241Y0028044D01*
X0060241Y0028006D02*
X0064178Y0028006D01*
X0064178Y0027968D02*
X0060241Y0027968D01*
X0060241Y0027930D02*
X0064178Y0027930D01*
X0064178Y0027892D02*
X0060241Y0027892D01*
X0060241Y0027854D02*
X0064178Y0027854D01*
X0064178Y0027817D02*
X0060241Y0027817D01*
X0060241Y0027802D02*
X0060291Y0027364D01*
X0060436Y0026948D01*
X0060671Y0026575D01*
X0060983Y0026263D01*
X0061356Y0026029D01*
X0061772Y0025883D01*
X0062210Y0025834D01*
X0062648Y0025883D01*
X0063064Y0026029D01*
X0063437Y0026263D01*
X0063749Y0026575D01*
X0063984Y0026948D01*
X0064129Y0027364D01*
X0064178Y0027802D01*
X0064178Y0032133D01*
X0064129Y0032571D01*
X0063984Y0032987D01*
X0063749Y0033360D01*
X0063437Y0033672D01*
X0063064Y0033907D01*
X0062648Y0034052D01*
X0062210Y0034101D01*
X0061772Y0034052D01*
X0061356Y0033907D01*
X0060983Y0033672D01*
X0060671Y0033360D01*
X0060436Y0032987D01*
X0060291Y0032571D01*
X0060241Y0032133D01*
X0060241Y0027802D01*
X0060244Y0027779D02*
X0064176Y0027779D01*
X0064172Y0027741D02*
X0060248Y0027741D01*
X0060253Y0027703D02*
X0064167Y0027703D01*
X0064163Y0027665D02*
X0060257Y0027665D01*
X0060261Y0027627D02*
X0064159Y0027627D01*
X0064154Y0027589D02*
X0060265Y0027589D01*
X0060270Y0027551D02*
X0064150Y0027551D01*
X0064146Y0027513D02*
X0060274Y0027513D01*
X0060278Y0027476D02*
X0064142Y0027476D01*
X0064137Y0027438D02*
X0060283Y0027438D01*
X0060287Y0027400D02*
X0064133Y0027400D01*
X0064128Y0027362D02*
X0060292Y0027362D01*
X0060305Y0027324D02*
X0064115Y0027324D01*
X0064102Y0027286D02*
X0060318Y0027286D01*
X0060331Y0027248D02*
X0064089Y0027248D01*
X0064075Y0027210D02*
X0060345Y0027210D01*
X0060358Y0027173D02*
X0064062Y0027173D01*
X0064049Y0027135D02*
X0060371Y0027135D01*
X0060384Y0027097D02*
X0064036Y0027097D01*
X0064022Y0027059D02*
X0060398Y0027059D01*
X0060411Y0027021D02*
X0064009Y0027021D01*
X0063996Y0026983D02*
X0060424Y0026983D01*
X0060438Y0026945D02*
X0063982Y0026945D01*
X0063958Y0026907D02*
X0060462Y0026907D01*
X0060486Y0026869D02*
X0063934Y0026869D01*
X0063910Y0026832D02*
X0060510Y0026832D01*
X0060533Y0026794D02*
X0063887Y0026794D01*
X0063863Y0026756D02*
X0060557Y0026756D01*
X0060581Y0026718D02*
X0063839Y0026718D01*
X0063815Y0026680D02*
X0060605Y0026680D01*
X0060629Y0026642D02*
X0063791Y0026642D01*
X0063767Y0026604D02*
X0060652Y0026604D01*
X0060679Y0026566D02*
X0063741Y0026566D01*
X0063703Y0026529D02*
X0060717Y0026529D01*
X0060755Y0026491D02*
X0063665Y0026491D01*
X0063627Y0026453D02*
X0060793Y0026453D01*
X0060831Y0026415D02*
X0063589Y0026415D01*
X0063551Y0026377D02*
X0060869Y0026377D01*
X0060907Y0026339D02*
X0063513Y0026339D01*
X0063475Y0026301D02*
X0060945Y0026301D01*
X0060982Y0026263D02*
X0063437Y0026263D01*
X0063377Y0026226D02*
X0061043Y0026226D01*
X0061103Y0026188D02*
X0063317Y0026188D01*
X0063257Y0026150D02*
X0061163Y0026150D01*
X0061224Y0026112D02*
X0063196Y0026112D01*
X0063136Y0026074D02*
X0061284Y0026074D01*
X0061344Y0026036D02*
X0063076Y0026036D01*
X0062977Y0025998D02*
X0061443Y0025998D01*
X0061551Y0025960D02*
X0062869Y0025960D01*
X0062760Y0025922D02*
X0061660Y0025922D01*
X0061768Y0025885D02*
X0062652Y0025885D01*
X0062325Y0025847D02*
X0062095Y0025847D01*
X0060241Y0031794D02*
X0064178Y0031794D01*
X0064178Y0031832D02*
X0060241Y0031832D01*
X0060241Y0031870D02*
X0064178Y0031870D01*
X0064178Y0031908D02*
X0060241Y0031908D01*
X0060241Y0031946D02*
X0064178Y0031946D01*
X0064178Y0031983D02*
X0060241Y0031983D01*
X0060241Y0032021D02*
X0064178Y0032021D01*
X0064178Y0032059D02*
X0060241Y0032059D01*
X0060241Y0032097D02*
X0064178Y0032097D01*
X0064178Y0032135D02*
X0060242Y0032135D01*
X0060246Y0032173D02*
X0064174Y0032173D01*
X0064170Y0032211D02*
X0060250Y0032211D01*
X0060255Y0032249D02*
X0064165Y0032249D01*
X0064161Y0032287D02*
X0060259Y0032287D01*
X0060263Y0032324D02*
X0064157Y0032324D01*
X0064153Y0032362D02*
X0060267Y0032362D01*
X0060272Y0032400D02*
X0064148Y0032400D01*
X0064144Y0032438D02*
X0060276Y0032438D01*
X0060280Y0032476D02*
X0064140Y0032476D01*
X0064136Y0032514D02*
X0060284Y0032514D01*
X0060289Y0032552D02*
X0064131Y0032552D01*
X0064123Y0032590D02*
X0060297Y0032590D01*
X0060311Y0032627D02*
X0064109Y0032627D01*
X0064096Y0032665D02*
X0060324Y0032665D01*
X0060337Y0032703D02*
X0064083Y0032703D01*
X0064070Y0032741D02*
X0060350Y0032741D01*
X0060364Y0032779D02*
X0064056Y0032779D01*
X0064043Y0032817D02*
X0060377Y0032817D01*
X0060390Y0032855D02*
X0064030Y0032855D01*
X0064017Y0032893D02*
X0060403Y0032893D01*
X0060417Y0032931D02*
X0064003Y0032931D01*
X0063990Y0032968D02*
X0060430Y0032968D01*
X0060448Y0033006D02*
X0063971Y0033006D01*
X0063948Y0033044D02*
X0060472Y0033044D01*
X0060496Y0033082D02*
X0063924Y0033082D01*
X0063900Y0033120D02*
X0060520Y0033120D01*
X0060544Y0033158D02*
X0063876Y0033158D01*
X0063852Y0033196D02*
X0060568Y0033196D01*
X0060591Y0033234D02*
X0063829Y0033234D01*
X0063805Y0033271D02*
X0060615Y0033271D01*
X0060639Y0033309D02*
X0063781Y0033309D01*
X0063757Y0033347D02*
X0060663Y0033347D01*
X0060696Y0033385D02*
X0063724Y0033385D01*
X0063686Y0033423D02*
X0060734Y0033423D01*
X0060771Y0033461D02*
X0063648Y0033461D01*
X0063611Y0033499D02*
X0060809Y0033499D01*
X0060847Y0033537D02*
X0063573Y0033537D01*
X0063535Y0033574D02*
X0060885Y0033574D01*
X0060923Y0033612D02*
X0063497Y0033612D01*
X0063459Y0033650D02*
X0060961Y0033650D01*
X0061008Y0033688D02*
X0063412Y0033688D01*
X0063351Y0033726D02*
X0061069Y0033726D01*
X0061129Y0033764D02*
X0063291Y0033764D01*
X0063231Y0033802D02*
X0061189Y0033802D01*
X0061249Y0033840D02*
X0063171Y0033840D01*
X0063110Y0033878D02*
X0061310Y0033878D01*
X0061381Y0033915D02*
X0063039Y0033915D01*
X0062930Y0033953D02*
X0061490Y0033953D01*
X0061598Y0033991D02*
X0062822Y0033991D01*
X0062714Y0034029D02*
X0061706Y0034029D01*
X0061904Y0034067D02*
X0062516Y0034067D01*
X0062210Y0016661D02*
X0061772Y0016611D01*
X0061356Y0016466D01*
X0060983Y0016231D01*
X0060671Y0015919D01*
X0060436Y0015546D01*
X0060291Y0015130D01*
X0060241Y0014692D01*
X0060241Y0012330D01*
X0060291Y0011892D01*
X0060436Y0011476D01*
X0060671Y0011102D01*
X0060983Y0010791D01*
X0061356Y0010556D01*
X0061772Y0010411D01*
X0062210Y0010361D01*
X0062648Y0010411D01*
X0063064Y0010556D01*
X0063437Y0010791D01*
X0063749Y0011102D01*
X0063984Y0011476D01*
X0064129Y0011892D01*
X0064178Y0012330D01*
X0064178Y0014692D01*
X0064129Y0015130D01*
X0063984Y0015546D01*
X0063749Y0015919D01*
X0063437Y0016231D01*
X0063064Y0016466D01*
X0062648Y0016611D01*
X0062210Y0016661D01*
X0062041Y0016642D02*
X0062379Y0016642D01*
X0062670Y0016604D02*
X0061750Y0016604D01*
X0061642Y0016566D02*
X0062778Y0016566D01*
X0062886Y0016528D02*
X0061534Y0016528D01*
X0061426Y0016490D02*
X0062994Y0016490D01*
X0063086Y0016452D02*
X0061334Y0016452D01*
X0061274Y0016414D02*
X0063146Y0016414D01*
X0063206Y0016376D02*
X0061214Y0016376D01*
X0061154Y0016338D02*
X0063266Y0016338D01*
X0063327Y0016301D02*
X0061093Y0016301D01*
X0061033Y0016263D02*
X0063387Y0016263D01*
X0063444Y0016225D02*
X0060976Y0016225D01*
X0060939Y0016187D02*
X0063481Y0016187D01*
X0063519Y0016149D02*
X0060901Y0016149D01*
X0060863Y0016111D02*
X0063557Y0016111D01*
X0063595Y0016073D02*
X0060825Y0016073D01*
X0060787Y0016035D02*
X0063633Y0016035D01*
X0063671Y0015998D02*
X0060749Y0015998D01*
X0060711Y0015960D02*
X0063709Y0015960D01*
X0063747Y0015922D02*
X0060673Y0015922D01*
X0060649Y0015884D02*
X0063771Y0015884D01*
X0063795Y0015846D02*
X0060625Y0015846D01*
X0060601Y0015808D02*
X0063819Y0015808D01*
X0063843Y0015770D02*
X0060577Y0015770D01*
X0060553Y0015732D02*
X0063867Y0015732D01*
X0063890Y0015694D02*
X0060530Y0015694D01*
X0060506Y0015657D02*
X0063914Y0015657D01*
X0063938Y0015619D02*
X0060482Y0015619D01*
X0060458Y0015581D02*
X0063962Y0015581D01*
X0063985Y0015543D02*
X0060435Y0015543D01*
X0060422Y0015505D02*
X0063998Y0015505D01*
X0064011Y0015467D02*
X0060409Y0015467D01*
X0060396Y0015429D02*
X0064024Y0015429D01*
X0064038Y0015391D02*
X0060382Y0015391D01*
X0060369Y0015354D02*
X0064051Y0015354D01*
X0064064Y0015316D02*
X0060356Y0015316D01*
X0060343Y0015278D02*
X0064077Y0015278D01*
X0064091Y0015240D02*
X0060329Y0015240D01*
X0060316Y0015202D02*
X0064104Y0015202D01*
X0064117Y0015164D02*
X0060303Y0015164D01*
X0060290Y0015126D02*
X0064130Y0015126D01*
X0064134Y0015088D02*
X0060286Y0015088D01*
X0060282Y0015050D02*
X0064138Y0015050D01*
X0064142Y0015013D02*
X0060278Y0015013D01*
X0060273Y0014975D02*
X0064147Y0014975D01*
X0064151Y0014937D02*
X0060269Y0014937D01*
X0060265Y0014899D02*
X0064155Y0014899D01*
X0064159Y0014861D02*
X0060261Y0014861D01*
X0060256Y0014823D02*
X0064164Y0014823D01*
X0064168Y0014785D02*
X0060252Y0014785D01*
X0060248Y0014747D02*
X0064172Y0014747D01*
X0064177Y0014710D02*
X0060243Y0014710D01*
X0060241Y0014672D02*
X0064178Y0014672D01*
X0064178Y0014634D02*
X0060241Y0014634D01*
X0060241Y0014596D02*
X0064178Y0014596D01*
X0064178Y0014558D02*
X0060241Y0014558D01*
X0060241Y0014520D02*
X0064178Y0014520D01*
X0064178Y0014482D02*
X0060241Y0014482D01*
X0060241Y0014444D02*
X0064178Y0014444D01*
X0064178Y0014407D02*
X0060241Y0014407D01*
X0060241Y0014369D02*
X0064178Y0014369D01*
X0064178Y0014331D02*
X0060241Y0014331D01*
X0060241Y0014293D02*
X0064178Y0014293D01*
X0064178Y0014255D02*
X0060241Y0014255D01*
X0060241Y0014217D02*
X0064178Y0014217D01*
X0064178Y0014179D02*
X0060241Y0014179D01*
X0060241Y0014141D02*
X0064178Y0014141D01*
X0064178Y0014103D02*
X0060241Y0014103D01*
X0060241Y0014066D02*
X0064178Y0014066D01*
X0064178Y0014028D02*
X0060241Y0014028D01*
X0060241Y0013990D02*
X0064178Y0013990D01*
X0064178Y0013952D02*
X0060241Y0013952D01*
X0060241Y0013914D02*
X0064178Y0013914D01*
X0064178Y0013876D02*
X0060241Y0013876D01*
X0060241Y0013838D02*
X0064178Y0013838D01*
X0064178Y0013800D02*
X0060241Y0013800D01*
X0060241Y0013763D02*
X0064178Y0013763D01*
X0064178Y0013725D02*
X0060241Y0013725D01*
X0060241Y0013687D02*
X0064178Y0013687D01*
X0064178Y0013649D02*
X0060241Y0013649D01*
X0060241Y0013611D02*
X0064178Y0013611D01*
X0064178Y0013573D02*
X0060241Y0013573D01*
X0060241Y0013535D02*
X0064178Y0013535D01*
X0064178Y0013497D02*
X0060241Y0013497D01*
X0060241Y0013459D02*
X0064178Y0013459D01*
X0064178Y0013422D02*
X0060241Y0013422D01*
X0060241Y0013384D02*
X0064178Y0013384D01*
X0064178Y0013346D02*
X0060241Y0013346D01*
X0060241Y0013308D02*
X0064178Y0013308D01*
X0064178Y0013270D02*
X0060241Y0013270D01*
X0060241Y0013232D02*
X0064178Y0013232D01*
X0064178Y0013194D02*
X0060241Y0013194D01*
X0060241Y0013156D02*
X0064178Y0013156D01*
X0064178Y0013119D02*
X0060241Y0013119D01*
X0060241Y0013081D02*
X0064178Y0013081D01*
X0064178Y0013043D02*
X0060241Y0013043D01*
X0060241Y0013005D02*
X0064178Y0013005D01*
X0064178Y0012967D02*
X0060241Y0012967D01*
X0060241Y0012929D02*
X0064178Y0012929D01*
X0064178Y0012891D02*
X0060241Y0012891D01*
X0060241Y0012853D02*
X0064178Y0012853D01*
X0064178Y0012815D02*
X0060241Y0012815D01*
X0060241Y0012778D02*
X0064178Y0012778D01*
X0064178Y0012740D02*
X0060241Y0012740D01*
X0060241Y0012702D02*
X0064178Y0012702D01*
X0064178Y0012664D02*
X0060241Y0012664D01*
X0060241Y0012626D02*
X0064178Y0012626D01*
X0064178Y0012588D02*
X0060241Y0012588D01*
X0060241Y0012550D02*
X0064178Y0012550D01*
X0064178Y0012512D02*
X0060241Y0012512D01*
X0060241Y0012475D02*
X0064178Y0012475D01*
X0064178Y0012437D02*
X0060241Y0012437D01*
X0060241Y0012399D02*
X0064178Y0012399D01*
X0064178Y0012361D02*
X0060241Y0012361D01*
X0060242Y0012323D02*
X0064178Y0012323D01*
X0064173Y0012285D02*
X0060247Y0012285D01*
X0060251Y0012247D02*
X0064169Y0012247D01*
X0064165Y0012209D02*
X0060255Y0012209D01*
X0060259Y0012172D02*
X0064161Y0012172D01*
X0064156Y0012134D02*
X0060264Y0012134D01*
X0060268Y0012096D02*
X0064152Y0012096D01*
X0064148Y0012058D02*
X0060272Y0012058D01*
X0060276Y0012020D02*
X0064144Y0012020D01*
X0064139Y0011982D02*
X0060281Y0011982D01*
X0060285Y0011944D02*
X0064135Y0011944D01*
X0064131Y0011906D02*
X0060289Y0011906D01*
X0060299Y0011868D02*
X0064121Y0011868D01*
X0064108Y0011831D02*
X0060312Y0011831D01*
X0060326Y0011793D02*
X0064094Y0011793D01*
X0064081Y0011755D02*
X0060339Y0011755D01*
X0060352Y0011717D02*
X0064068Y0011717D01*
X0064055Y0011679D02*
X0060365Y0011679D01*
X0060379Y0011641D02*
X0064041Y0011641D01*
X0064028Y0011603D02*
X0060392Y0011603D01*
X0060405Y0011565D02*
X0064015Y0011565D01*
X0064002Y0011528D02*
X0060418Y0011528D01*
X0060432Y0011490D02*
X0063988Y0011490D01*
X0063968Y0011452D02*
X0060451Y0011452D01*
X0060475Y0011414D02*
X0063945Y0011414D01*
X0063921Y0011376D02*
X0060499Y0011376D01*
X0060523Y0011338D02*
X0063897Y0011338D01*
X0063873Y0011300D02*
X0060547Y0011300D01*
X0060570Y0011262D02*
X0063849Y0011262D01*
X0063826Y0011224D02*
X0060594Y0011224D01*
X0060618Y0011187D02*
X0063802Y0011187D01*
X0063778Y0011149D02*
X0060642Y0011149D01*
X0060666Y0011111D02*
X0063754Y0011111D01*
X0063719Y0011073D02*
X0060700Y0011073D01*
X0060738Y0011035D02*
X0063682Y0011035D01*
X0063644Y0010997D02*
X0060776Y0010997D01*
X0060814Y0010959D02*
X0063606Y0010959D01*
X0063568Y0010921D02*
X0060852Y0010921D01*
X0060890Y0010884D02*
X0063530Y0010884D01*
X0063492Y0010846D02*
X0060928Y0010846D01*
X0060966Y0010808D02*
X0063454Y0010808D01*
X0063404Y0010770D02*
X0061016Y0010770D01*
X0061076Y0010732D02*
X0063344Y0010732D01*
X0063284Y0010694D02*
X0061136Y0010694D01*
X0061197Y0010656D02*
X0063223Y0010656D01*
X0063163Y0010618D02*
X0061257Y0010618D01*
X0061317Y0010580D02*
X0063103Y0010580D01*
X0063025Y0010543D02*
X0061395Y0010543D01*
X0061503Y0010505D02*
X0062917Y0010505D01*
X0062809Y0010467D02*
X0061611Y0010467D01*
X0061720Y0010429D02*
X0062700Y0010429D01*
X0062474Y0010391D02*
X0061946Y0010391D01*
X0094241Y0012330D02*
X0094291Y0011892D01*
X0094436Y0011476D01*
X0094671Y0011102D01*
X0094983Y0010791D01*
X0095356Y0010556D01*
X0095772Y0010411D01*
X0096210Y0010361D01*
X0096648Y0010411D01*
X0097064Y0010556D01*
X0097437Y0010791D01*
X0097749Y0011102D01*
X0097984Y0011476D01*
X0098129Y0011892D01*
X0098178Y0012330D01*
X0098178Y0014692D01*
X0098129Y0015130D01*
X0097984Y0015546D01*
X0097749Y0015919D01*
X0097437Y0016231D01*
X0097064Y0016466D01*
X0096648Y0016611D01*
X0096210Y0016661D01*
X0095772Y0016611D01*
X0095356Y0016466D01*
X0094983Y0016231D01*
X0094671Y0015919D01*
X0094436Y0015546D01*
X0094291Y0015130D01*
X0094241Y0014692D01*
X0094241Y0012330D01*
X0094242Y0012323D02*
X0098178Y0012323D01*
X0098178Y0012361D02*
X0094241Y0012361D01*
X0094241Y0012399D02*
X0098178Y0012399D01*
X0098178Y0012437D02*
X0094241Y0012437D01*
X0094241Y0012475D02*
X0098178Y0012475D01*
X0098178Y0012512D02*
X0094241Y0012512D01*
X0094241Y0012550D02*
X0098178Y0012550D01*
X0098178Y0012588D02*
X0094241Y0012588D01*
X0094241Y0012626D02*
X0098178Y0012626D01*
X0098178Y0012664D02*
X0094241Y0012664D01*
X0094241Y0012702D02*
X0098178Y0012702D01*
X0098178Y0012740D02*
X0094241Y0012740D01*
X0094241Y0012778D02*
X0098178Y0012778D01*
X0098178Y0012815D02*
X0094241Y0012815D01*
X0094241Y0012853D02*
X0098178Y0012853D01*
X0098178Y0012891D02*
X0094241Y0012891D01*
X0094241Y0012929D02*
X0098178Y0012929D01*
X0098178Y0012967D02*
X0094241Y0012967D01*
X0094241Y0013005D02*
X0098178Y0013005D01*
X0098178Y0013043D02*
X0094241Y0013043D01*
X0094241Y0013081D02*
X0098178Y0013081D01*
X0098178Y0013119D02*
X0094241Y0013119D01*
X0094241Y0013156D02*
X0098178Y0013156D01*
X0098178Y0013194D02*
X0094241Y0013194D01*
X0094241Y0013232D02*
X0098178Y0013232D01*
X0098178Y0013270D02*
X0094241Y0013270D01*
X0094241Y0013308D02*
X0098178Y0013308D01*
X0098178Y0013346D02*
X0094241Y0013346D01*
X0094241Y0013384D02*
X0098178Y0013384D01*
X0098178Y0013422D02*
X0094241Y0013422D01*
X0094241Y0013459D02*
X0098178Y0013459D01*
X0098178Y0013497D02*
X0094241Y0013497D01*
X0094241Y0013535D02*
X0098178Y0013535D01*
X0098178Y0013573D02*
X0094241Y0013573D01*
X0094241Y0013611D02*
X0098178Y0013611D01*
X0098178Y0013649D02*
X0094241Y0013649D01*
X0094241Y0013687D02*
X0098178Y0013687D01*
X0098178Y0013725D02*
X0094241Y0013725D01*
X0094241Y0013763D02*
X0098178Y0013763D01*
X0098178Y0013800D02*
X0094241Y0013800D01*
X0094241Y0013838D02*
X0098178Y0013838D01*
X0098178Y0013876D02*
X0094241Y0013876D01*
X0094241Y0013914D02*
X0098178Y0013914D01*
X0098178Y0013952D02*
X0094241Y0013952D01*
X0094241Y0013990D02*
X0098178Y0013990D01*
X0098178Y0014028D02*
X0094241Y0014028D01*
X0094241Y0014066D02*
X0098178Y0014066D01*
X0098178Y0014103D02*
X0094241Y0014103D01*
X0094241Y0014141D02*
X0098178Y0014141D01*
X0098178Y0014179D02*
X0094241Y0014179D01*
X0094241Y0014217D02*
X0098178Y0014217D01*
X0098178Y0014255D02*
X0094241Y0014255D01*
X0094241Y0014293D02*
X0098178Y0014293D01*
X0098178Y0014331D02*
X0094241Y0014331D01*
X0094241Y0014369D02*
X0098178Y0014369D01*
X0098178Y0014407D02*
X0094241Y0014407D01*
X0094241Y0014444D02*
X0098178Y0014444D01*
X0098178Y0014482D02*
X0094241Y0014482D01*
X0094241Y0014520D02*
X0098178Y0014520D01*
X0098178Y0014558D02*
X0094241Y0014558D01*
X0094241Y0014596D02*
X0098178Y0014596D01*
X0098178Y0014634D02*
X0094241Y0014634D01*
X0094241Y0014672D02*
X0098178Y0014672D01*
X0098177Y0014710D02*
X0094243Y0014710D01*
X0094248Y0014747D02*
X0098172Y0014747D01*
X0098168Y0014785D02*
X0094252Y0014785D01*
X0094256Y0014823D02*
X0098164Y0014823D01*
X0098159Y0014861D02*
X0094261Y0014861D01*
X0094265Y0014899D02*
X0098155Y0014899D01*
X0098151Y0014937D02*
X0094269Y0014937D01*
X0094273Y0014975D02*
X0098147Y0014975D01*
X0098142Y0015013D02*
X0094278Y0015013D01*
X0094282Y0015050D02*
X0098138Y0015050D01*
X0098134Y0015088D02*
X0094286Y0015088D01*
X0094290Y0015126D02*
X0098130Y0015126D01*
X0098117Y0015164D02*
X0094303Y0015164D01*
X0094316Y0015202D02*
X0098104Y0015202D01*
X0098091Y0015240D02*
X0094329Y0015240D01*
X0094343Y0015278D02*
X0098077Y0015278D01*
X0098064Y0015316D02*
X0094356Y0015316D01*
X0094369Y0015354D02*
X0098051Y0015354D01*
X0098038Y0015391D02*
X0094382Y0015391D01*
X0094396Y0015429D02*
X0098024Y0015429D01*
X0098011Y0015467D02*
X0094409Y0015467D01*
X0094422Y0015505D02*
X0097998Y0015505D01*
X0097985Y0015543D02*
X0094435Y0015543D01*
X0094458Y0015581D02*
X0097962Y0015581D01*
X0097938Y0015619D02*
X0094482Y0015619D01*
X0094506Y0015657D02*
X0097914Y0015657D01*
X0097890Y0015694D02*
X0094530Y0015694D01*
X0094553Y0015732D02*
X0097867Y0015732D01*
X0097843Y0015770D02*
X0094577Y0015770D01*
X0094601Y0015808D02*
X0097819Y0015808D01*
X0097795Y0015846D02*
X0094625Y0015846D01*
X0094649Y0015884D02*
X0097771Y0015884D01*
X0097747Y0015922D02*
X0094673Y0015922D01*
X0094711Y0015960D02*
X0097709Y0015960D01*
X0097671Y0015998D02*
X0094749Y0015998D01*
X0094787Y0016035D02*
X0097633Y0016035D01*
X0097595Y0016073D02*
X0094825Y0016073D01*
X0094863Y0016111D02*
X0097557Y0016111D01*
X0097519Y0016149D02*
X0094901Y0016149D01*
X0094939Y0016187D02*
X0097481Y0016187D01*
X0097444Y0016225D02*
X0094976Y0016225D01*
X0095033Y0016263D02*
X0097387Y0016263D01*
X0097327Y0016301D02*
X0095093Y0016301D01*
X0095154Y0016338D02*
X0097266Y0016338D01*
X0097206Y0016376D02*
X0095214Y0016376D01*
X0095274Y0016414D02*
X0097146Y0016414D01*
X0097086Y0016452D02*
X0095334Y0016452D01*
X0095426Y0016490D02*
X0096994Y0016490D01*
X0096886Y0016528D02*
X0095534Y0016528D01*
X0095642Y0016566D02*
X0096778Y0016566D01*
X0096670Y0016604D02*
X0095750Y0016604D01*
X0096041Y0016642D02*
X0096379Y0016642D01*
X0098173Y0012285D02*
X0094247Y0012285D01*
X0094251Y0012247D02*
X0098169Y0012247D01*
X0098165Y0012209D02*
X0094255Y0012209D01*
X0094259Y0012172D02*
X0098161Y0012172D01*
X0098156Y0012134D02*
X0094264Y0012134D01*
X0094268Y0012096D02*
X0098152Y0012096D01*
X0098148Y0012058D02*
X0094272Y0012058D01*
X0094276Y0012020D02*
X0098144Y0012020D01*
X0098139Y0011982D02*
X0094281Y0011982D01*
X0094285Y0011944D02*
X0098135Y0011944D01*
X0098131Y0011906D02*
X0094289Y0011906D01*
X0094299Y0011868D02*
X0098121Y0011868D01*
X0098108Y0011831D02*
X0094312Y0011831D01*
X0094326Y0011793D02*
X0098094Y0011793D01*
X0098081Y0011755D02*
X0094339Y0011755D01*
X0094352Y0011717D02*
X0098068Y0011717D01*
X0098055Y0011679D02*
X0094365Y0011679D01*
X0094379Y0011641D02*
X0098041Y0011641D01*
X0098028Y0011603D02*
X0094392Y0011603D01*
X0094405Y0011565D02*
X0098015Y0011565D01*
X0098002Y0011528D02*
X0094418Y0011528D01*
X0094432Y0011490D02*
X0097988Y0011490D01*
X0097968Y0011452D02*
X0094451Y0011452D01*
X0094475Y0011414D02*
X0097945Y0011414D01*
X0097921Y0011376D02*
X0094499Y0011376D01*
X0094523Y0011338D02*
X0097897Y0011338D01*
X0097873Y0011300D02*
X0094547Y0011300D01*
X0094570Y0011262D02*
X0097849Y0011262D01*
X0097826Y0011224D02*
X0094594Y0011224D01*
X0094618Y0011187D02*
X0097802Y0011187D01*
X0097778Y0011149D02*
X0094642Y0011149D01*
X0094666Y0011111D02*
X0097754Y0011111D01*
X0097719Y0011073D02*
X0094700Y0011073D01*
X0094738Y0011035D02*
X0097682Y0011035D01*
X0097644Y0010997D02*
X0094776Y0010997D01*
X0094814Y0010959D02*
X0097606Y0010959D01*
X0097568Y0010921D02*
X0094852Y0010921D01*
X0094890Y0010884D02*
X0097530Y0010884D01*
X0097492Y0010846D02*
X0094928Y0010846D01*
X0094966Y0010808D02*
X0097454Y0010808D01*
X0097404Y0010770D02*
X0095016Y0010770D01*
X0095076Y0010732D02*
X0097344Y0010732D01*
X0097284Y0010694D02*
X0095136Y0010694D01*
X0095197Y0010656D02*
X0097223Y0010656D01*
X0097163Y0010618D02*
X0095257Y0010618D01*
X0095317Y0010580D02*
X0097103Y0010580D01*
X0097025Y0010543D02*
X0095395Y0010543D01*
X0095503Y0010505D02*
X0096917Y0010505D01*
X0096809Y0010467D02*
X0095611Y0010467D01*
X0095720Y0010429D02*
X0096700Y0010429D01*
X0096474Y0010391D02*
X0095946Y0010391D01*
X0096210Y0025834D02*
X0096648Y0025883D01*
X0097064Y0026029D01*
X0097437Y0026263D01*
X0097749Y0026575D01*
X0097984Y0026948D01*
X0098129Y0027364D01*
X0098178Y0027802D01*
X0098178Y0032133D01*
X0098129Y0032571D01*
X0097984Y0032987D01*
X0097749Y0033360D01*
X0097437Y0033672D01*
X0097064Y0033907D01*
X0096648Y0034052D01*
X0096210Y0034101D01*
X0095772Y0034052D01*
X0095356Y0033907D01*
X0094983Y0033672D01*
X0094671Y0033360D01*
X0094436Y0032987D01*
X0094291Y0032571D01*
X0094241Y0032133D01*
X0094241Y0027802D01*
X0094291Y0027364D01*
X0094436Y0026948D01*
X0094671Y0026575D01*
X0094983Y0026263D01*
X0095356Y0026029D01*
X0095772Y0025883D01*
X0096210Y0025834D01*
X0096095Y0025847D02*
X0096325Y0025847D01*
X0096652Y0025885D02*
X0095768Y0025885D01*
X0095660Y0025922D02*
X0096760Y0025922D01*
X0096869Y0025960D02*
X0095551Y0025960D01*
X0095443Y0025998D02*
X0096977Y0025998D01*
X0097076Y0026036D02*
X0095344Y0026036D01*
X0095284Y0026074D02*
X0097136Y0026074D01*
X0097196Y0026112D02*
X0095224Y0026112D01*
X0095163Y0026150D02*
X0097257Y0026150D01*
X0097317Y0026188D02*
X0095103Y0026188D01*
X0095043Y0026226D02*
X0097377Y0026226D01*
X0097437Y0026263D02*
X0094982Y0026263D01*
X0094945Y0026301D02*
X0097475Y0026301D01*
X0097513Y0026339D02*
X0094907Y0026339D01*
X0094869Y0026377D02*
X0097551Y0026377D01*
X0097589Y0026415D02*
X0094831Y0026415D01*
X0094793Y0026453D02*
X0097627Y0026453D01*
X0097665Y0026491D02*
X0094755Y0026491D01*
X0094717Y0026529D02*
X0097703Y0026529D01*
X0097741Y0026566D02*
X0094679Y0026566D01*
X0094652Y0026604D02*
X0097767Y0026604D01*
X0097791Y0026642D02*
X0094629Y0026642D01*
X0094605Y0026680D02*
X0097815Y0026680D01*
X0097839Y0026718D02*
X0094581Y0026718D01*
X0094557Y0026756D02*
X0097863Y0026756D01*
X0097887Y0026794D02*
X0094533Y0026794D01*
X0094510Y0026832D02*
X0097910Y0026832D01*
X0097934Y0026869D02*
X0094486Y0026869D01*
X0094462Y0026907D02*
X0097958Y0026907D01*
X0097982Y0026945D02*
X0094438Y0026945D01*
X0094424Y0026983D02*
X0097996Y0026983D01*
X0098009Y0027021D02*
X0094411Y0027021D01*
X0094398Y0027059D02*
X0098022Y0027059D01*
X0098036Y0027097D02*
X0094384Y0027097D01*
X0094371Y0027135D02*
X0098049Y0027135D01*
X0098062Y0027173D02*
X0094358Y0027173D01*
X0094345Y0027210D02*
X0098075Y0027210D01*
X0098089Y0027248D02*
X0094331Y0027248D01*
X0094318Y0027286D02*
X0098102Y0027286D01*
X0098115Y0027324D02*
X0094305Y0027324D01*
X0094292Y0027362D02*
X0098128Y0027362D01*
X0098133Y0027400D02*
X0094287Y0027400D01*
X0094283Y0027438D02*
X0098137Y0027438D01*
X0098142Y0027476D02*
X0094278Y0027476D01*
X0094274Y0027513D02*
X0098146Y0027513D01*
X0098150Y0027551D02*
X0094270Y0027551D01*
X0094265Y0027589D02*
X0098154Y0027589D01*
X0098159Y0027627D02*
X0094261Y0027627D01*
X0094257Y0027665D02*
X0098163Y0027665D01*
X0098167Y0027703D02*
X0094253Y0027703D01*
X0094248Y0027741D02*
X0098172Y0027741D01*
X0098176Y0027779D02*
X0094244Y0027779D01*
X0094241Y0027817D02*
X0098178Y0027817D01*
X0098178Y0027854D02*
X0094241Y0027854D01*
X0094241Y0027892D02*
X0098178Y0027892D01*
X0098178Y0027930D02*
X0094241Y0027930D01*
X0094241Y0027968D02*
X0098178Y0027968D01*
X0098178Y0028006D02*
X0094241Y0028006D01*
X0094241Y0028044D02*
X0098178Y0028044D01*
X0098178Y0028082D02*
X0094241Y0028082D01*
X0094241Y0028120D02*
X0098178Y0028120D01*
X0098178Y0028157D02*
X0094241Y0028157D01*
X0094241Y0028195D02*
X0098178Y0028195D01*
X0098178Y0028233D02*
X0094241Y0028233D01*
X0094241Y0028271D02*
X0098178Y0028271D01*
X0098178Y0028309D02*
X0094241Y0028309D01*
X0094241Y0028347D02*
X0098178Y0028347D01*
X0098178Y0028385D02*
X0094241Y0028385D01*
X0094241Y0028423D02*
X0098178Y0028423D01*
X0098178Y0028461D02*
X0094241Y0028461D01*
X0094241Y0028498D02*
X0098178Y0028498D01*
X0098178Y0028536D02*
X0094241Y0028536D01*
X0094241Y0028574D02*
X0098178Y0028574D01*
X0098178Y0028612D02*
X0094241Y0028612D01*
X0094241Y0028650D02*
X0098178Y0028650D01*
X0098178Y0028688D02*
X0094241Y0028688D01*
X0094241Y0028726D02*
X0098178Y0028726D01*
X0098178Y0028764D02*
X0094241Y0028764D01*
X0094241Y0028801D02*
X0098178Y0028801D01*
X0098178Y0028839D02*
X0094241Y0028839D01*
X0094241Y0028877D02*
X0098178Y0028877D01*
X0098178Y0028915D02*
X0094241Y0028915D01*
X0094241Y0028953D02*
X0098178Y0028953D01*
X0098178Y0028991D02*
X0094241Y0028991D01*
X0094241Y0029029D02*
X0098178Y0029029D01*
X0098178Y0029067D02*
X0094241Y0029067D01*
X0094241Y0029104D02*
X0098178Y0029104D01*
X0098178Y0029142D02*
X0094241Y0029142D01*
X0094241Y0029180D02*
X0098178Y0029180D01*
X0098178Y0029218D02*
X0094241Y0029218D01*
X0094241Y0029256D02*
X0098178Y0029256D01*
X0098178Y0029294D02*
X0094241Y0029294D01*
X0094241Y0029332D02*
X0098178Y0029332D01*
X0098178Y0029370D02*
X0094241Y0029370D01*
X0094241Y0029408D02*
X0098178Y0029408D01*
X0098178Y0029445D02*
X0094241Y0029445D01*
X0094241Y0029483D02*
X0098178Y0029483D01*
X0098178Y0029521D02*
X0094241Y0029521D01*
X0094241Y0029559D02*
X0098178Y0029559D01*
X0098178Y0029597D02*
X0094241Y0029597D01*
X0094241Y0029635D02*
X0098178Y0029635D01*
X0098178Y0029673D02*
X0094241Y0029673D01*
X0094241Y0029711D02*
X0098178Y0029711D01*
X0098178Y0029748D02*
X0094241Y0029748D01*
X0094241Y0029786D02*
X0098178Y0029786D01*
X0098178Y0029824D02*
X0094241Y0029824D01*
X0094241Y0029862D02*
X0098178Y0029862D01*
X0098178Y0029900D02*
X0094241Y0029900D01*
X0094241Y0029938D02*
X0098178Y0029938D01*
X0098178Y0029976D02*
X0094241Y0029976D01*
X0094241Y0030014D02*
X0098178Y0030014D01*
X0098178Y0030052D02*
X0094241Y0030052D01*
X0094241Y0030089D02*
X0098178Y0030089D01*
X0098178Y0030127D02*
X0094241Y0030127D01*
X0094241Y0030165D02*
X0098178Y0030165D01*
X0098178Y0030203D02*
X0094241Y0030203D01*
X0094241Y0030241D02*
X0098178Y0030241D01*
X0098178Y0030279D02*
X0094241Y0030279D01*
X0094241Y0030317D02*
X0098178Y0030317D01*
X0098178Y0030355D02*
X0094241Y0030355D01*
X0094241Y0030392D02*
X0098178Y0030392D01*
X0098178Y0030430D02*
X0094241Y0030430D01*
X0094241Y0030468D02*
X0098178Y0030468D01*
X0098178Y0030506D02*
X0094241Y0030506D01*
X0094241Y0030544D02*
X0098178Y0030544D01*
X0098178Y0030582D02*
X0094241Y0030582D01*
X0094241Y0030620D02*
X0098178Y0030620D01*
X0098178Y0030658D02*
X0094241Y0030658D01*
X0094241Y0030696D02*
X0098178Y0030696D01*
X0098178Y0030733D02*
X0094241Y0030733D01*
X0094241Y0030771D02*
X0098178Y0030771D01*
X0098178Y0030809D02*
X0094241Y0030809D01*
X0094241Y0030847D02*
X0098178Y0030847D01*
X0098178Y0030885D02*
X0094241Y0030885D01*
X0094241Y0030923D02*
X0098178Y0030923D01*
X0098178Y0030961D02*
X0094241Y0030961D01*
X0094241Y0030999D02*
X0098178Y0030999D01*
X0098178Y0031036D02*
X0094241Y0031036D01*
X0094241Y0031074D02*
X0098178Y0031074D01*
X0098178Y0031112D02*
X0094241Y0031112D01*
X0094241Y0031150D02*
X0098178Y0031150D01*
X0098178Y0031188D02*
X0094241Y0031188D01*
X0094241Y0031226D02*
X0098178Y0031226D01*
X0098178Y0031264D02*
X0094241Y0031264D01*
X0094241Y0031302D02*
X0098178Y0031302D01*
X0098178Y0031339D02*
X0094241Y0031339D01*
X0094241Y0031377D02*
X0098178Y0031377D01*
X0098178Y0031415D02*
X0094241Y0031415D01*
X0094241Y0031453D02*
X0098178Y0031453D01*
X0098178Y0031491D02*
X0094241Y0031491D01*
X0094241Y0031529D02*
X0098178Y0031529D01*
X0098178Y0031567D02*
X0094241Y0031567D01*
X0094241Y0031605D02*
X0098178Y0031605D01*
X0098178Y0031643D02*
X0094241Y0031643D01*
X0094241Y0031680D02*
X0098178Y0031680D01*
X0098178Y0031718D02*
X0094241Y0031718D01*
X0094241Y0031756D02*
X0098178Y0031756D01*
X0098178Y0031794D02*
X0094241Y0031794D01*
X0094241Y0031832D02*
X0098178Y0031832D01*
X0098178Y0031870D02*
X0094241Y0031870D01*
X0094241Y0031908D02*
X0098178Y0031908D01*
X0098178Y0031946D02*
X0094241Y0031946D01*
X0094241Y0031983D02*
X0098178Y0031983D01*
X0098178Y0032021D02*
X0094241Y0032021D01*
X0094241Y0032059D02*
X0098178Y0032059D01*
X0098178Y0032097D02*
X0094241Y0032097D01*
X0094242Y0032135D02*
X0098178Y0032135D01*
X0098174Y0032173D02*
X0094246Y0032173D01*
X0094250Y0032211D02*
X0098170Y0032211D01*
X0098165Y0032249D02*
X0094255Y0032249D01*
X0094259Y0032287D02*
X0098161Y0032287D01*
X0098157Y0032324D02*
X0094263Y0032324D01*
X0094267Y0032362D02*
X0098153Y0032362D01*
X0098148Y0032400D02*
X0094272Y0032400D01*
X0094276Y0032438D02*
X0098144Y0032438D01*
X0098140Y0032476D02*
X0094280Y0032476D01*
X0094284Y0032514D02*
X0098136Y0032514D01*
X0098131Y0032552D02*
X0094289Y0032552D01*
X0094297Y0032590D02*
X0098123Y0032590D01*
X0098109Y0032627D02*
X0094311Y0032627D01*
X0094324Y0032665D02*
X0098096Y0032665D01*
X0098083Y0032703D02*
X0094337Y0032703D01*
X0094350Y0032741D02*
X0098070Y0032741D01*
X0098056Y0032779D02*
X0094364Y0032779D01*
X0094377Y0032817D02*
X0098043Y0032817D01*
X0098030Y0032855D02*
X0094390Y0032855D01*
X0094403Y0032893D02*
X0098017Y0032893D01*
X0098003Y0032931D02*
X0094417Y0032931D01*
X0094430Y0032968D02*
X0097990Y0032968D01*
X0097971Y0033006D02*
X0094448Y0033006D01*
X0094472Y0033044D02*
X0097948Y0033044D01*
X0097924Y0033082D02*
X0094496Y0033082D01*
X0094520Y0033120D02*
X0097900Y0033120D01*
X0097876Y0033158D02*
X0094544Y0033158D01*
X0094568Y0033196D02*
X0097852Y0033196D01*
X0097829Y0033234D02*
X0094591Y0033234D01*
X0094615Y0033271D02*
X0097805Y0033271D01*
X0097781Y0033309D02*
X0094639Y0033309D01*
X0094663Y0033347D02*
X0097757Y0033347D01*
X0097724Y0033385D02*
X0094696Y0033385D01*
X0094734Y0033423D02*
X0097686Y0033423D01*
X0097648Y0033461D02*
X0094771Y0033461D01*
X0094809Y0033499D02*
X0097611Y0033499D01*
X0097573Y0033537D02*
X0094847Y0033537D01*
X0094885Y0033574D02*
X0097535Y0033574D01*
X0097497Y0033612D02*
X0094923Y0033612D01*
X0094961Y0033650D02*
X0097459Y0033650D01*
X0097412Y0033688D02*
X0095008Y0033688D01*
X0095069Y0033726D02*
X0097351Y0033726D01*
X0097291Y0033764D02*
X0095129Y0033764D01*
X0095189Y0033802D02*
X0097231Y0033802D01*
X0097171Y0033840D02*
X0095249Y0033840D01*
X0095310Y0033878D02*
X0097110Y0033878D01*
X0097039Y0033915D02*
X0095381Y0033915D01*
X0095490Y0033953D02*
X0096930Y0033953D01*
X0096822Y0033991D02*
X0095598Y0033991D01*
X0095706Y0034029D02*
X0096714Y0034029D01*
X0096516Y0034067D02*
X0095904Y0034067D01*
D16*
X0089510Y0062020D03*
X0079510Y0062020D03*
X0079510Y0082020D03*
X0089510Y0082020D03*
X0109510Y0082020D03*
X0109510Y0062020D03*
X0059510Y0062020D03*
X0059510Y0082020D03*
D17*
X0084717Y0185859D03*
X0088329Y0189471D03*
X0091941Y0193083D03*
X0088329Y0196695D03*
X0084717Y0193083D03*
X0081104Y0196695D03*
X0084717Y0200307D03*
X0081104Y0189471D03*
X0091941Y0185859D03*
X0095553Y0189471D03*
X0095553Y0196695D03*
X0091941Y0200307D03*
D18*
X0007180Y0322366D02*
X0007130Y0002647D01*
X0054090Y0002540D01*
X0158083Y0002540D01*
X0158569Y0321855D01*
X0007180Y0322366D01*
X0007180Y0322049D02*
X0101164Y0322049D01*
X0120320Y0268809D02*
X0118921Y0267410D01*
X0118921Y0265430D01*
X0119660Y0264691D01*
X0119660Y0237243D01*
X0119660Y0235877D01*
X0127680Y0227857D01*
X0127680Y0098903D01*
X0115677Y0086900D01*
X0114710Y0085933D01*
X0114710Y0033837D01*
X0115677Y0032870D01*
X0118520Y0032870D01*
X0118520Y0031845D01*
X0119220Y0030154D01*
X0120514Y0028860D01*
X0122205Y0028160D01*
X0124035Y0028160D01*
X0125726Y0028860D01*
X0127020Y0030154D01*
X0127720Y0031845D01*
X0127720Y0033675D01*
X0127020Y0035366D01*
X0125726Y0036660D01*
X0124035Y0037360D01*
X0122205Y0037360D01*
X0120514Y0036660D01*
X0120025Y0036170D01*
X0118010Y0036170D01*
X0118010Y0084567D01*
X0130980Y0097537D01*
X0130980Y0229223D01*
X0130013Y0230190D01*
X0122960Y0237243D01*
X0122960Y0264691D01*
X0123699Y0265430D01*
X0123699Y0267410D01*
X0122300Y0268809D01*
X0120320Y0268809D01*
X0120293Y0268781D02*
X0007171Y0268781D01*
X0007171Y0268183D02*
X0119694Y0268183D01*
X0119096Y0267584D02*
X0007171Y0267584D01*
X0007171Y0266986D02*
X0118921Y0266986D01*
X0118921Y0266387D02*
X0007171Y0266387D01*
X0007171Y0265789D02*
X0118921Y0265789D01*
X0119161Y0265190D02*
X0007171Y0265190D01*
X0007171Y0264592D02*
X0119660Y0264592D01*
X0119660Y0263993D02*
X0007171Y0263993D01*
X0007171Y0263395D02*
X0119660Y0263395D01*
X0119660Y0262796D02*
X0007171Y0262796D01*
X0007170Y0262198D02*
X0119660Y0262198D01*
X0119660Y0261599D02*
X0007170Y0261599D01*
X0007170Y0261001D02*
X0119660Y0261001D01*
X0119660Y0260402D02*
X0007170Y0260402D01*
X0007170Y0259804D02*
X0119660Y0259804D01*
X0119660Y0259205D02*
X0007170Y0259205D01*
X0007170Y0258607D02*
X0119660Y0258607D01*
X0119660Y0258008D02*
X0007170Y0258008D01*
X0007170Y0257410D02*
X0119660Y0257410D01*
X0119660Y0256811D02*
X0007170Y0256811D01*
X0007170Y0256213D02*
X0119660Y0256213D01*
X0119660Y0255614D02*
X0007169Y0255614D01*
X0007169Y0255016D02*
X0119660Y0255016D01*
X0119660Y0254417D02*
X0007169Y0254417D01*
X0007169Y0253819D02*
X0119660Y0253819D01*
X0119660Y0253220D02*
X0007169Y0253220D01*
X0007169Y0252622D02*
X0119660Y0252622D01*
X0119660Y0252023D02*
X0007169Y0252023D01*
X0007169Y0251425D02*
X0119660Y0251425D01*
X0119660Y0250826D02*
X0007169Y0250826D01*
X0007169Y0250227D02*
X0119660Y0250227D01*
X0119660Y0249629D02*
X0007169Y0249629D01*
X0007168Y0249030D02*
X0119660Y0249030D01*
X0119660Y0248432D02*
X0007168Y0248432D01*
X0007168Y0247833D02*
X0119660Y0247833D01*
X0119660Y0247235D02*
X0007168Y0247235D01*
X0007168Y0246636D02*
X0119660Y0246636D01*
X0119660Y0246038D02*
X0007168Y0246038D01*
X0007168Y0245439D02*
X0119660Y0245439D01*
X0119660Y0244841D02*
X0007168Y0244841D01*
X0007168Y0244242D02*
X0119660Y0244242D01*
X0119660Y0243644D02*
X0007168Y0243644D01*
X0007167Y0243045D02*
X0119660Y0243045D01*
X0119660Y0242447D02*
X0007167Y0242447D01*
X0007167Y0241848D02*
X0119660Y0241848D01*
X0119660Y0241250D02*
X0007167Y0241250D01*
X0007167Y0240651D02*
X0119660Y0240651D01*
X0119660Y0240053D02*
X0007167Y0240053D01*
X0007167Y0239454D02*
X0119660Y0239454D01*
X0119660Y0238856D02*
X0007167Y0238856D01*
X0007167Y0238257D02*
X0119660Y0238257D01*
X0119660Y0237659D02*
X0007167Y0237659D01*
X0007167Y0237060D02*
X0119660Y0237060D01*
X0119660Y0236462D02*
X0007166Y0236462D01*
X0007166Y0235863D02*
X0119673Y0235863D01*
X0120272Y0235265D02*
X0007166Y0235265D01*
X0007166Y0234666D02*
X0120870Y0234666D01*
X0121469Y0234068D02*
X0007166Y0234068D01*
X0007166Y0233469D02*
X0122067Y0233469D01*
X0122666Y0232871D02*
X0007166Y0232871D01*
X0007166Y0232272D02*
X0029013Y0232272D01*
X0029013Y0232577D02*
X0029013Y0161463D01*
X0029189Y0161287D01*
X0052880Y0161287D01*
X0040910Y0149317D01*
X0040910Y0126398D01*
X0039721Y0125210D01*
X0039721Y0123230D01*
X0041120Y0121831D01*
X0043100Y0121831D01*
X0044499Y0123230D01*
X0044499Y0125210D01*
X0043310Y0126398D01*
X0043310Y0148323D01*
X0075618Y0180631D01*
X0077300Y0180631D01*
X0078699Y0182030D01*
X0078699Y0184010D01*
X0077300Y0185409D01*
X0075320Y0185409D01*
X0073921Y0184010D01*
X0073921Y0182328D01*
X0054416Y0162823D01*
X0054416Y0232577D01*
X0054241Y0232753D01*
X0029189Y0232753D01*
X0029013Y0232577D01*
X0029013Y0231674D02*
X0007166Y0231674D01*
X0007166Y0231075D02*
X0029013Y0231075D01*
X0029013Y0230477D02*
X0007166Y0230477D01*
X0007165Y0229878D02*
X0029013Y0229878D01*
X0029013Y0229280D02*
X0007165Y0229280D01*
X0007165Y0228681D02*
X0029013Y0228681D01*
X0029013Y0228083D02*
X0007165Y0228083D01*
X0007165Y0227484D02*
X0029013Y0227484D01*
X0029013Y0226886D02*
X0007165Y0226886D01*
X0007165Y0226287D02*
X0029013Y0226287D01*
X0029013Y0225689D02*
X0007165Y0225689D01*
X0007165Y0225090D02*
X0029013Y0225090D01*
X0029013Y0224491D02*
X0007165Y0224491D01*
X0007165Y0223893D02*
X0029013Y0223893D01*
X0029013Y0223294D02*
X0007164Y0223294D01*
X0007164Y0222696D02*
X0029013Y0222696D01*
X0029013Y0222097D02*
X0007164Y0222097D01*
X0007164Y0221499D02*
X0029013Y0221499D01*
X0029013Y0220900D02*
X0007164Y0220900D01*
X0007164Y0220302D02*
X0029013Y0220302D01*
X0029013Y0219703D02*
X0007164Y0219703D01*
X0007164Y0219105D02*
X0029013Y0219105D01*
X0029013Y0218506D02*
X0007164Y0218506D01*
X0007164Y0217908D02*
X0029013Y0217908D01*
X0029013Y0217309D02*
X0007163Y0217309D01*
X0007163Y0216711D02*
X0029013Y0216711D01*
X0029013Y0216112D02*
X0007163Y0216112D01*
X0007163Y0215514D02*
X0029013Y0215514D01*
X0029013Y0214915D02*
X0007163Y0214915D01*
X0007163Y0214317D02*
X0029013Y0214317D01*
X0029013Y0213718D02*
X0007163Y0213718D01*
X0007163Y0213120D02*
X0029013Y0213120D01*
X0029013Y0212521D02*
X0007163Y0212521D01*
X0007163Y0211923D02*
X0029013Y0211923D01*
X0029013Y0211324D02*
X0007163Y0211324D01*
X0007162Y0210726D02*
X0029013Y0210726D01*
X0029013Y0210127D02*
X0007162Y0210127D01*
X0007162Y0209529D02*
X0029013Y0209529D01*
X0029013Y0208930D02*
X0007162Y0208930D01*
X0007162Y0208332D02*
X0029013Y0208332D01*
X0029013Y0207733D02*
X0007162Y0207733D01*
X0007162Y0207135D02*
X0029013Y0207135D01*
X0029013Y0206536D02*
X0007162Y0206536D01*
X0007162Y0205938D02*
X0029013Y0205938D01*
X0029013Y0205339D02*
X0007162Y0205339D01*
X0007162Y0204741D02*
X0029013Y0204741D01*
X0029013Y0204142D02*
X0007161Y0204142D01*
X0007161Y0203544D02*
X0029013Y0203544D01*
X0029013Y0202945D02*
X0007161Y0202945D01*
X0007161Y0202347D02*
X0029013Y0202347D01*
X0029013Y0201748D02*
X0007161Y0201748D01*
X0007161Y0201150D02*
X0029013Y0201150D01*
X0029013Y0200551D02*
X0007161Y0200551D01*
X0007161Y0199953D02*
X0029013Y0199953D01*
X0029013Y0199354D02*
X0007161Y0199354D01*
X0007161Y0198756D02*
X0029013Y0198756D01*
X0029013Y0198157D02*
X0007161Y0198157D01*
X0007160Y0197558D02*
X0029013Y0197558D01*
X0029013Y0196960D02*
X0007160Y0196960D01*
X0007160Y0196361D02*
X0029013Y0196361D01*
X0029013Y0195763D02*
X0007160Y0195763D01*
X0007160Y0195164D02*
X0029013Y0195164D01*
X0029013Y0194566D02*
X0007160Y0194566D01*
X0007160Y0193967D02*
X0029013Y0193967D01*
X0029013Y0193369D02*
X0007160Y0193369D01*
X0007160Y0192770D02*
X0029013Y0192770D01*
X0029013Y0192172D02*
X0007160Y0192172D01*
X0007159Y0191573D02*
X0029013Y0191573D01*
X0029013Y0190975D02*
X0007159Y0190975D01*
X0007159Y0190376D02*
X0029013Y0190376D01*
X0029013Y0189778D02*
X0007159Y0189778D01*
X0007159Y0189179D02*
X0029013Y0189179D01*
X0029013Y0188581D02*
X0007159Y0188581D01*
X0007159Y0187982D02*
X0029013Y0187982D01*
X0029013Y0187384D02*
X0007159Y0187384D01*
X0007159Y0186785D02*
X0029013Y0186785D01*
X0029013Y0186187D02*
X0007159Y0186187D01*
X0007159Y0185588D02*
X0029013Y0185588D01*
X0029013Y0184990D02*
X0007158Y0184990D01*
X0007158Y0184391D02*
X0029013Y0184391D01*
X0029013Y0183793D02*
X0007158Y0183793D01*
X0007158Y0183194D02*
X0029013Y0183194D01*
X0029013Y0182596D02*
X0007158Y0182596D01*
X0007158Y0181997D02*
X0029013Y0181997D01*
X0029013Y0181399D02*
X0007158Y0181399D01*
X0007158Y0180800D02*
X0029013Y0180800D01*
X0029013Y0180202D02*
X0007158Y0180202D01*
X0007158Y0179603D02*
X0029013Y0179603D01*
X0029013Y0179005D02*
X0007158Y0179005D01*
X0007157Y0178406D02*
X0029013Y0178406D01*
X0029013Y0177808D02*
X0007157Y0177808D01*
X0007157Y0177209D02*
X0029013Y0177209D01*
X0029013Y0176611D02*
X0007157Y0176611D01*
X0007157Y0176012D02*
X0029013Y0176012D01*
X0029013Y0175414D02*
X0007157Y0175414D01*
X0007157Y0174815D02*
X0029013Y0174815D01*
X0029013Y0174217D02*
X0007157Y0174217D01*
X0007157Y0173618D02*
X0029013Y0173618D01*
X0029013Y0173020D02*
X0007157Y0173020D01*
X0007157Y0172421D02*
X0029013Y0172421D01*
X0029013Y0171823D02*
X0007156Y0171823D01*
X0007156Y0171224D02*
X0029013Y0171224D01*
X0029013Y0170625D02*
X0007156Y0170625D01*
X0007156Y0170027D02*
X0029013Y0170027D01*
X0029013Y0169428D02*
X0007156Y0169428D01*
X0007156Y0168830D02*
X0029013Y0168830D01*
X0029013Y0168231D02*
X0007156Y0168231D01*
X0007156Y0167633D02*
X0029013Y0167633D01*
X0029013Y0167034D02*
X0007156Y0167034D01*
X0007156Y0166436D02*
X0029013Y0166436D01*
X0029013Y0165837D02*
X0007156Y0165837D01*
X0007155Y0165239D02*
X0029013Y0165239D01*
X0029013Y0164640D02*
X0007155Y0164640D01*
X0007155Y0164042D02*
X0029013Y0164042D01*
X0029013Y0163443D02*
X0007155Y0163443D01*
X0007155Y0162845D02*
X0029013Y0162845D01*
X0029013Y0162246D02*
X0007155Y0162246D01*
X0007155Y0161648D02*
X0029013Y0161648D01*
X0041271Y0149678D02*
X0007153Y0149678D01*
X0007153Y0150276D02*
X0041869Y0150276D01*
X0042468Y0150875D02*
X0007153Y0150875D01*
X0007153Y0151473D02*
X0043066Y0151473D01*
X0043665Y0152072D02*
X0007153Y0152072D01*
X0007153Y0152670D02*
X0044263Y0152670D01*
X0044862Y0153269D02*
X0007154Y0153269D01*
X0007154Y0153867D02*
X0045460Y0153867D01*
X0046059Y0154466D02*
X0007154Y0154466D01*
X0007154Y0155064D02*
X0046657Y0155064D01*
X0047256Y0155663D02*
X0007154Y0155663D01*
X0007154Y0156261D02*
X0047854Y0156261D01*
X0048453Y0156860D02*
X0007154Y0156860D01*
X0007154Y0157458D02*
X0049051Y0157458D01*
X0049650Y0158057D02*
X0007154Y0158057D01*
X0007154Y0158655D02*
X0050248Y0158655D01*
X0050847Y0159254D02*
X0007154Y0159254D01*
X0007155Y0159852D02*
X0051445Y0159852D01*
X0052044Y0160451D02*
X0007155Y0160451D01*
X0007155Y0161049D02*
X0052642Y0161049D01*
X0054241Y0159254D02*
X0122490Y0159254D01*
X0122490Y0159852D02*
X0054839Y0159852D01*
X0055438Y0160451D02*
X0122490Y0160451D01*
X0122490Y0161049D02*
X0056036Y0161049D01*
X0056635Y0161648D02*
X0122490Y0161648D01*
X0122490Y0162246D02*
X0057233Y0162246D01*
X0057832Y0162845D02*
X0122490Y0162845D01*
X0122490Y0163443D02*
X0058430Y0163443D01*
X0059029Y0164042D02*
X0122490Y0164042D01*
X0122490Y0164640D02*
X0059627Y0164640D01*
X0060226Y0165239D02*
X0122490Y0165239D01*
X0122490Y0165837D02*
X0060824Y0165837D01*
X0061423Y0166436D02*
X0122490Y0166436D01*
X0122490Y0167034D02*
X0062021Y0167034D01*
X0062620Y0167633D02*
X0122490Y0167633D01*
X0122490Y0168231D02*
X0063219Y0168231D01*
X0063817Y0168830D02*
X0122490Y0168830D01*
X0122490Y0169428D02*
X0064416Y0169428D01*
X0065014Y0170027D02*
X0122490Y0170027D01*
X0122490Y0170625D02*
X0065613Y0170625D01*
X0066211Y0171224D02*
X0122490Y0171224D01*
X0122490Y0171823D02*
X0066810Y0171823D01*
X0067408Y0172421D02*
X0122490Y0172421D01*
X0122490Y0173020D02*
X0068007Y0173020D01*
X0068605Y0173618D02*
X0122490Y0173618D01*
X0122490Y0174217D02*
X0069204Y0174217D01*
X0069802Y0174815D02*
X0122490Y0174815D01*
X0122490Y0175414D02*
X0070401Y0175414D01*
X0070999Y0176012D02*
X0122490Y0176012D01*
X0122490Y0176611D02*
X0071598Y0176611D01*
X0072196Y0177209D02*
X0122490Y0177209D01*
X0122490Y0177808D02*
X0072795Y0177808D01*
X0073393Y0178406D02*
X0122490Y0178406D01*
X0122490Y0179005D02*
X0073992Y0179005D01*
X0074590Y0179603D02*
X0122490Y0179603D01*
X0122490Y0180202D02*
X0075189Y0180202D01*
X0073590Y0181997D02*
X0054416Y0181997D01*
X0054416Y0181399D02*
X0072992Y0181399D01*
X0072393Y0180800D02*
X0054416Y0180800D01*
X0054416Y0180202D02*
X0071795Y0180202D01*
X0071196Y0179603D02*
X0054416Y0179603D01*
X0054416Y0179005D02*
X0070598Y0179005D01*
X0069999Y0178406D02*
X0054416Y0178406D01*
X0054416Y0177808D02*
X0069401Y0177808D01*
X0068802Y0177209D02*
X0054416Y0177209D01*
X0054416Y0176611D02*
X0068204Y0176611D01*
X0067605Y0176012D02*
X0054416Y0176012D01*
X0054416Y0175414D02*
X0067007Y0175414D01*
X0066408Y0174815D02*
X0054416Y0174815D01*
X0054416Y0174217D02*
X0065810Y0174217D01*
X0065211Y0173618D02*
X0054416Y0173618D01*
X0054416Y0173020D02*
X0064613Y0173020D01*
X0064014Y0172421D02*
X0054416Y0172421D01*
X0054416Y0171823D02*
X0063415Y0171823D01*
X0062817Y0171224D02*
X0054416Y0171224D01*
X0054416Y0170625D02*
X0062218Y0170625D01*
X0061620Y0170027D02*
X0054416Y0170027D01*
X0054416Y0169428D02*
X0061021Y0169428D01*
X0060423Y0168830D02*
X0054416Y0168830D01*
X0054416Y0168231D02*
X0059824Y0168231D01*
X0059226Y0167633D02*
X0054416Y0167633D01*
X0054416Y0167034D02*
X0058627Y0167034D01*
X0058029Y0166436D02*
X0054416Y0166436D01*
X0054416Y0165837D02*
X0057430Y0165837D01*
X0056832Y0165239D02*
X0054416Y0165239D01*
X0054416Y0164640D02*
X0056233Y0164640D01*
X0055635Y0164042D02*
X0054416Y0164042D01*
X0054416Y0163443D02*
X0055036Y0163443D01*
X0054438Y0162845D02*
X0054416Y0162845D01*
X0053642Y0158655D02*
X0122490Y0158655D01*
X0122490Y0158057D02*
X0053044Y0158057D01*
X0052445Y0157458D02*
X0122490Y0157458D01*
X0122490Y0156860D02*
X0051847Y0156860D01*
X0051248Y0156261D02*
X0122490Y0156261D01*
X0122490Y0155663D02*
X0050650Y0155663D01*
X0050051Y0155064D02*
X0122490Y0155064D01*
X0122490Y0154466D02*
X0049453Y0154466D01*
X0048854Y0153867D02*
X0122490Y0153867D01*
X0122490Y0153269D02*
X0048256Y0153269D01*
X0047657Y0152670D02*
X0122490Y0152670D01*
X0122490Y0152072D02*
X0047059Y0152072D01*
X0046460Y0151473D02*
X0122490Y0151473D01*
X0122490Y0150875D02*
X0045862Y0150875D01*
X0045263Y0150276D02*
X0122490Y0150276D01*
X0122490Y0149678D02*
X0044665Y0149678D01*
X0044066Y0149079D02*
X0122490Y0149079D01*
X0122490Y0148481D02*
X0043468Y0148481D01*
X0043310Y0147882D02*
X0122490Y0147882D01*
X0122490Y0147284D02*
X0043310Y0147284D01*
X0043310Y0146685D02*
X0048017Y0146685D01*
X0048610Y0147279D02*
X0047211Y0145880D01*
X0047211Y0143900D01*
X0047950Y0143161D01*
X0047950Y0110688D01*
X0047211Y0109950D01*
X0047211Y0107970D01*
X0048610Y0106571D01*
X0050590Y0106571D01*
X0051989Y0107970D01*
X0051989Y0109950D01*
X0051250Y0110688D01*
X0051250Y0143161D01*
X0051989Y0143900D01*
X0051989Y0145880D01*
X0050590Y0147279D01*
X0048610Y0147279D01*
X0047418Y0146087D02*
X0043310Y0146087D01*
X0043310Y0145488D02*
X0047211Y0145488D01*
X0047211Y0144889D02*
X0043310Y0144889D01*
X0043310Y0144291D02*
X0047211Y0144291D01*
X0047419Y0143692D02*
X0043310Y0143692D01*
X0043310Y0143094D02*
X0047950Y0143094D01*
X0047950Y0142495D02*
X0043310Y0142495D01*
X0043310Y0141897D02*
X0047950Y0141897D01*
X0047950Y0141298D02*
X0043310Y0141298D01*
X0043310Y0140700D02*
X0047950Y0140700D01*
X0047950Y0140101D02*
X0043310Y0140101D01*
X0043310Y0139503D02*
X0047950Y0139503D01*
X0047950Y0138904D02*
X0043310Y0138904D01*
X0043310Y0138306D02*
X0047950Y0138306D01*
X0047950Y0137707D02*
X0043310Y0137707D01*
X0043310Y0137109D02*
X0047950Y0137109D01*
X0047950Y0136510D02*
X0043310Y0136510D01*
X0043310Y0135912D02*
X0047950Y0135912D01*
X0047950Y0135313D02*
X0043310Y0135313D01*
X0043310Y0134715D02*
X0047950Y0134715D01*
X0047950Y0134116D02*
X0043310Y0134116D01*
X0043310Y0133518D02*
X0047950Y0133518D01*
X0047950Y0132919D02*
X0043310Y0132919D01*
X0043310Y0132321D02*
X0047950Y0132321D01*
X0047950Y0131722D02*
X0043310Y0131722D01*
X0043310Y0131124D02*
X0047950Y0131124D01*
X0047950Y0130525D02*
X0043310Y0130525D01*
X0043310Y0129927D02*
X0047950Y0129927D01*
X0047950Y0129328D02*
X0043310Y0129328D01*
X0043310Y0128730D02*
X0047950Y0128730D01*
X0047950Y0128131D02*
X0043310Y0128131D01*
X0043310Y0127533D02*
X0047950Y0127533D01*
X0047950Y0126934D02*
X0043310Y0126934D01*
X0043373Y0126336D02*
X0047950Y0126336D01*
X0047950Y0125737D02*
X0043971Y0125737D01*
X0044499Y0125139D02*
X0047950Y0125139D01*
X0047950Y0124540D02*
X0044499Y0124540D01*
X0044499Y0123942D02*
X0047950Y0123942D01*
X0047950Y0123343D02*
X0044499Y0123343D01*
X0044013Y0122745D02*
X0047950Y0122745D01*
X0047950Y0122146D02*
X0043415Y0122146D01*
X0042110Y0124220D02*
X0042110Y0148820D01*
X0076310Y0183020D01*
X0078067Y0181399D02*
X0122490Y0181399D01*
X0122490Y0181997D02*
X0078666Y0181997D01*
X0078699Y0182596D02*
X0122490Y0182596D01*
X0122490Y0183194D02*
X0092354Y0183194D01*
X0092206Y0183165D02*
X0092727Y0183268D01*
X0093217Y0183471D01*
X0093658Y0183766D01*
X0094033Y0184141D01*
X0094328Y0184583D01*
X0094531Y0185073D01*
X0094635Y0185593D01*
X0094635Y0185858D01*
X0091941Y0185858D01*
X0091941Y0185858D01*
X0091941Y0183165D01*
X0091676Y0183165D01*
X0091155Y0183268D01*
X0090665Y0183471D01*
X0090224Y0183766D01*
X0089849Y0184141D01*
X0089554Y0184583D01*
X0089351Y0185073D01*
X0089247Y0185593D01*
X0089247Y0185858D01*
X0091941Y0185858D01*
X0091941Y0183165D01*
X0092206Y0183165D01*
X0091941Y0183194D02*
X0091941Y0183194D01*
X0091528Y0183194D02*
X0085130Y0183194D01*
X0084982Y0183165D02*
X0085502Y0183268D01*
X0085993Y0183471D01*
X0086434Y0183766D01*
X0086809Y0184141D01*
X0087104Y0184583D01*
X0087307Y0185073D01*
X0087410Y0185593D01*
X0087410Y0185858D01*
X0084717Y0185858D01*
X0084717Y0183165D01*
X0084982Y0183165D01*
X0084717Y0183165D02*
X0084717Y0185858D01*
X0084717Y0185858D01*
X0084717Y0185859D01*
X0084717Y0185859D01*
X0084717Y0188552D01*
X0084982Y0188552D01*
X0085502Y0188449D01*
X0085906Y0188282D01*
X0085739Y0188685D01*
X0085635Y0189205D01*
X0085635Y0189471D01*
X0088329Y0189471D01*
X0088329Y0189471D01*
X0088329Y0192164D01*
X0088594Y0192164D01*
X0089115Y0192061D01*
X0089518Y0191894D01*
X0089351Y0192297D01*
X0089247Y0192818D01*
X0089247Y0193083D01*
X0091941Y0193083D01*
X0091941Y0193083D01*
X0089247Y0193083D01*
X0089247Y0193348D01*
X0089351Y0193869D01*
X0089518Y0194272D01*
X0089115Y0194105D01*
X0088594Y0194001D01*
X0088329Y0194001D01*
X0088329Y0196695D01*
X0088329Y0196695D01*
X0088329Y0196695D01*
X0091023Y0196695D01*
X0091023Y0196430D01*
X0090919Y0195909D01*
X0090752Y0195506D01*
X0091155Y0195673D01*
X0091676Y0195777D01*
X0091941Y0195777D01*
X0091941Y0193083D01*
X0091941Y0193083D01*
X0091941Y0193083D01*
X0091941Y0190389D01*
X0091676Y0190389D01*
X0091155Y0190493D01*
X0090752Y0190660D01*
X0090919Y0190256D01*
X0091023Y0189736D01*
X0091023Y0189471D01*
X0088329Y0189471D01*
X0088329Y0189471D01*
X0088329Y0192164D01*
X0088064Y0192164D01*
X0087543Y0192061D01*
X0087140Y0191894D01*
X0087307Y0192297D01*
X0087410Y0192818D01*
X0087410Y0193083D01*
X0087410Y0193348D01*
X0087307Y0193869D01*
X0087140Y0194272D01*
X0087543Y0194105D01*
X0088064Y0194001D01*
X0088329Y0194001D01*
X0088329Y0196695D01*
X0091023Y0196695D01*
X0091023Y0196960D01*
X0092860Y0196960D01*
X0092860Y0196695D01*
X0095553Y0196695D01*
X0095553Y0196695D01*
X0095553Y0196695D01*
X0095553Y0194001D01*
X0095288Y0194001D01*
X0094768Y0194105D01*
X0094364Y0194272D01*
X0094531Y0193869D01*
X0094635Y0193348D01*
X0094635Y0193083D01*
X0091941Y0193083D01*
X0091941Y0195777D01*
X0092206Y0195777D01*
X0092727Y0195673D01*
X0093130Y0195506D01*
X0092963Y0195909D01*
X0092860Y0196430D01*
X0092860Y0196695D01*
X0095553Y0196695D01*
X0095553Y0194001D01*
X0095819Y0194001D01*
X0096339Y0194105D01*
X0096829Y0194308D01*
X0097270Y0194603D01*
X0097646Y0194978D01*
X0097940Y0195419D01*
X0098143Y0195909D01*
X0098247Y0196430D01*
X0098247Y0196695D01*
X0095553Y0196695D01*
X0095553Y0199389D01*
X0095288Y0199389D01*
X0094768Y0199285D01*
X0094364Y0199118D01*
X0094531Y0199522D01*
X0094635Y0200042D01*
X0094635Y0200307D01*
X0091941Y0200307D01*
X0091941Y0200307D01*
X0091941Y0197614D01*
X0091676Y0197614D01*
X0091155Y0197717D01*
X0090752Y0197884D01*
X0090919Y0197481D01*
X0091023Y0196960D01*
X0091009Y0196361D02*
X0092873Y0196361D01*
X0092860Y0196960D02*
X0092963Y0197481D01*
X0093130Y0197884D01*
X0092727Y0197717D01*
X0092206Y0197614D01*
X0091941Y0197614D01*
X0091941Y0200307D01*
X0089247Y0200307D01*
X0089247Y0200042D01*
X0089351Y0199522D01*
X0089518Y0199118D01*
X0089115Y0199285D01*
X0088594Y0199389D01*
X0088329Y0199389D01*
X0088329Y0196695D01*
X0085635Y0196695D01*
X0085635Y0196430D01*
X0085739Y0195909D01*
X0085906Y0195506D01*
X0085502Y0195673D01*
X0084982Y0195777D01*
X0084717Y0195777D01*
X0084717Y0193083D01*
X0087410Y0193083D01*
X0084717Y0193083D01*
X0084717Y0193083D01*
X0084717Y0193083D01*
X0084717Y0190389D01*
X0084982Y0190389D01*
X0085502Y0190493D01*
X0085906Y0190660D01*
X0085739Y0190256D01*
X0085635Y0189736D01*
X0085635Y0189471D01*
X0088329Y0189471D01*
X0088329Y0189471D01*
X0091023Y0189471D01*
X0091023Y0189205D01*
X0090919Y0188685D01*
X0090752Y0188282D01*
X0091155Y0188449D01*
X0091676Y0188552D01*
X0091941Y0188552D01*
X0091941Y0185859D01*
X0091941Y0185859D01*
X0091941Y0188552D01*
X0092206Y0188552D01*
X0092727Y0188449D01*
X0093130Y0188282D01*
X0092963Y0188685D01*
X0092860Y0189205D01*
X0092860Y0189471D01*
X0095553Y0189471D01*
X0095553Y0189471D01*
X0095553Y0192164D01*
X0095288Y0192164D01*
X0094768Y0192061D01*
X0094364Y0191894D01*
X0094531Y0192297D01*
X0094635Y0192818D01*
X0094635Y0193083D01*
X0091941Y0193083D01*
X0091941Y0190389D01*
X0092206Y0190389D01*
X0092727Y0190493D01*
X0093130Y0190660D01*
X0092963Y0190256D01*
X0092860Y0189736D01*
X0092860Y0189471D01*
X0095553Y0189471D01*
X0095553Y0189471D01*
X0095553Y0192164D01*
X0095819Y0192164D01*
X0096339Y0192061D01*
X0096829Y0191858D01*
X0097270Y0191563D01*
X0097646Y0191188D01*
X0097940Y0190747D01*
X0098143Y0190256D01*
X0098247Y0189736D01*
X0098247Y0189471D01*
X0095553Y0189471D01*
X0095553Y0189471D01*
X0095553Y0186777D01*
X0095288Y0186777D01*
X0094768Y0186881D01*
X0094364Y0187048D01*
X0094531Y0186644D01*
X0094635Y0186124D01*
X0094635Y0185859D01*
X0091941Y0185859D01*
X0091941Y0185858D01*
X0091941Y0185859D01*
X0089247Y0185859D01*
X0089247Y0186124D01*
X0089351Y0186644D01*
X0089518Y0187048D01*
X0089115Y0186881D01*
X0088594Y0186777D01*
X0088329Y0186777D01*
X0088329Y0189471D01*
X0088329Y0189471D01*
X0088329Y0186777D01*
X0088064Y0186777D01*
X0087543Y0186881D01*
X0087140Y0187048D01*
X0087307Y0186644D01*
X0087410Y0186124D01*
X0087410Y0185859D01*
X0084717Y0185859D01*
X0084717Y0188552D01*
X0084451Y0188552D01*
X0083931Y0188449D01*
X0083528Y0188282D01*
X0083695Y0188685D01*
X0083798Y0189205D01*
X0083798Y0189471D01*
X0083798Y0189736D01*
X0083695Y0190256D01*
X0083528Y0190660D01*
X0083931Y0190493D01*
X0084451Y0190389D01*
X0084717Y0190389D01*
X0084717Y0193083D01*
X0084717Y0193083D01*
X0084717Y0195777D01*
X0084451Y0195777D01*
X0083931Y0195673D01*
X0083528Y0195506D01*
X0083695Y0195909D01*
X0083798Y0196430D01*
X0083798Y0196695D01*
X0081105Y0196695D01*
X0081105Y0196695D01*
X0083798Y0196695D01*
X0083798Y0196960D01*
X0085635Y0196960D01*
X0085635Y0196695D01*
X0088329Y0196695D01*
X0088329Y0196695D01*
X0088329Y0196695D01*
X0088329Y0199389D01*
X0088064Y0199389D01*
X0087543Y0199285D01*
X0087140Y0199118D01*
X0087307Y0199522D01*
X0087410Y0200042D01*
X0087410Y0200307D01*
X0084717Y0200307D01*
X0084717Y0200307D01*
X0084717Y0197614D01*
X0084982Y0197614D01*
X0085502Y0197717D01*
X0085906Y0197884D01*
X0085739Y0197481D01*
X0085635Y0196960D01*
X0085649Y0196361D02*
X0083785Y0196361D01*
X0083798Y0196960D02*
X0083695Y0197481D01*
X0083528Y0197884D01*
X0083931Y0197717D01*
X0084451Y0197614D01*
X0084717Y0197614D01*
X0084717Y0200307D01*
X0084717Y0200307D01*
X0087410Y0200307D01*
X0087410Y0200573D01*
X0087307Y0201093D01*
X0087104Y0201583D01*
X0086809Y0202025D01*
X0086434Y0202400D01*
X0085993Y0202695D01*
X0085502Y0202898D01*
X0084982Y0203001D01*
X0084717Y0203001D01*
X0084717Y0200308D01*
X0084717Y0200308D01*
X0084717Y0203001D01*
X0084451Y0203001D01*
X0083931Y0202898D01*
X0083441Y0202695D01*
X0083000Y0202400D01*
X0082624Y0202025D01*
X0082330Y0201583D01*
X0082127Y0201093D01*
X0082023Y0200573D01*
X0082023Y0200307D01*
X0082023Y0200042D01*
X0082127Y0199522D01*
X0082294Y0199118D01*
X0081890Y0199285D01*
X0081370Y0199389D01*
X0081105Y0199389D01*
X0081105Y0196695D01*
X0081105Y0194001D01*
X0081370Y0194001D01*
X0081890Y0194105D01*
X0082294Y0194272D01*
X0082127Y0193869D01*
X0082023Y0193348D01*
X0082023Y0193083D01*
X0084717Y0193083D01*
X0082023Y0193083D01*
X0082023Y0192818D01*
X0082127Y0192297D01*
X0082294Y0191894D01*
X0081890Y0192061D01*
X0081370Y0192164D01*
X0081105Y0192164D01*
X0081105Y0189471D01*
X0083798Y0189471D01*
X0081105Y0189471D01*
X0081105Y0189471D01*
X0081104Y0189471D01*
X0081104Y0189471D01*
X0078411Y0189471D01*
X0078411Y0189736D01*
X0078514Y0190256D01*
X0078717Y0190747D01*
X0079012Y0191188D01*
X0079387Y0191563D01*
X0079829Y0191858D01*
X0080319Y0192061D01*
X0080839Y0192164D01*
X0081104Y0192164D01*
X0081104Y0189471D01*
X0078411Y0189471D01*
X0078411Y0189205D01*
X0078514Y0188685D01*
X0078717Y0188195D01*
X0079012Y0187754D01*
X0079387Y0187378D01*
X0079829Y0187084D01*
X0080319Y0186881D01*
X0080839Y0186777D01*
X0081104Y0186777D01*
X0081104Y0189471D01*
X0081105Y0189471D01*
X0081105Y0186777D01*
X0081370Y0186777D01*
X0081890Y0186881D01*
X0082294Y0187048D01*
X0082127Y0186644D01*
X0082023Y0186124D01*
X0082023Y0185859D01*
X0084717Y0185859D01*
X0084717Y0185858D01*
X0082023Y0185858D01*
X0082023Y0185593D01*
X0082127Y0185073D01*
X0082330Y0184583D01*
X0082624Y0184141D01*
X0083000Y0183766D01*
X0083441Y0183471D01*
X0083931Y0183268D01*
X0084451Y0183165D01*
X0084717Y0183165D01*
X0084717Y0183194D02*
X0084717Y0183194D01*
X0084304Y0183194D02*
X0078699Y0183194D01*
X0078699Y0183793D02*
X0082973Y0183793D01*
X0082457Y0184391D02*
X0078317Y0184391D01*
X0077719Y0184990D02*
X0082161Y0184990D01*
X0082024Y0185588D02*
X0054416Y0185588D01*
X0054416Y0184990D02*
X0074901Y0184990D01*
X0074303Y0184391D02*
X0054416Y0184391D01*
X0054416Y0183793D02*
X0073921Y0183793D01*
X0073921Y0183194D02*
X0054416Y0183194D01*
X0054416Y0182596D02*
X0073921Y0182596D01*
X0077469Y0180800D02*
X0122490Y0180800D01*
X0124890Y0180800D02*
X0127680Y0180800D01*
X0127680Y0180202D02*
X0124890Y0180202D01*
X0124890Y0179603D02*
X0127680Y0179603D01*
X0127680Y0179005D02*
X0124890Y0179005D01*
X0124890Y0178406D02*
X0127680Y0178406D01*
X0127680Y0177808D02*
X0124890Y0177808D01*
X0124890Y0177209D02*
X0127680Y0177209D01*
X0127680Y0176611D02*
X0124890Y0176611D01*
X0124890Y0176012D02*
X0127680Y0176012D01*
X0127680Y0175414D02*
X0124890Y0175414D01*
X0124890Y0174815D02*
X0127680Y0174815D01*
X0127680Y0174217D02*
X0124890Y0174217D01*
X0124890Y0173618D02*
X0127680Y0173618D01*
X0127680Y0173020D02*
X0124890Y0173020D01*
X0124890Y0172421D02*
X0127680Y0172421D01*
X0127680Y0171823D02*
X0124890Y0171823D01*
X0124890Y0171224D02*
X0127680Y0171224D01*
X0127680Y0170625D02*
X0124890Y0170625D01*
X0124890Y0170027D02*
X0127680Y0170027D01*
X0127680Y0169428D02*
X0124890Y0169428D01*
X0124890Y0168830D02*
X0127680Y0168830D01*
X0127680Y0168231D02*
X0124890Y0168231D01*
X0124890Y0167633D02*
X0127680Y0167633D01*
X0127680Y0167034D02*
X0124890Y0167034D01*
X0124890Y0166436D02*
X0127680Y0166436D01*
X0127680Y0165837D02*
X0124890Y0165837D01*
X0124890Y0165239D02*
X0127680Y0165239D01*
X0127680Y0164640D02*
X0124890Y0164640D01*
X0124890Y0164042D02*
X0127680Y0164042D01*
X0127680Y0163443D02*
X0124890Y0163443D01*
X0124890Y0162845D02*
X0127680Y0162845D01*
X0127680Y0162246D02*
X0124890Y0162246D01*
X0124890Y0161648D02*
X0127680Y0161648D01*
X0127680Y0161049D02*
X0124890Y0161049D01*
X0124890Y0160451D02*
X0127680Y0160451D01*
X0127680Y0159852D02*
X0124890Y0159852D01*
X0124890Y0159254D02*
X0127680Y0159254D01*
X0127680Y0158655D02*
X0124890Y0158655D01*
X0124890Y0158057D02*
X0127680Y0158057D01*
X0127680Y0157458D02*
X0124890Y0157458D01*
X0124890Y0156860D02*
X0127680Y0156860D01*
X0127680Y0156261D02*
X0124890Y0156261D01*
X0124890Y0155663D02*
X0127680Y0155663D01*
X0127680Y0155064D02*
X0124890Y0155064D01*
X0124890Y0154466D02*
X0127680Y0154466D01*
X0127680Y0153867D02*
X0124890Y0153867D01*
X0124890Y0153269D02*
X0127680Y0153269D01*
X0127680Y0152670D02*
X0124890Y0152670D01*
X0124890Y0152072D02*
X0127680Y0152072D01*
X0127680Y0151473D02*
X0124890Y0151473D01*
X0124890Y0150875D02*
X0127680Y0150875D01*
X0127680Y0150276D02*
X0124890Y0150276D01*
X0124890Y0149678D02*
X0127680Y0149678D01*
X0127680Y0149079D02*
X0124890Y0149079D01*
X0124890Y0148481D02*
X0127680Y0148481D01*
X0127680Y0147882D02*
X0124890Y0147882D01*
X0124890Y0147284D02*
X0127680Y0147284D01*
X0127680Y0146685D02*
X0124890Y0146685D01*
X0124890Y0146087D02*
X0127680Y0146087D01*
X0127680Y0145488D02*
X0124890Y0145488D01*
X0124890Y0144889D02*
X0127680Y0144889D01*
X0127680Y0144291D02*
X0124890Y0144291D01*
X0124890Y0143692D02*
X0127680Y0143692D01*
X0127680Y0143094D02*
X0124890Y0143094D01*
X0124890Y0142495D02*
X0127680Y0142495D01*
X0127680Y0141897D02*
X0124890Y0141897D01*
X0124890Y0141298D02*
X0127680Y0141298D01*
X0127680Y0140700D02*
X0124890Y0140700D01*
X0124890Y0140101D02*
X0127680Y0140101D01*
X0127680Y0139503D02*
X0124890Y0139503D01*
X0124890Y0138904D02*
X0127680Y0138904D01*
X0127680Y0138306D02*
X0124890Y0138306D01*
X0124890Y0137707D02*
X0127680Y0137707D01*
X0127680Y0137109D02*
X0124890Y0137109D01*
X0124890Y0136510D02*
X0127680Y0136510D01*
X0127680Y0135912D02*
X0124890Y0135912D01*
X0124890Y0135313D02*
X0127680Y0135313D01*
X0127680Y0134715D02*
X0124890Y0134715D01*
X0124890Y0134116D02*
X0127680Y0134116D01*
X0127680Y0133518D02*
X0124890Y0133518D01*
X0124890Y0132919D02*
X0127680Y0132919D01*
X0127680Y0132321D02*
X0124890Y0132321D01*
X0124890Y0131722D02*
X0127680Y0131722D01*
X0127680Y0131124D02*
X0124890Y0131124D01*
X0124890Y0130525D02*
X0127680Y0130525D01*
X0127680Y0129927D02*
X0124890Y0129927D01*
X0124890Y0129328D02*
X0127680Y0129328D01*
X0127680Y0128730D02*
X0124890Y0128730D01*
X0124890Y0128131D02*
X0127680Y0128131D01*
X0127680Y0127533D02*
X0124890Y0127533D01*
X0124890Y0126934D02*
X0127680Y0126934D01*
X0127680Y0126336D02*
X0124890Y0126336D01*
X0124890Y0125737D02*
X0127680Y0125737D01*
X0127680Y0125139D02*
X0124890Y0125139D01*
X0124890Y0124540D02*
X0127680Y0124540D01*
X0127680Y0123942D02*
X0124890Y0123942D01*
X0124890Y0123343D02*
X0127680Y0123343D01*
X0127680Y0122745D02*
X0124890Y0122745D01*
X0124890Y0122146D02*
X0127680Y0122146D01*
X0127680Y0121548D02*
X0124890Y0121548D01*
X0124890Y0120949D02*
X0127680Y0120949D01*
X0127680Y0120351D02*
X0124890Y0120351D01*
X0124890Y0119752D02*
X0127680Y0119752D01*
X0127680Y0119154D02*
X0124890Y0119154D01*
X0124890Y0118555D02*
X0127680Y0118555D01*
X0127680Y0117956D02*
X0124890Y0117956D01*
X0124890Y0117358D02*
X0127680Y0117358D01*
X0127680Y0116759D02*
X0124890Y0116759D01*
X0124890Y0116161D02*
X0127680Y0116161D01*
X0127680Y0115562D02*
X0124890Y0115562D01*
X0124890Y0114964D02*
X0127680Y0114964D01*
X0127680Y0114365D02*
X0124552Y0114365D01*
X0124890Y0114703D02*
X0124890Y0221691D01*
X0126079Y0222880D01*
X0126079Y0224860D01*
X0124680Y0226259D01*
X0122700Y0226259D01*
X0121301Y0224860D01*
X0121301Y0222880D01*
X0122490Y0221691D01*
X0122490Y0115697D01*
X0112876Y0106083D01*
X0112786Y0106174D01*
X0110985Y0106920D01*
X0109035Y0106920D01*
X0107234Y0106174D01*
X0105856Y0104796D01*
X0105110Y0102995D01*
X0105110Y0101045D01*
X0105856Y0099244D01*
X0107234Y0097866D01*
X0108810Y0097213D01*
X0108810Y0093613D01*
X0092304Y0077106D01*
X0073372Y0077082D01*
X0072875Y0077082D01*
X0072874Y0077082D01*
X0072523Y0076730D01*
X0061136Y0065343D01*
X0060960Y0065520D01*
X0058060Y0065520D01*
X0056010Y0063470D01*
X0056010Y0060570D01*
X0058060Y0058520D01*
X0060960Y0058520D01*
X0063010Y0060570D01*
X0063010Y0063470D01*
X0062833Y0063646D01*
X0073870Y0074683D01*
X0092802Y0074707D01*
X0093298Y0074707D01*
X0093299Y0074708D01*
X0093300Y0074708D01*
X0093651Y0075059D01*
X0111210Y0092618D01*
X0111210Y0097213D01*
X0112786Y0097866D01*
X0114164Y0099244D01*
X0114910Y0101045D01*
X0114910Y0102995D01*
X0114404Y0104217D01*
X0124890Y0114703D01*
X0123690Y0115200D02*
X0110510Y0102020D01*
X0110010Y0102020D01*
X0110010Y0093116D01*
X0092801Y0075907D01*
X0073372Y0075882D01*
X0059510Y0062020D01*
X0057229Y0064689D02*
X0007140Y0064689D01*
X0007140Y0065287D02*
X0057828Y0065287D01*
X0056631Y0064090D02*
X0007140Y0064090D01*
X0007140Y0063492D02*
X0056032Y0063492D01*
X0056010Y0062893D02*
X0007140Y0062893D01*
X0007139Y0062295D02*
X0056010Y0062295D01*
X0056010Y0061696D02*
X0007139Y0061696D01*
X0007139Y0061098D02*
X0056010Y0061098D01*
X0056081Y0060499D02*
X0007139Y0060499D01*
X0007139Y0059901D02*
X0056679Y0059901D01*
X0057278Y0059302D02*
X0007139Y0059302D01*
X0007139Y0058704D02*
X0057876Y0058704D01*
X0061144Y0058704D02*
X0077876Y0058704D01*
X0078060Y0058520D02*
X0080960Y0058520D01*
X0083010Y0060570D01*
X0083010Y0061220D01*
X0083287Y0061220D01*
X0087807Y0065740D01*
X0104293Y0065740D01*
X0106287Y0063746D01*
X0106010Y0063470D01*
X0106010Y0060570D01*
X0108060Y0058520D01*
X0110960Y0058520D01*
X0113010Y0060570D01*
X0113010Y0063470D01*
X0110960Y0065520D01*
X0108060Y0065520D01*
X0107984Y0065443D01*
X0105287Y0068140D01*
X0086813Y0068140D01*
X0086110Y0067437D01*
X0082576Y0063903D01*
X0080960Y0065520D01*
X0078060Y0065520D01*
X0076010Y0063470D01*
X0076010Y0060570D01*
X0078060Y0058520D01*
X0077278Y0059302D02*
X0061742Y0059302D01*
X0062341Y0059901D02*
X0076679Y0059901D01*
X0076081Y0060499D02*
X0062939Y0060499D01*
X0063010Y0061098D02*
X0076010Y0061098D01*
X0076010Y0061696D02*
X0063010Y0061696D01*
X0063010Y0062295D02*
X0076010Y0062295D01*
X0076010Y0062893D02*
X0063010Y0062893D01*
X0062988Y0063492D02*
X0076032Y0063492D01*
X0076631Y0064090D02*
X0063278Y0064090D01*
X0063876Y0064689D02*
X0077229Y0064689D01*
X0077828Y0065287D02*
X0064475Y0065287D01*
X0065073Y0065886D02*
X0084559Y0065886D01*
X0085157Y0066485D02*
X0065672Y0066485D01*
X0066270Y0067083D02*
X0085756Y0067083D01*
X0086355Y0067682D02*
X0066869Y0067682D01*
X0067467Y0068280D02*
X0114710Y0068280D01*
X0114710Y0067682D02*
X0105745Y0067682D01*
X0106344Y0067083D02*
X0114710Y0067083D01*
X0114710Y0066485D02*
X0106943Y0066485D01*
X0107541Y0065886D02*
X0114710Y0065886D01*
X0114710Y0065287D02*
X0111192Y0065287D01*
X0111791Y0064689D02*
X0114710Y0064689D01*
X0114710Y0064090D02*
X0112389Y0064090D01*
X0112988Y0063492D02*
X0114710Y0063492D01*
X0114710Y0062893D02*
X0113010Y0062893D01*
X0113010Y0062295D02*
X0114710Y0062295D01*
X0114710Y0061696D02*
X0113010Y0061696D01*
X0113010Y0061098D02*
X0114710Y0061098D01*
X0114710Y0060499D02*
X0112939Y0060499D01*
X0112341Y0059901D02*
X0114710Y0059901D01*
X0114710Y0059302D02*
X0111742Y0059302D01*
X0111144Y0058704D02*
X0114710Y0058704D01*
X0114710Y0058105D02*
X0007139Y0058105D01*
X0007139Y0057507D02*
X0114710Y0057507D01*
X0114710Y0056908D02*
X0007139Y0056908D01*
X0007139Y0056310D02*
X0083101Y0056310D01*
X0083210Y0056419D02*
X0081811Y0055020D01*
X0081811Y0053040D01*
X0082940Y0051911D01*
X0082940Y0051902D01*
X0078497Y0047459D01*
X0076816Y0047459D01*
X0075416Y0046060D01*
X0075416Y0044080D01*
X0076816Y0042681D01*
X0078795Y0042681D01*
X0080194Y0044080D01*
X0080194Y0045762D01*
X0084637Y0050205D01*
X0085340Y0050908D01*
X0085340Y0051791D01*
X0086589Y0053040D01*
X0086589Y0055020D01*
X0085190Y0056419D01*
X0083210Y0056419D01*
X0082503Y0055711D02*
X0007138Y0055711D01*
X0007138Y0055113D02*
X0081904Y0055113D01*
X0081811Y0054514D02*
X0007138Y0054514D01*
X0007138Y0053916D02*
X0081811Y0053916D01*
X0081811Y0053317D02*
X0007138Y0053317D01*
X0007138Y0052719D02*
X0082133Y0052719D01*
X0082731Y0052120D02*
X0007138Y0052120D01*
X0007138Y0051522D02*
X0082560Y0051522D01*
X0081961Y0050923D02*
X0007138Y0050923D01*
X0007138Y0050325D02*
X0081363Y0050325D01*
X0080764Y0049726D02*
X0007137Y0049726D01*
X0007137Y0049128D02*
X0080166Y0049128D01*
X0079567Y0048529D02*
X0007137Y0048529D01*
X0007137Y0047931D02*
X0078969Y0047931D01*
X0080567Y0046135D02*
X0114710Y0046135D01*
X0114710Y0045537D02*
X0080194Y0045537D01*
X0080194Y0044938D02*
X0114710Y0044938D01*
X0114710Y0044340D02*
X0080194Y0044340D01*
X0079855Y0043741D02*
X0114710Y0043741D01*
X0114710Y0043143D02*
X0079256Y0043143D01*
X0077805Y0045070D02*
X0084140Y0051405D01*
X0084140Y0054030D01*
X0084200Y0054030D01*
X0085897Y0055711D02*
X0114710Y0055711D01*
X0114710Y0055113D02*
X0086496Y0055113D01*
X0086589Y0054514D02*
X0114710Y0054514D01*
X0114710Y0053916D02*
X0086589Y0053916D01*
X0086589Y0053317D02*
X0114710Y0053317D01*
X0114710Y0052719D02*
X0086267Y0052719D01*
X0085669Y0052120D02*
X0114710Y0052120D01*
X0114710Y0051522D02*
X0085340Y0051522D01*
X0085340Y0050923D02*
X0114710Y0050923D01*
X0114710Y0050325D02*
X0084757Y0050325D01*
X0084159Y0049726D02*
X0114710Y0049726D01*
X0114710Y0049128D02*
X0083560Y0049128D01*
X0082962Y0048529D02*
X0114710Y0048529D01*
X0114710Y0047931D02*
X0082363Y0047931D01*
X0081764Y0047332D02*
X0114710Y0047332D01*
X0114710Y0046734D02*
X0081166Y0046734D01*
X0076689Y0047332D02*
X0007137Y0047332D01*
X0007137Y0046734D02*
X0076090Y0046734D01*
X0075492Y0046135D02*
X0007137Y0046135D01*
X0007137Y0045537D02*
X0045357Y0045537D01*
X0045391Y0045554D02*
X0044689Y0045196D01*
X0044053Y0044734D01*
X0043496Y0044177D01*
X0043034Y0043541D01*
X0042676Y0042839D01*
X0042433Y0042091D01*
X0042310Y0041313D01*
X0042310Y0041220D01*
X0047010Y0041220D01*
X0047010Y0045920D01*
X0046916Y0045920D01*
X0046139Y0045797D01*
X0045391Y0045554D01*
X0044334Y0044938D02*
X0024030Y0044938D01*
X0024316Y0044820D02*
X0022625Y0045520D01*
X0020795Y0045520D01*
X0019104Y0044820D01*
X0017810Y0043526D01*
X0017110Y0041835D01*
X0017110Y0040005D01*
X0017810Y0038314D01*
X0019104Y0037020D01*
X0020795Y0036320D01*
X0022625Y0036320D01*
X0024316Y0037020D01*
X0025610Y0038314D01*
X0026310Y0040005D01*
X0026310Y0041835D01*
X0025610Y0043526D01*
X0024316Y0044820D01*
X0024796Y0044340D02*
X0043659Y0044340D01*
X0043179Y0043741D02*
X0025394Y0043741D01*
X0025768Y0043143D02*
X0042831Y0043143D01*
X0042580Y0042544D02*
X0026016Y0042544D01*
X0026264Y0041946D02*
X0042410Y0041946D01*
X0042315Y0041347D02*
X0026310Y0041347D01*
X0026310Y0040749D02*
X0047010Y0040749D01*
X0047010Y0040620D02*
X0042310Y0040620D01*
X0042310Y0040526D01*
X0042433Y0039749D01*
X0042676Y0039001D01*
X0043034Y0038299D01*
X0043496Y0037663D01*
X0044053Y0037106D01*
X0044689Y0036644D01*
X0045391Y0036286D01*
X0046139Y0036043D01*
X0046916Y0035920D01*
X0047010Y0035920D01*
X0047010Y0040620D01*
X0047010Y0041220D01*
X0047610Y0041220D01*
X0047610Y0045920D01*
X0047704Y0045920D01*
X0048481Y0045797D01*
X0049229Y0045554D01*
X0049931Y0045196D01*
X0050567Y0044734D01*
X0051124Y0044177D01*
X0051586Y0043541D01*
X0051944Y0042839D01*
X0052187Y0042091D01*
X0052310Y0041313D01*
X0052310Y0041220D01*
X0047610Y0041220D01*
X0047610Y0040620D01*
X0052310Y0040620D01*
X0052310Y0040526D01*
X0052187Y0039749D01*
X0051944Y0039001D01*
X0051586Y0038299D01*
X0051124Y0037663D01*
X0050567Y0037106D01*
X0049931Y0036644D01*
X0049229Y0036286D01*
X0048481Y0036043D01*
X0047704Y0035920D01*
X0047610Y0035920D01*
X0047610Y0040620D01*
X0047010Y0040620D01*
X0047010Y0040150D02*
X0047610Y0040150D01*
X0047610Y0039552D02*
X0047010Y0039552D01*
X0047010Y0038953D02*
X0047610Y0038953D01*
X0047610Y0038354D02*
X0047010Y0038354D01*
X0047010Y0037756D02*
X0047610Y0037756D01*
X0047610Y0037157D02*
X0047010Y0037157D01*
X0047010Y0036559D02*
X0047610Y0036559D01*
X0047610Y0035960D02*
X0047010Y0035960D01*
X0046661Y0035960D02*
X0007135Y0035960D01*
X0007135Y0035362D02*
X0114710Y0035362D01*
X0114710Y0035960D02*
X0047959Y0035960D01*
X0049764Y0036559D02*
X0114710Y0036559D01*
X0114710Y0037157D02*
X0050619Y0037157D01*
X0051192Y0037756D02*
X0114710Y0037756D01*
X0114710Y0038354D02*
X0051614Y0038354D01*
X0051919Y0038953D02*
X0114710Y0038953D01*
X0114710Y0039552D02*
X0052123Y0039552D01*
X0052250Y0040150D02*
X0114710Y0040150D01*
X0114710Y0040749D02*
X0047610Y0040749D01*
X0047610Y0041347D02*
X0047010Y0041347D01*
X0047010Y0041946D02*
X0047610Y0041946D01*
X0047610Y0042544D02*
X0047010Y0042544D01*
X0047010Y0043143D02*
X0047610Y0043143D01*
X0047610Y0043741D02*
X0047010Y0043741D01*
X0047010Y0044340D02*
X0047610Y0044340D01*
X0047610Y0044938D02*
X0047010Y0044938D01*
X0047010Y0045537D02*
X0047610Y0045537D01*
X0049263Y0045537D02*
X0075416Y0045537D01*
X0075416Y0044938D02*
X0050286Y0044938D01*
X0050961Y0044340D02*
X0075416Y0044340D01*
X0075756Y0043741D02*
X0051441Y0043741D01*
X0051789Y0043143D02*
X0076354Y0043143D01*
X0069293Y0030068D02*
X0068345Y0030461D01*
X0067319Y0030461D01*
X0066371Y0030068D01*
X0065645Y0029342D01*
X0065253Y0028394D01*
X0065253Y0027368D01*
X0065645Y0026420D01*
X0066371Y0025694D01*
X0067319Y0025301D01*
X0068345Y0025301D01*
X0069293Y0025694D01*
X0070019Y0026420D01*
X0070412Y0027368D01*
X0070412Y0028394D01*
X0070019Y0029342D01*
X0069293Y0030068D01*
X0069386Y0029975D02*
X0089034Y0029975D01*
X0089127Y0030068D02*
X0088401Y0029342D01*
X0088008Y0028394D01*
X0088008Y0027368D01*
X0088401Y0026420D01*
X0089127Y0025694D01*
X0090075Y0025301D01*
X0091101Y0025301D01*
X0092049Y0025694D01*
X0092775Y0026420D01*
X0093167Y0027368D01*
X0093167Y0028394D01*
X0092775Y0029342D01*
X0092049Y0030068D01*
X0091101Y0030461D01*
X0090075Y0030461D01*
X0089127Y0030068D01*
X0088436Y0029377D02*
X0069984Y0029377D01*
X0070252Y0028778D02*
X0088168Y0028778D01*
X0088008Y0028180D02*
X0070412Y0028180D01*
X0070412Y0027581D02*
X0088008Y0027581D01*
X0088168Y0026983D02*
X0070252Y0026983D01*
X0069983Y0026384D02*
X0088437Y0026384D01*
X0089035Y0025786D02*
X0069385Y0025786D01*
X0066279Y0025786D02*
X0064339Y0025786D01*
X0064325Y0025763D02*
X0064473Y0025998D01*
X0064669Y0026194D01*
X0064669Y0026257D01*
X0064726Y0026285D01*
X0064817Y0026547D01*
X0064965Y0026781D01*
X0064951Y0026843D01*
X0065000Y0026883D01*
X0065031Y0027158D01*
X0065123Y0027420D01*
X0065098Y0027472D01*
X0065098Y0027751D01*
X0065135Y0028078D01*
X0065098Y0028124D01*
X0065098Y0031811D01*
X0065135Y0031857D01*
X0065098Y0032185D01*
X0065098Y0032464D01*
X0065123Y0032515D01*
X0065031Y0032777D01*
X0065000Y0033053D01*
X0064951Y0033092D01*
X0064965Y0033154D01*
X0064817Y0033389D01*
X0064726Y0033650D01*
X0064669Y0033678D01*
X0064669Y0033741D01*
X0064473Y0033937D01*
X0064325Y0034172D01*
X0064263Y0034186D01*
X0064249Y0034248D01*
X0064014Y0034396D01*
X0063818Y0034592D01*
X0063755Y0034592D01*
X0063727Y0034649D01*
X0063466Y0034740D01*
X0063231Y0034888D01*
X0063169Y0034874D01*
X0063130Y0034923D01*
X0062854Y0034954D01*
X0062592Y0035046D01*
X0062535Y0035019D01*
X0062486Y0035058D01*
X0062210Y0035027D01*
X0061934Y0035058D01*
X0061885Y0035019D01*
X0061828Y0035046D01*
X0061566Y0034954D01*
X0061290Y0034923D01*
X0061251Y0034874D01*
X0061189Y0034888D01*
X0060954Y0034740D01*
X0060693Y0034649D01*
X0060665Y0034592D01*
X0060602Y0034592D01*
X0060406Y0034396D01*
X0060171Y0034248D01*
X0060157Y0034186D01*
X0060095Y0034172D01*
X0059947Y0033937D01*
X0059751Y0033741D01*
X0059751Y0033678D01*
X0059694Y0033650D01*
X0059603Y0033389D01*
X0059455Y0033154D01*
X0059469Y0033092D01*
X0059420Y0033053D01*
X0059389Y0032777D01*
X0059297Y0032515D01*
X0059322Y0032464D01*
X0059322Y0032185D01*
X0059285Y0031857D01*
X0059322Y0031811D01*
X0059322Y0028124D01*
X0059285Y0028078D01*
X0059322Y0027751D01*
X0059322Y0027472D01*
X0059297Y0027420D01*
X0059389Y0027158D01*
X0059420Y0026883D01*
X0059469Y0026843D01*
X0059455Y0026781D01*
X0059603Y0026547D01*
X0059694Y0026285D01*
X0059751Y0026257D01*
X0059751Y0026194D01*
X0059947Y0025998D01*
X0060095Y0025763D01*
X0060157Y0025749D01*
X0060171Y0025687D01*
X0060406Y0025540D01*
X0060602Y0025344D01*
X0060665Y0025344D01*
X0060693Y0025286D01*
X0060954Y0025195D01*
X0061189Y0025047D01*
X0061251Y0025061D01*
X0061290Y0025012D01*
X0061566Y0024981D01*
X0061828Y0024889D01*
X0061885Y0024917D01*
X0061934Y0024877D01*
X0062210Y0024908D01*
X0062486Y0024877D01*
X0062535Y0024917D01*
X0062592Y0024889D01*
X0062854Y0024981D01*
X0063130Y0025012D01*
X0063169Y0025061D01*
X0063231Y0025047D01*
X0063466Y0025195D01*
X0063727Y0025286D01*
X0063755Y0025344D01*
X0063818Y0025344D01*
X0064014Y0025540D01*
X0064249Y0025687D01*
X0064263Y0025749D01*
X0064325Y0025763D01*
X0064761Y0026384D02*
X0065681Y0026384D01*
X0065412Y0026983D02*
X0065012Y0026983D01*
X0065098Y0027581D02*
X0065253Y0027581D01*
X0065253Y0028180D02*
X0065098Y0028180D01*
X0065098Y0028778D02*
X0065412Y0028778D01*
X0065680Y0029377D02*
X0065098Y0029377D01*
X0065098Y0029975D02*
X0066278Y0029975D01*
X0065098Y0030574D02*
X0093322Y0030574D01*
X0093322Y0031172D02*
X0065098Y0031172D01*
X0065098Y0031771D02*
X0093322Y0031771D01*
X0093322Y0031811D02*
X0093322Y0028124D01*
X0093285Y0028078D01*
X0093322Y0027751D01*
X0093322Y0027472D01*
X0093297Y0027420D01*
X0093389Y0027158D01*
X0093420Y0026883D01*
X0093469Y0026843D01*
X0093455Y0026781D01*
X0093603Y0026547D01*
X0093694Y0026285D01*
X0093751Y0026257D01*
X0093751Y0026194D01*
X0093947Y0025998D01*
X0094095Y0025763D01*
X0094157Y0025749D01*
X0094171Y0025687D01*
X0094406Y0025540D01*
X0094602Y0025344D01*
X0094665Y0025344D01*
X0094693Y0025286D01*
X0094954Y0025195D01*
X0095189Y0025047D01*
X0095251Y0025061D01*
X0095290Y0025012D01*
X0095566Y0024981D01*
X0095828Y0024889D01*
X0095885Y0024917D01*
X0095934Y0024877D01*
X0096210Y0024908D01*
X0096486Y0024877D01*
X0096535Y0024917D01*
X0096592Y0024889D01*
X0096854Y0024981D01*
X0097130Y0025012D01*
X0097169Y0025061D01*
X0097231Y0025047D01*
X0097466Y0025195D01*
X0097727Y0025286D01*
X0097755Y0025344D01*
X0097818Y0025344D01*
X0098014Y0025540D01*
X0098249Y0025687D01*
X0098263Y0025749D01*
X0098325Y0025763D01*
X0098473Y0025998D01*
X0098669Y0026194D01*
X0098669Y0026257D01*
X0098726Y0026285D01*
X0098817Y0026547D01*
X0098965Y0026781D01*
X0098951Y0026843D01*
X0099000Y0026883D01*
X0099031Y0027158D01*
X0099123Y0027420D01*
X0099098Y0027472D01*
X0099098Y0027751D01*
X0099135Y0028078D01*
X0099098Y0028124D01*
X0099098Y0031811D01*
X0099135Y0031857D01*
X0099098Y0032185D01*
X0099098Y0032464D01*
X0099123Y0032515D01*
X0099031Y0032777D01*
X0099000Y0033053D01*
X0098951Y0033092D01*
X0098965Y0033154D01*
X0098817Y0033389D01*
X0098726Y0033650D01*
X0098669Y0033678D01*
X0098669Y0033741D01*
X0098473Y0033937D01*
X0098325Y0034172D01*
X0098263Y0034186D01*
X0098249Y0034248D01*
X0098014Y0034396D01*
X0097818Y0034592D01*
X0097755Y0034592D01*
X0097727Y0034649D01*
X0097466Y0034740D01*
X0097231Y0034888D01*
X0097169Y0034874D01*
X0097130Y0034923D01*
X0096854Y0034954D01*
X0096592Y0035046D01*
X0096535Y0035019D01*
X0096486Y0035058D01*
X0096210Y0035027D01*
X0095934Y0035058D01*
X0095885Y0035019D01*
X0095828Y0035046D01*
X0095566Y0034954D01*
X0095290Y0034923D01*
X0095251Y0034874D01*
X0095189Y0034888D01*
X0094954Y0034740D01*
X0094693Y0034649D01*
X0094665Y0034592D01*
X0094602Y0034592D01*
X0094406Y0034396D01*
X0094171Y0034248D01*
X0094157Y0034186D01*
X0094095Y0034172D01*
X0093947Y0033937D01*
X0093751Y0033741D01*
X0093751Y0033678D01*
X0093694Y0033650D01*
X0093603Y0033389D01*
X0093455Y0033154D01*
X0093469Y0033092D01*
X0093420Y0033053D01*
X0093389Y0032777D01*
X0093297Y0032515D01*
X0093322Y0032464D01*
X0093322Y0032185D01*
X0093285Y0031857D01*
X0093322Y0031811D01*
X0093322Y0032369D02*
X0065098Y0032369D01*
X0065010Y0032968D02*
X0093410Y0032968D01*
X0093665Y0033566D02*
X0064755Y0033566D01*
X0064330Y0034165D02*
X0094090Y0034165D01*
X0094991Y0034763D02*
X0063429Y0034763D01*
X0060991Y0034763D02*
X0007135Y0034763D01*
X0007135Y0034165D02*
X0060090Y0034165D01*
X0059665Y0033566D02*
X0007135Y0033566D01*
X0007135Y0032968D02*
X0059410Y0032968D01*
X0059322Y0032369D02*
X0007135Y0032369D01*
X0007135Y0031771D02*
X0059322Y0031771D01*
X0059322Y0031172D02*
X0007135Y0031172D01*
X0007135Y0030574D02*
X0059322Y0030574D01*
X0059322Y0029975D02*
X0007134Y0029975D01*
X0007134Y0029377D02*
X0059322Y0029377D01*
X0059322Y0028778D02*
X0007134Y0028778D01*
X0007134Y0028180D02*
X0059322Y0028180D01*
X0059322Y0027581D02*
X0048560Y0027581D01*
X0048225Y0027720D02*
X0046395Y0027720D01*
X0044704Y0027020D01*
X0043410Y0025726D01*
X0042710Y0024035D01*
X0042710Y0022205D01*
X0043410Y0020514D01*
X0044704Y0019220D01*
X0046395Y0018520D01*
X0048225Y0018520D01*
X0049916Y0019220D01*
X0051210Y0020514D01*
X0051910Y0022205D01*
X0051910Y0024035D01*
X0051210Y0025726D01*
X0049916Y0027020D01*
X0048225Y0027720D01*
X0049953Y0026983D02*
X0059408Y0026983D01*
X0059659Y0026384D02*
X0050551Y0026384D01*
X0051150Y0025786D02*
X0060081Y0025786D01*
X0060966Y0025187D02*
X0051433Y0025187D01*
X0051681Y0024589D02*
X0158117Y0024589D01*
X0158118Y0025187D02*
X0097453Y0025187D01*
X0098339Y0025786D02*
X0158118Y0025786D01*
X0158119Y0026384D02*
X0098761Y0026384D01*
X0099012Y0026983D02*
X0158120Y0026983D01*
X0158121Y0027581D02*
X0099098Y0027581D01*
X0099098Y0028180D02*
X0122157Y0028180D01*
X0120712Y0028778D02*
X0099098Y0028778D01*
X0099098Y0029377D02*
X0119998Y0029377D01*
X0119399Y0029975D02*
X0099098Y0029975D01*
X0099098Y0030574D02*
X0119047Y0030574D01*
X0118799Y0031172D02*
X0099098Y0031172D01*
X0099098Y0031771D02*
X0118551Y0031771D01*
X0118520Y0032369D02*
X0099098Y0032369D01*
X0099010Y0032968D02*
X0115579Y0032968D01*
X0114980Y0033566D02*
X0098755Y0033566D01*
X0098330Y0034165D02*
X0114710Y0034165D01*
X0114710Y0034763D02*
X0097429Y0034763D01*
X0093322Y0029975D02*
X0092142Y0029975D01*
X0092740Y0029377D02*
X0093322Y0029377D01*
X0093322Y0028778D02*
X0093008Y0028778D01*
X0093167Y0028180D02*
X0093322Y0028180D01*
X0093322Y0027581D02*
X0093167Y0027581D01*
X0093008Y0026983D02*
X0093408Y0026983D01*
X0093659Y0026384D02*
X0092739Y0026384D01*
X0092141Y0025786D02*
X0094081Y0025786D01*
X0094966Y0025187D02*
X0063453Y0025187D01*
X0062745Y0017986D02*
X0061675Y0017986D01*
X0060688Y0017577D01*
X0059932Y0016821D01*
X0059523Y0015833D01*
X0059523Y0015820D01*
X0059455Y0015713D01*
X0059469Y0015651D01*
X0059420Y0015612D01*
X0059389Y0015336D01*
X0059297Y0015074D01*
X0059322Y0015023D01*
X0059322Y0014744D01*
X0059285Y0014416D01*
X0059322Y0014370D01*
X0059322Y0012652D01*
X0059285Y0012605D01*
X0059322Y0012278D01*
X0059322Y0011999D01*
X0059297Y0011948D01*
X0059389Y0011686D01*
X0059420Y0011410D01*
X0059469Y0011371D01*
X0059455Y0011309D01*
X0059523Y0011201D01*
X0059523Y0011189D01*
X0059932Y0010201D01*
X0060688Y0009445D01*
X0061675Y0009036D01*
X0062745Y0009036D01*
X0063732Y0009445D01*
X0064488Y0010201D01*
X0064897Y0011189D01*
X0064897Y0011201D01*
X0064965Y0011309D01*
X0064951Y0011371D01*
X0065000Y0011410D01*
X0065031Y0011686D01*
X0065123Y0011948D01*
X0065098Y0011999D01*
X0065098Y0012278D01*
X0065135Y0012605D01*
X0065098Y0012652D01*
X0065098Y0014370D01*
X0065135Y0014416D01*
X0065098Y0014744D01*
X0065098Y0015023D01*
X0065123Y0015074D01*
X0065031Y0015336D01*
X0065000Y0015612D01*
X0064951Y0015651D01*
X0064965Y0015713D01*
X0064897Y0015820D01*
X0064897Y0015833D01*
X0064488Y0016821D01*
X0063732Y0017577D01*
X0062745Y0017986D01*
X0063902Y0017407D02*
X0094518Y0017407D01*
X0094688Y0017577D02*
X0093932Y0016821D01*
X0093523Y0015833D01*
X0093523Y0015820D01*
X0093455Y0015713D01*
X0093469Y0015651D01*
X0093420Y0015612D01*
X0093389Y0015336D01*
X0093297Y0015074D01*
X0093322Y0015023D01*
X0093322Y0014744D01*
X0093285Y0014416D01*
X0093322Y0014370D01*
X0093322Y0012652D01*
X0093285Y0012605D01*
X0093322Y0012278D01*
X0093322Y0011999D01*
X0093297Y0011948D01*
X0093389Y0011686D01*
X0093420Y0011410D01*
X0093469Y0011371D01*
X0093455Y0011309D01*
X0093523Y0011201D01*
X0093523Y0011189D01*
X0093932Y0010201D01*
X0094688Y0009445D01*
X0095675Y0009036D01*
X0096745Y0009036D01*
X0097732Y0009445D01*
X0098488Y0010201D01*
X0098897Y0011189D01*
X0098897Y0011201D01*
X0098965Y0011309D01*
X0098951Y0011371D01*
X0099000Y0011410D01*
X0099031Y0011686D01*
X0099123Y0011948D01*
X0099098Y0011999D01*
X0099098Y0012278D01*
X0099135Y0012605D01*
X0099098Y0012652D01*
X0099098Y0014370D01*
X0099135Y0014416D01*
X0099098Y0014744D01*
X0099098Y0015023D01*
X0099123Y0015074D01*
X0099031Y0015336D01*
X0099000Y0015612D01*
X0098951Y0015651D01*
X0098965Y0015713D01*
X0098897Y0015820D01*
X0098897Y0015833D01*
X0098488Y0016821D01*
X0097732Y0017577D01*
X0096745Y0017986D01*
X0095675Y0017986D01*
X0094688Y0017577D01*
X0093927Y0016808D02*
X0064493Y0016808D01*
X0064741Y0016210D02*
X0093679Y0016210D01*
X0093420Y0015611D02*
X0065000Y0015611D01*
X0065098Y0015013D02*
X0093322Y0015013D01*
X0093287Y0014414D02*
X0065133Y0014414D01*
X0065098Y0013816D02*
X0093322Y0013816D01*
X0093322Y0013217D02*
X0065098Y0013217D01*
X0065125Y0012618D02*
X0093295Y0012618D01*
X0093322Y0012020D02*
X0065098Y0012020D01*
X0065002Y0011421D02*
X0093418Y0011421D01*
X0093674Y0010823D02*
X0064746Y0010823D01*
X0064498Y0010224D02*
X0093922Y0010224D01*
X0094507Y0009626D02*
X0063913Y0009626D01*
X0060507Y0009626D02*
X0007131Y0009626D01*
X0007131Y0010224D02*
X0059922Y0010224D01*
X0059674Y0010823D02*
X0007131Y0010823D01*
X0007132Y0011421D02*
X0059418Y0011421D01*
X0059322Y0012020D02*
X0007132Y0012020D01*
X0007132Y0012618D02*
X0059295Y0012618D01*
X0059322Y0013217D02*
X0007132Y0013217D01*
X0007132Y0013816D02*
X0059322Y0013816D01*
X0059287Y0014414D02*
X0007132Y0014414D01*
X0007132Y0015013D02*
X0059322Y0015013D01*
X0059420Y0015611D02*
X0007132Y0015611D01*
X0007132Y0016210D02*
X0059679Y0016210D01*
X0059927Y0016808D02*
X0007132Y0016808D01*
X0007132Y0017407D02*
X0060518Y0017407D01*
X0051410Y0020998D02*
X0158111Y0020998D01*
X0158112Y0021596D02*
X0051658Y0021596D01*
X0051906Y0022195D02*
X0158113Y0022195D01*
X0158114Y0022793D02*
X0051910Y0022793D01*
X0051910Y0023392D02*
X0158115Y0023392D01*
X0158116Y0023990D02*
X0051910Y0023990D01*
X0051095Y0020399D02*
X0158110Y0020399D01*
X0158109Y0019801D02*
X0050496Y0019801D01*
X0049872Y0019202D02*
X0158108Y0019202D01*
X0158108Y0018604D02*
X0048427Y0018604D01*
X0046193Y0018604D02*
X0022827Y0018604D01*
X0022625Y0018520D02*
X0024316Y0019220D01*
X0025610Y0020514D01*
X0026310Y0022205D01*
X0026310Y0024035D01*
X0025610Y0025726D01*
X0024316Y0027020D01*
X0022625Y0027720D01*
X0020795Y0027720D01*
X0019104Y0027020D01*
X0017810Y0025726D01*
X0017110Y0024035D01*
X0017110Y0022205D01*
X0017810Y0020514D01*
X0019104Y0019220D01*
X0020795Y0018520D01*
X0022625Y0018520D01*
X0024272Y0019202D02*
X0044748Y0019202D01*
X0044124Y0019801D02*
X0024896Y0019801D01*
X0025495Y0020399D02*
X0043525Y0020399D01*
X0043210Y0020998D02*
X0025810Y0020998D01*
X0026058Y0021596D02*
X0042962Y0021596D01*
X0042714Y0022195D02*
X0026306Y0022195D01*
X0026310Y0022793D02*
X0042710Y0022793D01*
X0042710Y0023392D02*
X0026310Y0023392D01*
X0026310Y0023990D02*
X0042710Y0023990D01*
X0042939Y0024589D02*
X0026081Y0024589D01*
X0025833Y0025187D02*
X0043187Y0025187D01*
X0043470Y0025786D02*
X0025550Y0025786D01*
X0024951Y0026384D02*
X0044069Y0026384D01*
X0044667Y0026983D02*
X0024353Y0026983D01*
X0022960Y0027581D02*
X0046060Y0027581D01*
X0044856Y0036559D02*
X0023202Y0036559D01*
X0024453Y0037157D02*
X0044001Y0037157D01*
X0043428Y0037756D02*
X0025051Y0037756D01*
X0025626Y0038354D02*
X0043006Y0038354D01*
X0042701Y0038953D02*
X0025874Y0038953D01*
X0026122Y0039552D02*
X0042497Y0039552D01*
X0042370Y0040150D02*
X0026310Y0040150D01*
X0020218Y0036559D02*
X0007135Y0036559D01*
X0007136Y0037157D02*
X0018967Y0037157D01*
X0018369Y0037756D02*
X0007136Y0037756D01*
X0007136Y0038354D02*
X0017794Y0038354D01*
X0017546Y0038953D02*
X0007136Y0038953D01*
X0007136Y0039552D02*
X0017298Y0039552D01*
X0017110Y0040150D02*
X0007136Y0040150D01*
X0007136Y0040749D02*
X0017110Y0040749D01*
X0017110Y0041347D02*
X0007136Y0041347D01*
X0007136Y0041946D02*
X0017156Y0041946D01*
X0017404Y0042544D02*
X0007136Y0042544D01*
X0007136Y0043143D02*
X0017652Y0043143D01*
X0018026Y0043741D02*
X0007137Y0043741D01*
X0007137Y0044340D02*
X0018624Y0044340D01*
X0019390Y0044938D02*
X0007137Y0044938D01*
X0007134Y0027581D02*
X0020460Y0027581D01*
X0019067Y0026983D02*
X0007134Y0026983D01*
X0007134Y0026384D02*
X0018469Y0026384D01*
X0017870Y0025786D02*
X0007134Y0025786D01*
X0007134Y0025187D02*
X0017587Y0025187D01*
X0017339Y0024589D02*
X0007134Y0024589D01*
X0007134Y0023990D02*
X0017110Y0023990D01*
X0017110Y0023392D02*
X0007133Y0023392D01*
X0007133Y0022793D02*
X0017110Y0022793D01*
X0017114Y0022195D02*
X0007133Y0022195D01*
X0007133Y0021596D02*
X0017362Y0021596D01*
X0017610Y0020998D02*
X0007133Y0020998D01*
X0007133Y0020399D02*
X0017925Y0020399D01*
X0018524Y0019801D02*
X0007133Y0019801D01*
X0007133Y0019202D02*
X0019148Y0019202D01*
X0020593Y0018604D02*
X0007133Y0018604D01*
X0007133Y0018005D02*
X0158107Y0018005D01*
X0158106Y0017407D02*
X0097902Y0017407D01*
X0098493Y0016808D02*
X0158105Y0016808D01*
X0158104Y0016210D02*
X0098741Y0016210D01*
X0099000Y0015611D02*
X0158103Y0015611D01*
X0158102Y0015013D02*
X0099098Y0015013D01*
X0099133Y0014414D02*
X0158101Y0014414D01*
X0158100Y0013816D02*
X0099098Y0013816D01*
X0099098Y0013217D02*
X0158099Y0013217D01*
X0158098Y0012618D02*
X0099125Y0012618D01*
X0099098Y0012020D02*
X0158098Y0012020D01*
X0158097Y0011421D02*
X0099002Y0011421D01*
X0098746Y0010823D02*
X0158096Y0010823D01*
X0158095Y0010224D02*
X0098498Y0010224D01*
X0097913Y0009626D02*
X0158094Y0009626D01*
X0158093Y0009027D02*
X0007131Y0009027D01*
X0007131Y0008429D02*
X0158092Y0008429D01*
X0158091Y0007830D02*
X0007131Y0007830D01*
X0007131Y0007232D02*
X0158090Y0007232D01*
X0158089Y0006633D02*
X0007131Y0006633D01*
X0007131Y0006035D02*
X0158088Y0006035D01*
X0158088Y0005436D02*
X0007131Y0005436D01*
X0007131Y0004838D02*
X0158087Y0004838D01*
X0158086Y0004239D02*
X0007130Y0004239D01*
X0007130Y0003641D02*
X0158085Y0003641D01*
X0158084Y0003042D02*
X0007130Y0003042D01*
X0007140Y0065886D02*
X0061679Y0065886D01*
X0062277Y0066485D02*
X0007140Y0066485D01*
X0007140Y0067083D02*
X0062876Y0067083D01*
X0063475Y0067682D02*
X0007140Y0067682D01*
X0007140Y0068280D02*
X0064073Y0068280D01*
X0064672Y0068879D02*
X0007140Y0068879D01*
X0007141Y0069477D02*
X0065270Y0069477D01*
X0065869Y0070076D02*
X0007141Y0070076D01*
X0007141Y0070674D02*
X0066467Y0070674D01*
X0067066Y0071273D02*
X0007141Y0071273D01*
X0007141Y0071871D02*
X0067664Y0071871D01*
X0068263Y0072470D02*
X0048675Y0072470D01*
X0048525Y0072320D02*
X0049053Y0072847D01*
X0049053Y0081193D01*
X0048525Y0081720D01*
X0040180Y0081720D01*
X0039653Y0081193D01*
X0039653Y0072847D01*
X0040180Y0072320D01*
X0048525Y0072320D01*
X0049053Y0073068D02*
X0068861Y0073068D01*
X0069460Y0073667D02*
X0049053Y0073667D01*
X0049053Y0074265D02*
X0070058Y0074265D01*
X0070657Y0074864D02*
X0049053Y0074864D01*
X0049053Y0075462D02*
X0071255Y0075462D01*
X0071854Y0076061D02*
X0049053Y0076061D01*
X0049053Y0076659D02*
X0072452Y0076659D01*
X0072875Y0077082D02*
X0072875Y0077082D01*
X0073452Y0074265D02*
X0114710Y0074265D01*
X0114710Y0073667D02*
X0072854Y0073667D01*
X0072255Y0073068D02*
X0114710Y0073068D01*
X0114710Y0072470D02*
X0071657Y0072470D01*
X0071058Y0071871D02*
X0114710Y0071871D01*
X0114710Y0071273D02*
X0070460Y0071273D01*
X0069861Y0070674D02*
X0114710Y0070674D01*
X0114710Y0070076D02*
X0069263Y0070076D01*
X0068664Y0069477D02*
X0114710Y0069477D01*
X0114710Y0068879D02*
X0068066Y0068879D01*
X0061125Y0078120D02*
X0063410Y0080405D01*
X0063410Y0081720D01*
X0059810Y0081720D01*
X0059810Y0082320D01*
X0059210Y0082320D01*
X0059210Y0085920D01*
X0057895Y0085920D01*
X0055610Y0083635D01*
X0055610Y0082320D01*
X0059210Y0082320D01*
X0059210Y0081720D01*
X0055610Y0081720D01*
X0055610Y0080405D01*
X0057895Y0078120D01*
X0059210Y0078120D01*
X0059210Y0081720D01*
X0059810Y0081720D01*
X0059810Y0078120D01*
X0061125Y0078120D01*
X0061460Y0078455D02*
X0087560Y0078455D01*
X0087895Y0078120D02*
X0089210Y0078120D01*
X0089210Y0081720D01*
X0085610Y0081720D01*
X0085610Y0080405D01*
X0087895Y0078120D01*
X0086961Y0079053D02*
X0081493Y0079053D01*
X0080960Y0078520D02*
X0083010Y0080570D01*
X0083010Y0083470D01*
X0080960Y0085520D01*
X0078060Y0085520D01*
X0076010Y0083470D01*
X0076010Y0080570D01*
X0078060Y0078520D01*
X0080960Y0078520D01*
X0082092Y0079652D02*
X0086363Y0079652D01*
X0085764Y0080250D02*
X0082690Y0080250D01*
X0083010Y0080849D02*
X0085610Y0080849D01*
X0085610Y0081447D02*
X0083010Y0081447D01*
X0083010Y0082046D02*
X0089210Y0082046D01*
X0089210Y0082320D02*
X0089210Y0081720D01*
X0089810Y0081720D01*
X0089810Y0082320D01*
X0089210Y0082320D01*
X0089210Y0085920D01*
X0087895Y0085920D01*
X0085610Y0083635D01*
X0085610Y0082320D01*
X0089210Y0082320D01*
X0089210Y0082644D02*
X0089810Y0082644D01*
X0089810Y0082320D02*
X0089810Y0085920D01*
X0091125Y0085920D01*
X0093410Y0083635D01*
X0093410Y0082320D01*
X0089810Y0082320D01*
X0089810Y0082046D02*
X0097243Y0082046D01*
X0096645Y0081447D02*
X0093410Y0081447D01*
X0093410Y0081720D02*
X0093410Y0080405D01*
X0091125Y0078120D01*
X0089810Y0078120D01*
X0089810Y0081720D01*
X0093410Y0081720D01*
X0093410Y0080849D02*
X0096046Y0080849D01*
X0095448Y0080250D02*
X0093256Y0080250D01*
X0092657Y0079652D02*
X0094849Y0079652D01*
X0094251Y0079053D02*
X0092059Y0079053D01*
X0091460Y0078455D02*
X0093652Y0078455D01*
X0093054Y0077856D02*
X0049053Y0077856D01*
X0049053Y0077258D02*
X0092455Y0077258D01*
X0094054Y0075462D02*
X0114710Y0075462D01*
X0114710Y0074864D02*
X0093456Y0074864D01*
X0094652Y0076061D02*
X0114710Y0076061D01*
X0114710Y0076659D02*
X0095251Y0076659D01*
X0095849Y0077258D02*
X0114710Y0077258D01*
X0114710Y0077856D02*
X0096448Y0077856D01*
X0097046Y0078455D02*
X0114710Y0078455D01*
X0114710Y0079053D02*
X0111493Y0079053D01*
X0110960Y0078520D02*
X0113010Y0080570D01*
X0113010Y0083470D01*
X0110960Y0085520D01*
X0108060Y0085520D01*
X0106010Y0083470D01*
X0106010Y0080570D01*
X0108060Y0078520D01*
X0110960Y0078520D01*
X0112092Y0079652D02*
X0114710Y0079652D01*
X0114710Y0080250D02*
X0112690Y0080250D01*
X0113010Y0080849D02*
X0114710Y0080849D01*
X0114710Y0081447D02*
X0113010Y0081447D01*
X0113010Y0082046D02*
X0114710Y0082046D01*
X0114710Y0082644D02*
X0113010Y0082644D01*
X0113010Y0083243D02*
X0114710Y0083243D01*
X0114710Y0083841D02*
X0112638Y0083841D01*
X0112040Y0084440D02*
X0114710Y0084440D01*
X0114710Y0085038D02*
X0111441Y0085038D01*
X0109016Y0090425D02*
X0119202Y0090425D01*
X0119800Y0091023D02*
X0109615Y0091023D01*
X0110214Y0091622D02*
X0120399Y0091622D01*
X0120997Y0092220D02*
X0110812Y0092220D01*
X0111210Y0092819D02*
X0121596Y0092819D01*
X0122194Y0093418D02*
X0111210Y0093418D01*
X0111210Y0094016D02*
X0122793Y0094016D01*
X0123391Y0094615D02*
X0111210Y0094615D01*
X0111210Y0095213D02*
X0123990Y0095213D01*
X0124588Y0095812D02*
X0111210Y0095812D01*
X0111210Y0096410D02*
X0125187Y0096410D01*
X0125785Y0097009D02*
X0111210Y0097009D01*
X0112161Y0097607D02*
X0126384Y0097607D01*
X0126982Y0098206D02*
X0113125Y0098206D01*
X0113724Y0098804D02*
X0127581Y0098804D01*
X0127680Y0099403D02*
X0114230Y0099403D01*
X0114477Y0100001D02*
X0127680Y0100001D01*
X0127680Y0100600D02*
X0114725Y0100600D01*
X0114910Y0101198D02*
X0127680Y0101198D01*
X0127680Y0101797D02*
X0114910Y0101797D01*
X0114910Y0102395D02*
X0127680Y0102395D01*
X0127680Y0102994D02*
X0114910Y0102994D01*
X0114662Y0103592D02*
X0127680Y0103592D01*
X0127680Y0104191D02*
X0114415Y0104191D01*
X0114976Y0104789D02*
X0127680Y0104789D01*
X0127680Y0105388D02*
X0115575Y0105388D01*
X0116173Y0105986D02*
X0127680Y0105986D01*
X0127680Y0106585D02*
X0116772Y0106585D01*
X0117370Y0107183D02*
X0127680Y0107183D01*
X0127680Y0107782D02*
X0117969Y0107782D01*
X0118567Y0108380D02*
X0127680Y0108380D01*
X0127680Y0108979D02*
X0119166Y0108979D01*
X0119764Y0109577D02*
X0127680Y0109577D01*
X0127680Y0110176D02*
X0120363Y0110176D01*
X0120961Y0110774D02*
X0127680Y0110774D01*
X0127680Y0111373D02*
X0121560Y0111373D01*
X0122158Y0111971D02*
X0127680Y0111971D01*
X0127680Y0112570D02*
X0122757Y0112570D01*
X0123355Y0113168D02*
X0127680Y0113168D01*
X0127680Y0113767D02*
X0123954Y0113767D01*
X0123690Y0115200D02*
X0123690Y0223870D01*
X0121301Y0223893D02*
X0054416Y0223893D01*
X0054416Y0224491D02*
X0121301Y0224491D01*
X0121532Y0225090D02*
X0054416Y0225090D01*
X0054416Y0225689D02*
X0122130Y0225689D01*
X0121301Y0223294D02*
X0054416Y0223294D01*
X0054416Y0222696D02*
X0121485Y0222696D01*
X0122084Y0222097D02*
X0054416Y0222097D01*
X0054416Y0221499D02*
X0122490Y0221499D01*
X0122490Y0220900D02*
X0054416Y0220900D01*
X0054416Y0220302D02*
X0122490Y0220302D01*
X0122490Y0219703D02*
X0054416Y0219703D01*
X0054416Y0219105D02*
X0122490Y0219105D01*
X0122490Y0218506D02*
X0054416Y0218506D01*
X0054416Y0217908D02*
X0122490Y0217908D01*
X0122490Y0217309D02*
X0054416Y0217309D01*
X0054416Y0216711D02*
X0122490Y0216711D01*
X0122490Y0216112D02*
X0054416Y0216112D01*
X0054416Y0215514D02*
X0122490Y0215514D01*
X0122490Y0214915D02*
X0054416Y0214915D01*
X0054416Y0214317D02*
X0122490Y0214317D01*
X0122490Y0213718D02*
X0054416Y0213718D01*
X0054416Y0213120D02*
X0122490Y0213120D01*
X0122490Y0212521D02*
X0054416Y0212521D01*
X0054416Y0211923D02*
X0122490Y0211923D01*
X0122490Y0211324D02*
X0054416Y0211324D01*
X0054416Y0210726D02*
X0122490Y0210726D01*
X0122490Y0210127D02*
X0054416Y0210127D01*
X0054416Y0209529D02*
X0122490Y0209529D01*
X0122490Y0208930D02*
X0054416Y0208930D01*
X0054416Y0208332D02*
X0122490Y0208332D01*
X0122490Y0207733D02*
X0054416Y0207733D01*
X0054416Y0207135D02*
X0122490Y0207135D01*
X0122490Y0206536D02*
X0054416Y0206536D01*
X0054416Y0205938D02*
X0122490Y0205938D01*
X0122490Y0205339D02*
X0054416Y0205339D01*
X0054416Y0204741D02*
X0122490Y0204741D01*
X0122490Y0204142D02*
X0054416Y0204142D01*
X0054416Y0203544D02*
X0122490Y0203544D01*
X0122490Y0202945D02*
X0092488Y0202945D01*
X0092727Y0202898D02*
X0092206Y0203001D01*
X0091941Y0203001D01*
X0091676Y0203001D01*
X0091155Y0202898D01*
X0090665Y0202695D01*
X0090224Y0202400D01*
X0089849Y0202025D01*
X0089554Y0201583D01*
X0089351Y0201093D01*
X0089247Y0200573D01*
X0089247Y0200307D01*
X0091941Y0200307D01*
X0091941Y0200307D01*
X0091941Y0200307D01*
X0094635Y0200307D01*
X0094635Y0200573D01*
X0094531Y0201093D01*
X0094328Y0201583D01*
X0094033Y0202025D01*
X0093658Y0202400D01*
X0093217Y0202695D01*
X0092727Y0202898D01*
X0091941Y0202945D02*
X0091941Y0202945D01*
X0091941Y0203001D02*
X0091941Y0200308D01*
X0091941Y0200308D01*
X0091941Y0203001D01*
X0091394Y0202945D02*
X0085263Y0202945D01*
X0084717Y0202945D02*
X0084717Y0202945D01*
X0084170Y0202945D02*
X0054416Y0202945D01*
X0054416Y0202347D02*
X0082946Y0202347D01*
X0082440Y0201748D02*
X0054416Y0201748D01*
X0054416Y0201150D02*
X0082150Y0201150D01*
X0082023Y0200551D02*
X0054416Y0200551D01*
X0054416Y0199953D02*
X0082041Y0199953D01*
X0082023Y0200307D02*
X0084717Y0200307D01*
X0084717Y0200307D01*
X0082023Y0200307D01*
X0082196Y0199354D02*
X0081545Y0199354D01*
X0081105Y0199354D02*
X0081104Y0199354D01*
X0081104Y0199389D02*
X0080839Y0199389D01*
X0080319Y0199285D01*
X0079829Y0199082D01*
X0079387Y0198787D01*
X0079012Y0198412D01*
X0078717Y0197971D01*
X0078514Y0197481D01*
X0078411Y0196960D01*
X0054416Y0196960D01*
X0054416Y0197558D02*
X0078546Y0197558D01*
X0078411Y0196960D02*
X0078411Y0196695D01*
X0078411Y0196430D01*
X0078514Y0195909D01*
X0078717Y0195419D01*
X0079012Y0194978D01*
X0079387Y0194603D01*
X0079829Y0194308D01*
X0080319Y0194105D01*
X0080839Y0194001D01*
X0081104Y0194001D01*
X0081104Y0196695D01*
X0078411Y0196695D01*
X0081104Y0196695D01*
X0081104Y0196695D01*
X0081105Y0196695D01*
X0081104Y0196695D01*
X0081104Y0199389D01*
X0080664Y0199354D02*
X0054416Y0199354D01*
X0054416Y0198756D02*
X0079355Y0198756D01*
X0078842Y0198157D02*
X0054416Y0198157D01*
X0054416Y0196361D02*
X0078424Y0196361D01*
X0078575Y0195763D02*
X0054416Y0195763D01*
X0054416Y0195164D02*
X0078888Y0195164D01*
X0079443Y0194566D02*
X0054416Y0194566D01*
X0054416Y0193967D02*
X0082167Y0193967D01*
X0082027Y0193369D02*
X0054416Y0193369D01*
X0054416Y0192770D02*
X0082032Y0192770D01*
X0082178Y0192172D02*
X0054416Y0192172D01*
X0054416Y0191573D02*
X0079403Y0191573D01*
X0078870Y0190975D02*
X0054416Y0190975D01*
X0054416Y0190376D02*
X0078564Y0190376D01*
X0078419Y0189778D02*
X0054416Y0189778D01*
X0054416Y0189179D02*
X0078416Y0189179D01*
X0078557Y0188581D02*
X0054416Y0188581D01*
X0054416Y0187982D02*
X0078859Y0187982D01*
X0079382Y0187384D02*
X0054416Y0187384D01*
X0054416Y0186785D02*
X0080798Y0186785D01*
X0081104Y0186785D02*
X0081105Y0186785D01*
X0081411Y0186785D02*
X0082185Y0186785D01*
X0082036Y0186187D02*
X0054416Y0186187D01*
X0040910Y0149079D02*
X0007153Y0149079D01*
X0007153Y0148481D02*
X0040910Y0148481D01*
X0040910Y0147882D02*
X0007153Y0147882D01*
X0007153Y0147284D02*
X0040910Y0147284D01*
X0040910Y0146685D02*
X0007153Y0146685D01*
X0007152Y0146087D02*
X0040910Y0146087D01*
X0040910Y0145488D02*
X0007152Y0145488D01*
X0007152Y0144889D02*
X0040910Y0144889D01*
X0040910Y0144291D02*
X0007152Y0144291D01*
X0007152Y0143692D02*
X0040910Y0143692D01*
X0040910Y0143094D02*
X0007152Y0143094D01*
X0007152Y0142495D02*
X0040910Y0142495D01*
X0040910Y0141897D02*
X0007152Y0141897D01*
X0007152Y0141298D02*
X0040910Y0141298D01*
X0040910Y0140700D02*
X0007152Y0140700D01*
X0007152Y0140101D02*
X0040910Y0140101D01*
X0040910Y0139503D02*
X0007151Y0139503D01*
X0007151Y0138904D02*
X0040910Y0138904D01*
X0040910Y0138306D02*
X0007151Y0138306D01*
X0007151Y0137707D02*
X0040910Y0137707D01*
X0040910Y0137109D02*
X0007151Y0137109D01*
X0007151Y0136510D02*
X0040910Y0136510D01*
X0040910Y0135912D02*
X0007151Y0135912D01*
X0007151Y0135313D02*
X0040910Y0135313D01*
X0040910Y0134715D02*
X0007151Y0134715D01*
X0007151Y0134116D02*
X0040910Y0134116D01*
X0040910Y0133518D02*
X0007150Y0133518D01*
X0007150Y0132919D02*
X0040910Y0132919D01*
X0040910Y0132321D02*
X0007150Y0132321D01*
X0007150Y0131722D02*
X0040910Y0131722D01*
X0040910Y0131124D02*
X0007150Y0131124D01*
X0007150Y0130525D02*
X0040910Y0130525D01*
X0040910Y0129927D02*
X0007150Y0129927D01*
X0007150Y0129328D02*
X0040910Y0129328D01*
X0040910Y0128730D02*
X0007150Y0128730D01*
X0007150Y0128131D02*
X0040910Y0128131D01*
X0040910Y0127533D02*
X0007150Y0127533D01*
X0007149Y0126934D02*
X0040910Y0126934D01*
X0040847Y0126336D02*
X0007149Y0126336D01*
X0007149Y0125737D02*
X0040249Y0125737D01*
X0039721Y0125139D02*
X0007149Y0125139D01*
X0007149Y0124540D02*
X0039721Y0124540D01*
X0039721Y0123942D02*
X0007149Y0123942D01*
X0007149Y0123343D02*
X0039721Y0123343D01*
X0040207Y0122745D02*
X0007149Y0122745D01*
X0007149Y0122146D02*
X0040805Y0122146D01*
X0047950Y0121548D02*
X0007149Y0121548D01*
X0007149Y0120949D02*
X0047950Y0120949D01*
X0047950Y0120351D02*
X0007148Y0120351D01*
X0007148Y0119752D02*
X0047950Y0119752D01*
X0047950Y0119154D02*
X0007148Y0119154D01*
X0007148Y0118555D02*
X0047950Y0118555D01*
X0047950Y0117956D02*
X0007148Y0117956D01*
X0007148Y0117358D02*
X0047950Y0117358D01*
X0047950Y0116759D02*
X0007148Y0116759D01*
X0007148Y0116161D02*
X0047950Y0116161D01*
X0047950Y0115562D02*
X0007148Y0115562D01*
X0007148Y0114964D02*
X0047950Y0114964D01*
X0047950Y0114365D02*
X0007148Y0114365D01*
X0007147Y0113767D02*
X0047950Y0113767D01*
X0047950Y0113168D02*
X0007147Y0113168D01*
X0007147Y0112570D02*
X0047950Y0112570D01*
X0047950Y0111971D02*
X0007147Y0111971D01*
X0007147Y0111373D02*
X0047950Y0111373D01*
X0047950Y0110774D02*
X0007147Y0110774D01*
X0007147Y0110176D02*
X0047437Y0110176D01*
X0047211Y0109577D02*
X0007147Y0109577D01*
X0007147Y0108979D02*
X0047211Y0108979D01*
X0047211Y0108380D02*
X0007147Y0108380D01*
X0007146Y0107782D02*
X0047400Y0107782D01*
X0047998Y0107183D02*
X0007146Y0107183D01*
X0007146Y0106585D02*
X0048597Y0106585D01*
X0050603Y0106585D02*
X0057226Y0106585D01*
X0058035Y0106920D02*
X0056234Y0106174D01*
X0054856Y0104796D01*
X0054110Y0102995D01*
X0054110Y0101045D01*
X0054856Y0099244D01*
X0056234Y0097866D01*
X0058035Y0097120D01*
X0059985Y0097120D01*
X0061786Y0097866D01*
X0063164Y0099244D01*
X0063910Y0101045D01*
X0063910Y0102995D01*
X0063164Y0104796D01*
X0061786Y0106174D01*
X0059985Y0106920D01*
X0058035Y0106920D01*
X0057539Y0107711D02*
X0055559Y0107711D01*
X0054160Y0109110D01*
X0054160Y0111090D01*
X0055559Y0112489D01*
X0057539Y0112489D01*
X0058938Y0111090D01*
X0058938Y0110930D01*
X0078937Y0110930D01*
X0079640Y0110227D01*
X0079640Y0110227D01*
X0080950Y0108917D01*
X0080950Y0098603D01*
X0075179Y0092832D01*
X0075179Y0091150D01*
X0073780Y0089751D01*
X0071800Y0089751D01*
X0070401Y0091150D01*
X0070401Y0093130D01*
X0071800Y0094529D01*
X0073482Y0094529D01*
X0078550Y0099597D01*
X0078550Y0107923D01*
X0077943Y0108530D01*
X0058358Y0108530D01*
X0057539Y0107711D01*
X0057609Y0107782D02*
X0078550Y0107782D01*
X0078550Y0107183D02*
X0051202Y0107183D01*
X0051800Y0107782D02*
X0055489Y0107782D01*
X0054890Y0108380D02*
X0051989Y0108380D01*
X0051989Y0108979D02*
X0054292Y0108979D01*
X0054160Y0109577D02*
X0051989Y0109577D01*
X0051763Y0110176D02*
X0054160Y0110176D01*
X0054160Y0110774D02*
X0051250Y0110774D01*
X0051250Y0111373D02*
X0054443Y0111373D01*
X0055042Y0111971D02*
X0051250Y0111971D01*
X0051250Y0112570D02*
X0119363Y0112570D01*
X0119961Y0113168D02*
X0051250Y0113168D01*
X0051250Y0113767D02*
X0120560Y0113767D01*
X0121158Y0114365D02*
X0051250Y0114365D01*
X0051250Y0114964D02*
X0121757Y0114964D01*
X0122355Y0115562D02*
X0051250Y0115562D01*
X0051250Y0116161D02*
X0122490Y0116161D01*
X0122490Y0116759D02*
X0051250Y0116759D01*
X0051250Y0117358D02*
X0122490Y0117358D01*
X0122490Y0117956D02*
X0051250Y0117956D01*
X0051250Y0118555D02*
X0122490Y0118555D01*
X0122490Y0119154D02*
X0051250Y0119154D01*
X0051250Y0119752D02*
X0122490Y0119752D01*
X0122490Y0120351D02*
X0051250Y0120351D01*
X0051250Y0120949D02*
X0122490Y0120949D01*
X0122490Y0121548D02*
X0051250Y0121548D01*
X0051250Y0122146D02*
X0122490Y0122146D01*
X0122490Y0122745D02*
X0051250Y0122745D01*
X0051250Y0123343D02*
X0122490Y0123343D01*
X0122490Y0123942D02*
X0051250Y0123942D01*
X0051250Y0124540D02*
X0122490Y0124540D01*
X0122490Y0125139D02*
X0051250Y0125139D01*
X0051250Y0125737D02*
X0122490Y0125737D01*
X0122490Y0126336D02*
X0051250Y0126336D01*
X0051250Y0126934D02*
X0122490Y0126934D01*
X0122490Y0127533D02*
X0051250Y0127533D01*
X0051250Y0128131D02*
X0122490Y0128131D01*
X0122490Y0128730D02*
X0051250Y0128730D01*
X0051250Y0129328D02*
X0122490Y0129328D01*
X0122490Y0129927D02*
X0051250Y0129927D01*
X0051250Y0130525D02*
X0122490Y0130525D01*
X0122490Y0131124D02*
X0051250Y0131124D01*
X0051250Y0131722D02*
X0122490Y0131722D01*
X0122490Y0132321D02*
X0051250Y0132321D01*
X0051250Y0132919D02*
X0122490Y0132919D01*
X0122490Y0133518D02*
X0051250Y0133518D01*
X0051250Y0134116D02*
X0122490Y0134116D01*
X0122490Y0134715D02*
X0051250Y0134715D01*
X0051250Y0135313D02*
X0122490Y0135313D01*
X0122490Y0135912D02*
X0051250Y0135912D01*
X0051250Y0136510D02*
X0122490Y0136510D01*
X0122490Y0137109D02*
X0051250Y0137109D01*
X0051250Y0137707D02*
X0122490Y0137707D01*
X0122490Y0138306D02*
X0051250Y0138306D01*
X0051250Y0138904D02*
X0122490Y0138904D01*
X0122490Y0139503D02*
X0051250Y0139503D01*
X0051250Y0140101D02*
X0122490Y0140101D01*
X0122490Y0140700D02*
X0051250Y0140700D01*
X0051250Y0141298D02*
X0122490Y0141298D01*
X0122490Y0141897D02*
X0051250Y0141897D01*
X0051250Y0142495D02*
X0122490Y0142495D01*
X0122490Y0143094D02*
X0051250Y0143094D01*
X0051781Y0143692D02*
X0122490Y0143692D01*
X0122490Y0144291D02*
X0051989Y0144291D01*
X0051989Y0144889D02*
X0122490Y0144889D01*
X0122490Y0145488D02*
X0051989Y0145488D01*
X0051782Y0146087D02*
X0122490Y0146087D01*
X0122490Y0146685D02*
X0051183Y0146685D01*
X0058056Y0111971D02*
X0118764Y0111971D01*
X0118166Y0111373D02*
X0058655Y0111373D01*
X0056919Y0109730D02*
X0056549Y0110100D01*
X0056919Y0109730D02*
X0078440Y0109730D01*
X0079750Y0108420D01*
X0079750Y0099100D01*
X0072790Y0092140D01*
X0071127Y0090425D02*
X0007144Y0090425D01*
X0007144Y0091023D02*
X0070528Y0091023D01*
X0070401Y0091622D02*
X0007144Y0091622D01*
X0007144Y0092220D02*
X0070401Y0092220D01*
X0070401Y0092819D02*
X0007144Y0092819D01*
X0007144Y0093418D02*
X0070689Y0093418D01*
X0071288Y0094016D02*
X0007144Y0094016D01*
X0007144Y0094615D02*
X0073568Y0094615D01*
X0074166Y0095213D02*
X0007145Y0095213D01*
X0007145Y0095812D02*
X0074765Y0095812D01*
X0075363Y0096410D02*
X0007145Y0096410D01*
X0007145Y0097009D02*
X0075962Y0097009D01*
X0076560Y0097607D02*
X0072161Y0097607D01*
X0072786Y0097866D02*
X0074164Y0099244D01*
X0074910Y0101045D01*
X0074910Y0102995D01*
X0074164Y0104796D01*
X0072786Y0106174D01*
X0070985Y0106920D01*
X0069035Y0106920D01*
X0067234Y0106174D01*
X0065856Y0104796D01*
X0065110Y0102995D01*
X0065110Y0101045D01*
X0065856Y0099244D01*
X0067234Y0097866D01*
X0069035Y0097120D01*
X0070985Y0097120D01*
X0072786Y0097866D01*
X0073125Y0098206D02*
X0077159Y0098206D01*
X0077757Y0098804D02*
X0073724Y0098804D01*
X0074230Y0099403D02*
X0078356Y0099403D01*
X0078550Y0100001D02*
X0074477Y0100001D01*
X0074725Y0100600D02*
X0078550Y0100600D01*
X0078550Y0101198D02*
X0074910Y0101198D01*
X0074910Y0101797D02*
X0078550Y0101797D01*
X0078550Y0102395D02*
X0074910Y0102395D01*
X0074910Y0102994D02*
X0078550Y0102994D01*
X0078550Y0103592D02*
X0074662Y0103592D01*
X0074415Y0104191D02*
X0078550Y0104191D01*
X0078550Y0104789D02*
X0074167Y0104789D01*
X0073572Y0105388D02*
X0078550Y0105388D01*
X0078550Y0105986D02*
X0072973Y0105986D01*
X0071794Y0106585D02*
X0078550Y0106585D01*
X0078093Y0108380D02*
X0058208Y0108380D01*
X0056047Y0105986D02*
X0007146Y0105986D01*
X0007146Y0105388D02*
X0055448Y0105388D01*
X0054853Y0104789D02*
X0007146Y0104789D01*
X0007146Y0104191D02*
X0054605Y0104191D01*
X0054358Y0103592D02*
X0007146Y0103592D01*
X0007146Y0102994D02*
X0054110Y0102994D01*
X0054110Y0102395D02*
X0007146Y0102395D01*
X0007146Y0101797D02*
X0054110Y0101797D01*
X0054110Y0101198D02*
X0007145Y0101198D01*
X0007145Y0100600D02*
X0054295Y0100600D01*
X0054542Y0100001D02*
X0007145Y0100001D01*
X0007145Y0099403D02*
X0054790Y0099403D01*
X0055296Y0098804D02*
X0007145Y0098804D01*
X0007145Y0098206D02*
X0055895Y0098206D01*
X0056859Y0097607D02*
X0007145Y0097607D01*
X0007144Y0089826D02*
X0071725Y0089826D01*
X0073855Y0089826D02*
X0105024Y0089826D01*
X0104425Y0089228D02*
X0007144Y0089228D01*
X0007144Y0088629D02*
X0103827Y0088629D01*
X0103228Y0088031D02*
X0007143Y0088031D01*
X0007143Y0087432D02*
X0102630Y0087432D01*
X0102031Y0086834D02*
X0007143Y0086834D01*
X0007143Y0086235D02*
X0101433Y0086235D01*
X0100834Y0085637D02*
X0091409Y0085637D01*
X0092007Y0085038D02*
X0100236Y0085038D01*
X0099637Y0084440D02*
X0092606Y0084440D01*
X0093204Y0083841D02*
X0099039Y0083841D01*
X0098440Y0083243D02*
X0093410Y0083243D01*
X0093410Y0082644D02*
X0097842Y0082644D01*
X0099440Y0080849D02*
X0106010Y0080849D01*
X0106010Y0081447D02*
X0100039Y0081447D01*
X0100637Y0082046D02*
X0106010Y0082046D01*
X0106010Y0082644D02*
X0101236Y0082644D01*
X0101834Y0083243D02*
X0106010Y0083243D01*
X0106382Y0083841D02*
X0102433Y0083841D01*
X0103031Y0084440D02*
X0106980Y0084440D01*
X0107579Y0085038D02*
X0103630Y0085038D01*
X0104228Y0085637D02*
X0114710Y0085637D01*
X0115012Y0086235D02*
X0104827Y0086235D01*
X0105425Y0086834D02*
X0115610Y0086834D01*
X0116209Y0087432D02*
X0106024Y0087432D01*
X0106622Y0088031D02*
X0116808Y0088031D01*
X0117406Y0088629D02*
X0107221Y0088629D01*
X0107819Y0089228D02*
X0118005Y0089228D01*
X0118603Y0089826D02*
X0108418Y0089826D01*
X0106819Y0091622D02*
X0075179Y0091622D01*
X0075179Y0092220D02*
X0107418Y0092220D01*
X0108016Y0092819D02*
X0075179Y0092819D01*
X0075765Y0093418D02*
X0108615Y0093418D01*
X0108810Y0094016D02*
X0076363Y0094016D01*
X0076962Y0094615D02*
X0108810Y0094615D01*
X0108810Y0095213D02*
X0077560Y0095213D01*
X0078159Y0095812D02*
X0108810Y0095812D01*
X0108810Y0096410D02*
X0078757Y0096410D01*
X0079356Y0097009D02*
X0108810Y0097009D01*
X0107859Y0097607D02*
X0101161Y0097607D01*
X0101786Y0097866D02*
X0103164Y0099244D01*
X0103910Y0101045D01*
X0103910Y0102995D01*
X0103164Y0104796D01*
X0101786Y0106174D01*
X0099985Y0106920D01*
X0098035Y0106920D01*
X0096234Y0106174D01*
X0094856Y0104796D01*
X0094110Y0102995D01*
X0094110Y0101045D01*
X0094856Y0099244D01*
X0096234Y0097866D01*
X0098035Y0097120D01*
X0099985Y0097120D01*
X0101786Y0097866D01*
X0102125Y0098206D02*
X0106895Y0098206D01*
X0106296Y0098804D02*
X0102724Y0098804D01*
X0103230Y0099403D02*
X0105790Y0099403D01*
X0105542Y0100001D02*
X0103477Y0100001D01*
X0103725Y0100600D02*
X0105295Y0100600D01*
X0105110Y0101198D02*
X0103910Y0101198D01*
X0103910Y0101797D02*
X0105110Y0101797D01*
X0105110Y0102395D02*
X0103910Y0102395D01*
X0103910Y0102994D02*
X0105110Y0102994D01*
X0105358Y0103592D02*
X0103662Y0103592D01*
X0103415Y0104191D02*
X0105605Y0104191D01*
X0105853Y0104789D02*
X0103167Y0104789D01*
X0102572Y0105388D02*
X0106448Y0105388D01*
X0107047Y0105986D02*
X0101973Y0105986D01*
X0100794Y0106585D02*
X0108226Y0106585D01*
X0111794Y0106585D02*
X0113378Y0106585D01*
X0113976Y0107183D02*
X0080950Y0107183D01*
X0080950Y0106585D02*
X0097226Y0106585D01*
X0096047Y0105986D02*
X0080950Y0105986D01*
X0080950Y0105388D02*
X0095448Y0105388D01*
X0094853Y0104789D02*
X0080950Y0104789D01*
X0080950Y0104191D02*
X0094605Y0104191D01*
X0094358Y0103592D02*
X0080950Y0103592D01*
X0080950Y0102994D02*
X0094110Y0102994D01*
X0094110Y0102395D02*
X0080950Y0102395D01*
X0080950Y0101797D02*
X0094110Y0101797D01*
X0094110Y0101198D02*
X0080950Y0101198D01*
X0080950Y0100600D02*
X0094295Y0100600D01*
X0094542Y0100001D02*
X0080950Y0100001D01*
X0080950Y0099403D02*
X0094790Y0099403D01*
X0095296Y0098804D02*
X0080950Y0098804D01*
X0080553Y0098206D02*
X0095895Y0098206D01*
X0096859Y0097607D02*
X0079954Y0097607D01*
X0075052Y0091023D02*
X0106221Y0091023D01*
X0105622Y0090425D02*
X0074454Y0090425D01*
X0077579Y0085038D02*
X0062007Y0085038D01*
X0062606Y0084440D02*
X0076980Y0084440D01*
X0076382Y0083841D02*
X0063204Y0083841D01*
X0063410Y0083635D02*
X0061125Y0085920D01*
X0059810Y0085920D01*
X0059810Y0082320D01*
X0063410Y0082320D01*
X0063410Y0083635D01*
X0063410Y0083243D02*
X0076010Y0083243D01*
X0076010Y0082644D02*
X0063410Y0082644D01*
X0063410Y0081447D02*
X0076010Y0081447D01*
X0076010Y0080849D02*
X0063410Y0080849D01*
X0063256Y0080250D02*
X0076330Y0080250D01*
X0076928Y0079652D02*
X0062657Y0079652D01*
X0062059Y0079053D02*
X0077527Y0079053D01*
X0076010Y0082046D02*
X0059810Y0082046D01*
X0059810Y0082644D02*
X0059210Y0082644D01*
X0059210Y0082046D02*
X0025537Y0082046D01*
X0025862Y0081994D02*
X0025069Y0082120D01*
X0024967Y0082120D01*
X0024967Y0077320D01*
X0024367Y0077320D01*
X0024367Y0076720D01*
X0019567Y0076720D01*
X0019567Y0076619D01*
X0019693Y0075826D01*
X0019941Y0075062D01*
X0020306Y0074347D01*
X0020777Y0073698D01*
X0021345Y0073130D01*
X0021994Y0072658D01*
X0022710Y0072294D01*
X0023473Y0072046D01*
X0024266Y0071920D01*
X0024367Y0071920D01*
X0024367Y0076720D01*
X0024967Y0076720D01*
X0024967Y0071920D01*
X0025069Y0071920D01*
X0025862Y0072046D01*
X0026625Y0072294D01*
X0027340Y0072658D01*
X0027990Y0073130D01*
X0028558Y0073698D01*
X0029029Y0074347D01*
X0029394Y0075062D01*
X0029642Y0075826D01*
X0029767Y0076619D01*
X0029767Y0076720D01*
X0024968Y0076720D01*
X0024968Y0077320D01*
X0029767Y0077320D01*
X0029767Y0077421D01*
X0029642Y0078214D01*
X0029394Y0078978D01*
X0029029Y0079693D01*
X0028558Y0080342D01*
X0027990Y0080910D01*
X0027340Y0081382D01*
X0026625Y0081746D01*
X0025862Y0081994D01*
X0024967Y0082046D02*
X0024367Y0082046D01*
X0024367Y0082120D02*
X0024266Y0082120D01*
X0023473Y0081994D01*
X0022710Y0081746D01*
X0021994Y0081382D01*
X0021345Y0080910D01*
X0020777Y0080342D01*
X0020306Y0079693D01*
X0019941Y0078978D01*
X0019693Y0078214D01*
X0019567Y0077421D01*
X0019567Y0077320D01*
X0024367Y0077320D01*
X0024367Y0082120D01*
X0023798Y0082046D02*
X0007143Y0082046D01*
X0007143Y0082644D02*
X0055610Y0082644D01*
X0055610Y0083243D02*
X0007143Y0083243D01*
X0007143Y0083841D02*
X0055816Y0083841D01*
X0056414Y0084440D02*
X0007143Y0084440D01*
X0007143Y0085038D02*
X0057013Y0085038D01*
X0057611Y0085637D02*
X0007143Y0085637D01*
X0007142Y0081447D02*
X0022123Y0081447D01*
X0021284Y0080849D02*
X0007142Y0080849D01*
X0007142Y0080250D02*
X0020710Y0080250D01*
X0020285Y0079652D02*
X0007142Y0079652D01*
X0007142Y0079053D02*
X0019980Y0079053D01*
X0019771Y0078455D02*
X0007142Y0078455D01*
X0007142Y0077856D02*
X0019636Y0077856D01*
X0019567Y0076659D02*
X0007142Y0076659D01*
X0007142Y0076061D02*
X0019656Y0076061D01*
X0019811Y0075462D02*
X0007141Y0075462D01*
X0007141Y0074864D02*
X0020042Y0074864D01*
X0020365Y0074265D02*
X0007141Y0074265D01*
X0007141Y0073667D02*
X0020808Y0073667D01*
X0021430Y0073068D02*
X0007141Y0073068D01*
X0007141Y0072470D02*
X0022364Y0072470D01*
X0024367Y0072470D02*
X0024967Y0072470D01*
X0024967Y0073068D02*
X0024367Y0073068D01*
X0024367Y0073667D02*
X0024967Y0073667D01*
X0024967Y0074265D02*
X0024367Y0074265D01*
X0024367Y0074864D02*
X0024967Y0074864D01*
X0024967Y0075462D02*
X0024367Y0075462D01*
X0024367Y0076061D02*
X0024967Y0076061D01*
X0024967Y0076659D02*
X0024367Y0076659D01*
X0024367Y0077258D02*
X0007142Y0077258D01*
X0024367Y0077856D02*
X0024967Y0077856D01*
X0024968Y0077258D02*
X0039653Y0077258D01*
X0039653Y0077856D02*
X0029699Y0077856D01*
X0029564Y0078455D02*
X0039653Y0078455D01*
X0039653Y0079053D02*
X0029355Y0079053D01*
X0029050Y0079652D02*
X0039653Y0079652D01*
X0039653Y0080250D02*
X0028624Y0080250D01*
X0028051Y0080849D02*
X0039653Y0080849D01*
X0039907Y0081447D02*
X0027212Y0081447D01*
X0029767Y0076659D02*
X0039653Y0076659D01*
X0039653Y0076061D02*
X0029679Y0076061D01*
X0029524Y0075462D02*
X0039653Y0075462D01*
X0039653Y0074864D02*
X0029293Y0074864D01*
X0028970Y0074265D02*
X0039653Y0074265D01*
X0039653Y0073667D02*
X0028527Y0073667D01*
X0027905Y0073068D02*
X0039653Y0073068D01*
X0040030Y0072470D02*
X0026971Y0072470D01*
X0024967Y0078455D02*
X0024367Y0078455D01*
X0024367Y0079053D02*
X0024967Y0079053D01*
X0024967Y0079652D02*
X0024367Y0079652D01*
X0024367Y0080250D02*
X0024967Y0080250D01*
X0024967Y0080849D02*
X0024367Y0080849D01*
X0024367Y0081447D02*
X0024967Y0081447D01*
X0048798Y0081447D02*
X0055610Y0081447D01*
X0055610Y0080849D02*
X0049053Y0080849D01*
X0049053Y0080250D02*
X0055764Y0080250D01*
X0056363Y0079652D02*
X0049053Y0079652D01*
X0049053Y0079053D02*
X0056961Y0079053D01*
X0057560Y0078455D02*
X0049053Y0078455D01*
X0059210Y0078455D02*
X0059810Y0078455D01*
X0059810Y0079053D02*
X0059210Y0079053D01*
X0059210Y0079652D02*
X0059810Y0079652D01*
X0059810Y0080250D02*
X0059210Y0080250D01*
X0059210Y0080849D02*
X0059810Y0080849D01*
X0059810Y0081447D02*
X0059210Y0081447D01*
X0059210Y0083243D02*
X0059810Y0083243D01*
X0059810Y0083841D02*
X0059210Y0083841D01*
X0059210Y0084440D02*
X0059810Y0084440D01*
X0059810Y0085038D02*
X0059210Y0085038D01*
X0059210Y0085637D02*
X0059810Y0085637D01*
X0061409Y0085637D02*
X0087611Y0085637D01*
X0087013Y0085038D02*
X0081441Y0085038D01*
X0082040Y0084440D02*
X0086414Y0084440D01*
X0085816Y0083841D02*
X0082638Y0083841D01*
X0083010Y0083243D02*
X0085610Y0083243D01*
X0085610Y0082644D02*
X0083010Y0082644D01*
X0089210Y0083243D02*
X0089810Y0083243D01*
X0089810Y0083841D02*
X0089210Y0083841D01*
X0089210Y0084440D02*
X0089810Y0084440D01*
X0089810Y0085038D02*
X0089210Y0085038D01*
X0089210Y0085637D02*
X0089810Y0085637D01*
X0089810Y0081447D02*
X0089210Y0081447D01*
X0089210Y0080849D02*
X0089810Y0080849D01*
X0089810Y0080250D02*
X0089210Y0080250D01*
X0089210Y0079652D02*
X0089810Y0079652D01*
X0089810Y0079053D02*
X0089210Y0079053D01*
X0089210Y0078455D02*
X0089810Y0078455D01*
X0087310Y0066940D02*
X0104790Y0066940D01*
X0109310Y0062420D01*
X0109510Y0062020D01*
X0107876Y0058704D02*
X0091144Y0058704D01*
X0090960Y0058520D02*
X0093010Y0060570D01*
X0093010Y0063470D01*
X0090960Y0065520D01*
X0088060Y0065520D01*
X0086010Y0063470D01*
X0086010Y0060570D01*
X0088060Y0058520D01*
X0090960Y0058520D01*
X0091742Y0059302D02*
X0107278Y0059302D01*
X0106679Y0059901D02*
X0092341Y0059901D01*
X0092939Y0060499D02*
X0106081Y0060499D01*
X0106010Y0061098D02*
X0093010Y0061098D01*
X0093010Y0061696D02*
X0106010Y0061696D01*
X0106010Y0062295D02*
X0093010Y0062295D01*
X0093010Y0062893D02*
X0106010Y0062893D01*
X0106032Y0063492D02*
X0092988Y0063492D01*
X0092389Y0064090D02*
X0105942Y0064090D01*
X0105344Y0064689D02*
X0091791Y0064689D01*
X0091192Y0065287D02*
X0104745Y0065287D01*
X0107527Y0079053D02*
X0097645Y0079053D01*
X0098243Y0079652D02*
X0106928Y0079652D01*
X0106330Y0080250D02*
X0098842Y0080250D01*
X0087310Y0066940D02*
X0082790Y0062420D01*
X0079910Y0062420D01*
X0079510Y0062020D01*
X0081791Y0064689D02*
X0083362Y0064689D01*
X0083960Y0065287D02*
X0081192Y0065287D01*
X0082389Y0064090D02*
X0082763Y0064090D01*
X0084362Y0062295D02*
X0086010Y0062295D01*
X0086010Y0062893D02*
X0084961Y0062893D01*
X0085559Y0063492D02*
X0086032Y0063492D01*
X0086158Y0064090D02*
X0086631Y0064090D01*
X0086756Y0064689D02*
X0087229Y0064689D01*
X0087355Y0065287D02*
X0087828Y0065287D01*
X0086010Y0061696D02*
X0083763Y0061696D01*
X0083010Y0061098D02*
X0086010Y0061098D01*
X0086081Y0060499D02*
X0082939Y0060499D01*
X0082341Y0059901D02*
X0086679Y0059901D01*
X0087278Y0059302D02*
X0081742Y0059302D01*
X0081144Y0058704D02*
X0087876Y0058704D01*
X0085299Y0056310D02*
X0114710Y0056310D01*
X0118010Y0056310D02*
X0158165Y0056310D01*
X0158166Y0056908D02*
X0118010Y0056908D01*
X0118010Y0057507D02*
X0158167Y0057507D01*
X0158168Y0058105D02*
X0118010Y0058105D01*
X0118010Y0058704D02*
X0158169Y0058704D01*
X0158169Y0059302D02*
X0118010Y0059302D01*
X0118010Y0059901D02*
X0158170Y0059901D01*
X0158171Y0060499D02*
X0118010Y0060499D01*
X0118010Y0061098D02*
X0158172Y0061098D01*
X0158173Y0061696D02*
X0118010Y0061696D01*
X0118010Y0062295D02*
X0158174Y0062295D01*
X0158175Y0062893D02*
X0118010Y0062893D01*
X0118010Y0063492D02*
X0158176Y0063492D01*
X0158177Y0064090D02*
X0118010Y0064090D01*
X0118010Y0064689D02*
X0158178Y0064689D01*
X0158179Y0065287D02*
X0118010Y0065287D01*
X0118010Y0065886D02*
X0158179Y0065886D01*
X0158180Y0066485D02*
X0118010Y0066485D01*
X0118010Y0067083D02*
X0158181Y0067083D01*
X0158182Y0067682D02*
X0118010Y0067682D01*
X0118010Y0068280D02*
X0158183Y0068280D01*
X0158184Y0068879D02*
X0118010Y0068879D01*
X0118010Y0069477D02*
X0158185Y0069477D01*
X0158186Y0070076D02*
X0118010Y0070076D01*
X0118010Y0070674D02*
X0158187Y0070674D01*
X0158188Y0071273D02*
X0118010Y0071273D01*
X0118010Y0071871D02*
X0158189Y0071871D01*
X0158189Y0072470D02*
X0148675Y0072470D01*
X0148525Y0072320D02*
X0149053Y0072847D01*
X0149053Y0081193D01*
X0148525Y0081720D01*
X0140180Y0081720D01*
X0139653Y0081193D01*
X0139653Y0072847D01*
X0140180Y0072320D01*
X0148525Y0072320D01*
X0149053Y0073068D02*
X0158190Y0073068D01*
X0158191Y0073667D02*
X0149053Y0073667D01*
X0149053Y0074265D02*
X0158192Y0074265D01*
X0158193Y0074864D02*
X0149053Y0074864D01*
X0149053Y0075462D02*
X0158194Y0075462D01*
X0158195Y0076061D02*
X0149053Y0076061D01*
X0149053Y0076659D02*
X0158196Y0076659D01*
X0158197Y0077258D02*
X0149053Y0077258D01*
X0149053Y0077856D02*
X0158198Y0077856D01*
X0158199Y0078455D02*
X0149053Y0078455D01*
X0149053Y0079053D02*
X0158199Y0079053D01*
X0158200Y0079652D02*
X0149053Y0079652D01*
X0149053Y0080250D02*
X0158201Y0080250D01*
X0158202Y0080849D02*
X0149053Y0080849D01*
X0148798Y0081447D02*
X0158203Y0081447D01*
X0158204Y0082046D02*
X0125537Y0082046D01*
X0125862Y0081994D02*
X0125069Y0082120D01*
X0124967Y0082120D01*
X0124967Y0077320D01*
X0124367Y0077320D01*
X0124367Y0076720D01*
X0119567Y0076720D01*
X0119567Y0076619D01*
X0119693Y0075826D01*
X0119941Y0075062D01*
X0120306Y0074347D01*
X0120777Y0073698D01*
X0121345Y0073130D01*
X0121994Y0072658D01*
X0122710Y0072294D01*
X0123473Y0072046D01*
X0124266Y0071920D01*
X0124367Y0071920D01*
X0124367Y0076720D01*
X0124967Y0076720D01*
X0124967Y0071920D01*
X0125069Y0071920D01*
X0125862Y0072046D01*
X0126625Y0072294D01*
X0127340Y0072658D01*
X0127990Y0073130D01*
X0128558Y0073698D01*
X0129029Y0074347D01*
X0129394Y0075062D01*
X0129642Y0075826D01*
X0129767Y0076619D01*
X0129767Y0076720D01*
X0124968Y0076720D01*
X0124968Y0077320D01*
X0129767Y0077320D01*
X0129767Y0077421D01*
X0129642Y0078214D01*
X0129394Y0078978D01*
X0129029Y0079693D01*
X0128558Y0080342D01*
X0127990Y0080910D01*
X0127340Y0081382D01*
X0126625Y0081746D01*
X0125862Y0081994D01*
X0124967Y0082046D02*
X0124367Y0082046D01*
X0124367Y0082120D02*
X0124266Y0082120D01*
X0123473Y0081994D01*
X0122710Y0081746D01*
X0121994Y0081382D01*
X0121345Y0080910D01*
X0120777Y0080342D01*
X0120306Y0079693D01*
X0119941Y0078978D01*
X0119693Y0078214D01*
X0119567Y0077421D01*
X0119567Y0077320D01*
X0124367Y0077320D01*
X0124367Y0082120D01*
X0123798Y0082046D02*
X0118010Y0082046D01*
X0118010Y0082644D02*
X0158205Y0082644D01*
X0158206Y0083243D02*
X0118010Y0083243D01*
X0118010Y0083841D02*
X0158207Y0083841D01*
X0158208Y0084440D02*
X0118010Y0084440D01*
X0118482Y0085038D02*
X0158209Y0085038D01*
X0158209Y0085637D02*
X0119080Y0085637D01*
X0119679Y0086235D02*
X0158210Y0086235D01*
X0158211Y0086834D02*
X0120277Y0086834D01*
X0120876Y0087432D02*
X0158212Y0087432D01*
X0158213Y0088031D02*
X0121474Y0088031D01*
X0122073Y0088629D02*
X0158214Y0088629D01*
X0158215Y0089228D02*
X0122671Y0089228D01*
X0123270Y0089826D02*
X0158216Y0089826D01*
X0158217Y0090425D02*
X0123868Y0090425D01*
X0124467Y0091023D02*
X0158218Y0091023D01*
X0158219Y0091622D02*
X0125065Y0091622D01*
X0125664Y0092220D02*
X0158220Y0092220D01*
X0158220Y0092819D02*
X0126262Y0092819D01*
X0126861Y0093418D02*
X0158221Y0093418D01*
X0158222Y0094016D02*
X0127460Y0094016D01*
X0128058Y0094615D02*
X0158223Y0094615D01*
X0158224Y0095213D02*
X0128657Y0095213D01*
X0129255Y0095812D02*
X0158225Y0095812D01*
X0158226Y0096410D02*
X0129854Y0096410D01*
X0130452Y0097009D02*
X0158227Y0097009D01*
X0158228Y0097607D02*
X0130980Y0097607D01*
X0130980Y0098206D02*
X0158229Y0098206D01*
X0158230Y0098804D02*
X0130980Y0098804D01*
X0130980Y0099403D02*
X0158230Y0099403D01*
X0158231Y0100001D02*
X0130980Y0100001D01*
X0130980Y0100600D02*
X0158232Y0100600D01*
X0158233Y0101198D02*
X0130980Y0101198D01*
X0130980Y0101797D02*
X0158234Y0101797D01*
X0158235Y0102395D02*
X0130980Y0102395D01*
X0130980Y0102994D02*
X0158236Y0102994D01*
X0158237Y0103592D02*
X0130980Y0103592D01*
X0130980Y0104191D02*
X0158238Y0104191D01*
X0158239Y0104789D02*
X0130980Y0104789D01*
X0130980Y0105388D02*
X0158240Y0105388D01*
X0158240Y0105986D02*
X0130980Y0105986D01*
X0130980Y0106585D02*
X0158241Y0106585D01*
X0158242Y0107183D02*
X0130980Y0107183D01*
X0130980Y0107782D02*
X0158243Y0107782D01*
X0158244Y0108380D02*
X0130980Y0108380D01*
X0130980Y0108979D02*
X0158245Y0108979D01*
X0158246Y0109577D02*
X0130980Y0109577D01*
X0130980Y0110176D02*
X0158247Y0110176D01*
X0158248Y0110774D02*
X0130980Y0110774D01*
X0130980Y0111373D02*
X0158249Y0111373D01*
X0158250Y0111971D02*
X0130980Y0111971D01*
X0130980Y0112570D02*
X0158250Y0112570D01*
X0158251Y0113168D02*
X0130980Y0113168D01*
X0130980Y0113767D02*
X0158252Y0113767D01*
X0158253Y0114365D02*
X0130980Y0114365D01*
X0130980Y0114964D02*
X0158254Y0114964D01*
X0158255Y0115562D02*
X0130980Y0115562D01*
X0130980Y0116161D02*
X0158256Y0116161D01*
X0158257Y0116759D02*
X0130980Y0116759D01*
X0130980Y0117358D02*
X0158258Y0117358D01*
X0158259Y0117956D02*
X0130980Y0117956D01*
X0130980Y0118555D02*
X0158260Y0118555D01*
X0158260Y0119154D02*
X0130980Y0119154D01*
X0130980Y0119752D02*
X0158261Y0119752D01*
X0158262Y0120351D02*
X0130980Y0120351D01*
X0130980Y0120949D02*
X0158263Y0120949D01*
X0158264Y0121548D02*
X0130980Y0121548D01*
X0130980Y0122146D02*
X0158265Y0122146D01*
X0158266Y0122745D02*
X0130980Y0122745D01*
X0130980Y0123343D02*
X0158267Y0123343D01*
X0158268Y0123942D02*
X0130980Y0123942D01*
X0130980Y0124540D02*
X0158269Y0124540D01*
X0158270Y0125139D02*
X0130980Y0125139D01*
X0130980Y0125737D02*
X0158270Y0125737D01*
X0158271Y0126336D02*
X0130980Y0126336D01*
X0130980Y0126934D02*
X0158272Y0126934D01*
X0158273Y0127533D02*
X0130980Y0127533D01*
X0130980Y0128131D02*
X0158274Y0128131D01*
X0158275Y0128730D02*
X0130980Y0128730D01*
X0130980Y0129328D02*
X0158276Y0129328D01*
X0158277Y0129927D02*
X0130980Y0129927D01*
X0130980Y0130525D02*
X0158278Y0130525D01*
X0158279Y0131124D02*
X0130980Y0131124D01*
X0130980Y0131722D02*
X0158280Y0131722D01*
X0158281Y0132321D02*
X0130980Y0132321D01*
X0130980Y0132919D02*
X0158281Y0132919D01*
X0158282Y0133518D02*
X0130980Y0133518D01*
X0130980Y0134116D02*
X0158283Y0134116D01*
X0158284Y0134715D02*
X0130980Y0134715D01*
X0130980Y0135313D02*
X0158285Y0135313D01*
X0158286Y0135912D02*
X0130980Y0135912D01*
X0130980Y0136510D02*
X0158287Y0136510D01*
X0158288Y0137109D02*
X0130980Y0137109D01*
X0130980Y0137707D02*
X0158289Y0137707D01*
X0158290Y0138306D02*
X0130980Y0138306D01*
X0130980Y0138904D02*
X0158291Y0138904D01*
X0158291Y0139503D02*
X0130980Y0139503D01*
X0130980Y0140101D02*
X0158292Y0140101D01*
X0158293Y0140700D02*
X0130980Y0140700D01*
X0130980Y0141298D02*
X0158294Y0141298D01*
X0158295Y0141897D02*
X0130980Y0141897D01*
X0130980Y0142495D02*
X0158296Y0142495D01*
X0158297Y0143094D02*
X0130980Y0143094D01*
X0130980Y0143692D02*
X0158298Y0143692D01*
X0158299Y0144291D02*
X0130980Y0144291D01*
X0130980Y0144889D02*
X0158300Y0144889D01*
X0158301Y0145488D02*
X0130980Y0145488D01*
X0130980Y0146087D02*
X0158301Y0146087D01*
X0158302Y0146685D02*
X0130980Y0146685D01*
X0130980Y0147284D02*
X0158303Y0147284D01*
X0158304Y0147882D02*
X0130980Y0147882D01*
X0130980Y0148481D02*
X0158305Y0148481D01*
X0158306Y0149079D02*
X0130980Y0149079D01*
X0130980Y0149678D02*
X0158307Y0149678D01*
X0158308Y0150276D02*
X0130980Y0150276D01*
X0130980Y0150875D02*
X0158309Y0150875D01*
X0158310Y0151473D02*
X0130980Y0151473D01*
X0130980Y0152072D02*
X0158311Y0152072D01*
X0158311Y0152670D02*
X0130980Y0152670D01*
X0130980Y0153269D02*
X0158312Y0153269D01*
X0158313Y0153867D02*
X0130980Y0153867D01*
X0130980Y0154466D02*
X0158314Y0154466D01*
X0158315Y0155064D02*
X0130980Y0155064D01*
X0130980Y0155663D02*
X0158316Y0155663D01*
X0158317Y0156261D02*
X0130980Y0156261D01*
X0130980Y0156860D02*
X0158318Y0156860D01*
X0158319Y0157458D02*
X0130980Y0157458D01*
X0130980Y0158057D02*
X0158320Y0158057D01*
X0158321Y0158655D02*
X0130980Y0158655D01*
X0130980Y0159254D02*
X0158321Y0159254D01*
X0158322Y0159852D02*
X0130980Y0159852D01*
X0130980Y0160451D02*
X0158323Y0160451D01*
X0158324Y0161049D02*
X0130980Y0161049D01*
X0130980Y0161648D02*
X0158325Y0161648D01*
X0158326Y0162246D02*
X0130980Y0162246D01*
X0130980Y0162845D02*
X0158327Y0162845D01*
X0158328Y0163443D02*
X0130980Y0163443D01*
X0130980Y0164042D02*
X0158329Y0164042D01*
X0158330Y0164640D02*
X0130980Y0164640D01*
X0130980Y0165239D02*
X0158331Y0165239D01*
X0158331Y0165837D02*
X0130980Y0165837D01*
X0130980Y0166436D02*
X0158332Y0166436D01*
X0158333Y0167034D02*
X0130980Y0167034D01*
X0130980Y0167633D02*
X0158334Y0167633D01*
X0158335Y0168231D02*
X0130980Y0168231D01*
X0130980Y0168830D02*
X0158336Y0168830D01*
X0158337Y0169428D02*
X0130980Y0169428D01*
X0130980Y0170027D02*
X0158338Y0170027D01*
X0158339Y0170625D02*
X0130980Y0170625D01*
X0130980Y0171224D02*
X0158340Y0171224D01*
X0158341Y0171823D02*
X0130980Y0171823D01*
X0130980Y0172421D02*
X0158342Y0172421D01*
X0158342Y0173020D02*
X0130980Y0173020D01*
X0130980Y0173618D02*
X0158343Y0173618D01*
X0158344Y0174217D02*
X0130980Y0174217D01*
X0130980Y0174815D02*
X0158345Y0174815D01*
X0158346Y0175414D02*
X0130980Y0175414D01*
X0130980Y0176012D02*
X0158347Y0176012D01*
X0158348Y0176611D02*
X0130980Y0176611D01*
X0130980Y0177209D02*
X0158349Y0177209D01*
X0158350Y0177808D02*
X0130980Y0177808D01*
X0130980Y0178406D02*
X0158351Y0178406D01*
X0158352Y0179005D02*
X0130980Y0179005D01*
X0130980Y0179603D02*
X0158352Y0179603D01*
X0158353Y0180202D02*
X0130980Y0180202D01*
X0130980Y0180800D02*
X0158354Y0180800D01*
X0158355Y0181399D02*
X0130980Y0181399D01*
X0130980Y0181997D02*
X0158356Y0181997D01*
X0158357Y0182596D02*
X0130980Y0182596D01*
X0130980Y0183194D02*
X0158358Y0183194D01*
X0158359Y0183793D02*
X0130980Y0183793D01*
X0130980Y0184391D02*
X0158360Y0184391D01*
X0158361Y0184990D02*
X0130980Y0184990D01*
X0130980Y0185588D02*
X0158362Y0185588D01*
X0158362Y0186187D02*
X0130980Y0186187D01*
X0130980Y0186785D02*
X0158363Y0186785D01*
X0158364Y0187384D02*
X0130980Y0187384D01*
X0130980Y0187982D02*
X0158365Y0187982D01*
X0158366Y0188581D02*
X0130980Y0188581D01*
X0130980Y0189179D02*
X0158367Y0189179D01*
X0158368Y0189778D02*
X0130980Y0189778D01*
X0130980Y0190376D02*
X0158369Y0190376D01*
X0158370Y0190975D02*
X0130980Y0190975D01*
X0130980Y0191573D02*
X0158371Y0191573D01*
X0158372Y0192172D02*
X0130980Y0192172D01*
X0130980Y0192770D02*
X0158372Y0192770D01*
X0158373Y0193369D02*
X0130980Y0193369D01*
X0130980Y0193967D02*
X0158374Y0193967D01*
X0158375Y0194566D02*
X0130980Y0194566D01*
X0130980Y0195164D02*
X0158376Y0195164D01*
X0158377Y0195763D02*
X0130980Y0195763D01*
X0130980Y0196361D02*
X0158378Y0196361D01*
X0158379Y0196960D02*
X0130980Y0196960D01*
X0130980Y0197558D02*
X0158380Y0197558D01*
X0158381Y0198157D02*
X0130980Y0198157D01*
X0130980Y0198756D02*
X0158382Y0198756D01*
X0158382Y0199354D02*
X0130980Y0199354D01*
X0130980Y0199953D02*
X0158383Y0199953D01*
X0158384Y0200551D02*
X0130980Y0200551D01*
X0130980Y0201150D02*
X0158385Y0201150D01*
X0158386Y0201748D02*
X0130980Y0201748D01*
X0130980Y0202347D02*
X0158387Y0202347D01*
X0158388Y0202945D02*
X0130980Y0202945D01*
X0130980Y0203544D02*
X0158389Y0203544D01*
X0158390Y0204142D02*
X0130980Y0204142D01*
X0130980Y0204741D02*
X0158391Y0204741D01*
X0158392Y0205339D02*
X0130980Y0205339D01*
X0130980Y0205938D02*
X0158392Y0205938D01*
X0158393Y0206536D02*
X0130980Y0206536D01*
X0130980Y0207135D02*
X0158394Y0207135D01*
X0158395Y0207733D02*
X0130980Y0207733D01*
X0130980Y0208332D02*
X0158396Y0208332D01*
X0158397Y0208930D02*
X0130980Y0208930D01*
X0130980Y0209529D02*
X0158398Y0209529D01*
X0158399Y0210127D02*
X0130980Y0210127D01*
X0130980Y0210726D02*
X0158400Y0210726D01*
X0158401Y0211324D02*
X0130980Y0211324D01*
X0130980Y0211923D02*
X0158402Y0211923D01*
X0158403Y0212521D02*
X0130980Y0212521D01*
X0130980Y0213120D02*
X0158403Y0213120D01*
X0158404Y0213718D02*
X0130980Y0213718D01*
X0130980Y0214317D02*
X0158405Y0214317D01*
X0158406Y0214915D02*
X0130980Y0214915D01*
X0130980Y0215514D02*
X0158407Y0215514D01*
X0158408Y0216112D02*
X0130980Y0216112D01*
X0130980Y0216711D02*
X0158409Y0216711D01*
X0158410Y0217309D02*
X0130980Y0217309D01*
X0130980Y0217908D02*
X0158411Y0217908D01*
X0158412Y0218506D02*
X0130980Y0218506D01*
X0130980Y0219105D02*
X0158413Y0219105D01*
X0158413Y0219703D02*
X0130980Y0219703D01*
X0130980Y0220302D02*
X0158414Y0220302D01*
X0158415Y0220900D02*
X0130980Y0220900D01*
X0130980Y0221499D02*
X0158416Y0221499D01*
X0158417Y0222097D02*
X0130980Y0222097D01*
X0130980Y0222696D02*
X0158418Y0222696D01*
X0158419Y0223294D02*
X0130980Y0223294D01*
X0130980Y0223893D02*
X0158420Y0223893D01*
X0158421Y0224491D02*
X0130980Y0224491D01*
X0130980Y0225090D02*
X0158422Y0225090D01*
X0158423Y0225689D02*
X0130980Y0225689D01*
X0130980Y0226287D02*
X0158423Y0226287D01*
X0158424Y0226886D02*
X0130980Y0226886D01*
X0130980Y0227484D02*
X0158425Y0227484D01*
X0158426Y0228083D02*
X0130980Y0228083D01*
X0130980Y0228681D02*
X0158427Y0228681D01*
X0158428Y0229280D02*
X0130924Y0229280D01*
X0130325Y0229878D02*
X0158429Y0229878D01*
X0158430Y0230477D02*
X0129727Y0230477D01*
X0129128Y0231075D02*
X0158431Y0231075D01*
X0158432Y0231674D02*
X0128530Y0231674D01*
X0127931Y0232272D02*
X0158433Y0232272D01*
X0158433Y0232871D02*
X0127333Y0232871D01*
X0126734Y0233469D02*
X0158434Y0233469D01*
X0158435Y0234068D02*
X0126136Y0234068D01*
X0125537Y0234666D02*
X0158436Y0234666D01*
X0158437Y0235265D02*
X0124939Y0235265D01*
X0124340Y0235863D02*
X0158438Y0235863D01*
X0158439Y0236462D02*
X0123742Y0236462D01*
X0123143Y0237060D02*
X0158440Y0237060D01*
X0158441Y0237659D02*
X0122960Y0237659D01*
X0122960Y0238257D02*
X0158442Y0238257D01*
X0158443Y0238856D02*
X0122960Y0238856D01*
X0122960Y0239454D02*
X0158443Y0239454D01*
X0158444Y0240053D02*
X0122960Y0240053D01*
X0122960Y0240651D02*
X0158445Y0240651D01*
X0158446Y0241250D02*
X0122960Y0241250D01*
X0122960Y0241848D02*
X0158447Y0241848D01*
X0158448Y0242447D02*
X0122960Y0242447D01*
X0122960Y0243045D02*
X0158449Y0243045D01*
X0158450Y0243644D02*
X0122960Y0243644D01*
X0122960Y0244242D02*
X0158451Y0244242D01*
X0158452Y0244841D02*
X0122960Y0244841D01*
X0122960Y0245439D02*
X0158453Y0245439D01*
X0158453Y0246038D02*
X0122960Y0246038D01*
X0122960Y0246636D02*
X0158454Y0246636D01*
X0158455Y0247235D02*
X0122960Y0247235D01*
X0122960Y0247833D02*
X0158456Y0247833D01*
X0158457Y0248432D02*
X0122960Y0248432D01*
X0122960Y0249030D02*
X0158458Y0249030D01*
X0158459Y0249629D02*
X0122960Y0249629D01*
X0122960Y0250227D02*
X0158460Y0250227D01*
X0158461Y0250826D02*
X0122960Y0250826D01*
X0122960Y0251425D02*
X0158462Y0251425D01*
X0158463Y0252023D02*
X0122960Y0252023D01*
X0122960Y0252622D02*
X0158464Y0252622D01*
X0158464Y0253220D02*
X0122960Y0253220D01*
X0122960Y0253819D02*
X0158465Y0253819D01*
X0158466Y0254417D02*
X0122960Y0254417D01*
X0122960Y0255016D02*
X0158467Y0255016D01*
X0158468Y0255614D02*
X0122960Y0255614D01*
X0122960Y0256213D02*
X0158469Y0256213D01*
X0158470Y0256811D02*
X0122960Y0256811D01*
X0122960Y0257410D02*
X0158471Y0257410D01*
X0158472Y0258008D02*
X0122960Y0258008D01*
X0122960Y0258607D02*
X0158473Y0258607D01*
X0158474Y0259205D02*
X0122960Y0259205D01*
X0122960Y0259804D02*
X0158474Y0259804D01*
X0158475Y0260402D02*
X0122960Y0260402D01*
X0122960Y0261001D02*
X0158476Y0261001D01*
X0158477Y0261599D02*
X0122960Y0261599D01*
X0122960Y0262198D02*
X0158478Y0262198D01*
X0158479Y0262796D02*
X0122960Y0262796D01*
X0122960Y0263395D02*
X0158480Y0263395D01*
X0158481Y0263993D02*
X0122960Y0263993D01*
X0122960Y0264592D02*
X0158482Y0264592D01*
X0158483Y0265190D02*
X0123459Y0265190D01*
X0123699Y0265789D02*
X0158484Y0265789D01*
X0158484Y0266387D02*
X0123699Y0266387D01*
X0123699Y0266986D02*
X0158485Y0266986D01*
X0158486Y0267584D02*
X0123524Y0267584D01*
X0122926Y0268183D02*
X0158487Y0268183D01*
X0158488Y0268781D02*
X0122327Y0268781D01*
X0135696Y0278763D02*
X0136253Y0278206D01*
X0136889Y0277744D01*
X0137591Y0277386D01*
X0138339Y0277143D01*
X0139116Y0277020D01*
X0139210Y0277020D01*
X0139210Y0281720D01*
X0134510Y0281720D01*
X0134510Y0281626D01*
X0134633Y0280849D01*
X0134876Y0280101D01*
X0135234Y0279399D01*
X0135696Y0278763D01*
X0135556Y0278956D02*
X0007173Y0278956D01*
X0007173Y0278358D02*
X0136101Y0278358D01*
X0136868Y0277759D02*
X0007173Y0277759D01*
X0007173Y0277160D02*
X0138286Y0277160D01*
X0139210Y0277160D02*
X0139810Y0277160D01*
X0139810Y0277020D02*
X0139904Y0277020D01*
X0140681Y0277143D01*
X0141429Y0277386D01*
X0142131Y0277744D01*
X0142767Y0278206D01*
X0143324Y0278763D01*
X0143786Y0279399D01*
X0144144Y0280101D01*
X0144387Y0280849D01*
X0144510Y0281626D01*
X0144510Y0281720D01*
X0139810Y0281720D01*
X0139810Y0282320D01*
X0139210Y0282320D01*
X0139210Y0287020D01*
X0139116Y0287020D01*
X0138339Y0286897D01*
X0137591Y0286654D01*
X0136889Y0286296D01*
X0136253Y0285834D01*
X0135696Y0285277D01*
X0135234Y0284641D01*
X0134876Y0283939D01*
X0134633Y0283191D01*
X0134510Y0282413D01*
X0134510Y0282320D01*
X0139210Y0282320D01*
X0139210Y0281720D01*
X0139810Y0281720D01*
X0139810Y0277020D01*
X0139810Y0277759D02*
X0139210Y0277759D01*
X0139210Y0278358D02*
X0139810Y0278358D01*
X0139810Y0278956D02*
X0139210Y0278956D01*
X0139210Y0279555D02*
X0139810Y0279555D01*
X0139810Y0280153D02*
X0139210Y0280153D01*
X0139210Y0280752D02*
X0139810Y0280752D01*
X0139810Y0281350D02*
X0139210Y0281350D01*
X0139210Y0281949D02*
X0007174Y0281949D01*
X0007174Y0282547D02*
X0134531Y0282547D01*
X0134626Y0283146D02*
X0007174Y0283146D01*
X0007174Y0283744D02*
X0134813Y0283744D01*
X0135082Y0284343D02*
X0007174Y0284343D01*
X0007174Y0284941D02*
X0135452Y0284941D01*
X0135959Y0285540D02*
X0007174Y0285540D01*
X0007174Y0286138D02*
X0136672Y0286138D01*
X0137846Y0286737D02*
X0007174Y0286737D01*
X0007174Y0287335D02*
X0158516Y0287335D01*
X0158515Y0286737D02*
X0141174Y0286737D01*
X0141429Y0286654D02*
X0140681Y0286897D01*
X0139904Y0287020D01*
X0139810Y0287020D01*
X0139810Y0282320D01*
X0144510Y0282320D01*
X0144510Y0282413D01*
X0144387Y0283191D01*
X0144144Y0283939D01*
X0143786Y0284641D01*
X0143324Y0285277D01*
X0142767Y0285834D01*
X0142131Y0286296D01*
X0141429Y0286654D01*
X0142348Y0286138D02*
X0158514Y0286138D01*
X0158514Y0285540D02*
X0143061Y0285540D01*
X0143568Y0284941D02*
X0158513Y0284941D01*
X0158512Y0284343D02*
X0143938Y0284343D01*
X0144207Y0283744D02*
X0158511Y0283744D01*
X0158510Y0283146D02*
X0144394Y0283146D01*
X0144489Y0282547D02*
X0158509Y0282547D01*
X0158508Y0281949D02*
X0139810Y0281949D01*
X0139810Y0282547D02*
X0139210Y0282547D01*
X0139210Y0283146D02*
X0139810Y0283146D01*
X0139810Y0283744D02*
X0139210Y0283744D01*
X0139210Y0284343D02*
X0139810Y0284343D01*
X0139810Y0284941D02*
X0139210Y0284941D01*
X0139210Y0285540D02*
X0139810Y0285540D01*
X0139810Y0286138D02*
X0139210Y0286138D01*
X0139210Y0286737D02*
X0139810Y0286737D01*
X0140425Y0287420D02*
X0138595Y0287420D01*
X0136904Y0288120D01*
X0135610Y0289414D01*
X0134910Y0291105D01*
X0134910Y0292935D01*
X0135610Y0294626D01*
X0136904Y0295920D01*
X0138595Y0296620D01*
X0140425Y0296620D01*
X0142116Y0295920D01*
X0143410Y0294626D01*
X0144110Y0292935D01*
X0144110Y0291105D01*
X0143410Y0289414D01*
X0142116Y0288120D01*
X0140425Y0287420D01*
X0141665Y0287934D02*
X0158517Y0287934D01*
X0158518Y0288532D02*
X0142528Y0288532D01*
X0143126Y0289131D02*
X0158519Y0289131D01*
X0158520Y0289729D02*
X0143540Y0289729D01*
X0143788Y0290328D02*
X0158521Y0290328D01*
X0158522Y0290926D02*
X0144036Y0290926D01*
X0144110Y0291525D02*
X0158523Y0291525D01*
X0158524Y0292123D02*
X0144110Y0292123D01*
X0144110Y0292722D02*
X0158525Y0292722D01*
X0158525Y0293320D02*
X0143950Y0293320D01*
X0143702Y0293919D02*
X0158526Y0293919D01*
X0158527Y0294517D02*
X0143455Y0294517D01*
X0142920Y0295116D02*
X0158528Y0295116D01*
X0158529Y0295714D02*
X0142321Y0295714D01*
X0141166Y0296313D02*
X0158530Y0296313D01*
X0158531Y0296911D02*
X0007176Y0296911D01*
X0007176Y0296313D02*
X0137854Y0296313D01*
X0136699Y0295714D02*
X0007176Y0295714D01*
X0007176Y0295116D02*
X0136100Y0295116D01*
X0135565Y0294517D02*
X0007175Y0294517D01*
X0007175Y0293919D02*
X0135318Y0293919D01*
X0135070Y0293320D02*
X0007175Y0293320D01*
X0007175Y0292722D02*
X0134910Y0292722D01*
X0134910Y0292123D02*
X0007175Y0292123D01*
X0007175Y0291525D02*
X0134910Y0291525D01*
X0134984Y0290926D02*
X0007175Y0290926D01*
X0007175Y0290328D02*
X0135232Y0290328D01*
X0135480Y0289729D02*
X0007175Y0289729D01*
X0007175Y0289131D02*
X0135894Y0289131D01*
X0136492Y0288532D02*
X0007175Y0288532D01*
X0007174Y0287934D02*
X0137355Y0287934D01*
X0134554Y0281350D02*
X0007173Y0281350D01*
X0007173Y0280752D02*
X0134665Y0280752D01*
X0134859Y0280153D02*
X0007173Y0280153D01*
X0007173Y0279555D02*
X0135155Y0279555D01*
X0140734Y0277160D02*
X0158501Y0277160D01*
X0158500Y0276562D02*
X0007173Y0276562D01*
X0007173Y0275963D02*
X0158499Y0275963D01*
X0158498Y0275365D02*
X0007173Y0275365D01*
X0007172Y0274766D02*
X0158497Y0274766D01*
X0158496Y0274168D02*
X0007172Y0274168D01*
X0007172Y0273569D02*
X0158495Y0273569D01*
X0158494Y0272971D02*
X0007172Y0272971D01*
X0007172Y0272372D02*
X0158494Y0272372D01*
X0158493Y0271774D02*
X0007172Y0271774D01*
X0007172Y0271175D02*
X0158492Y0271175D01*
X0158491Y0270577D02*
X0007172Y0270577D01*
X0007172Y0269978D02*
X0158490Y0269978D01*
X0158489Y0269380D02*
X0007172Y0269380D01*
X0007176Y0297510D02*
X0138378Y0297510D01*
X0138595Y0297420D02*
X0140425Y0297420D01*
X0142116Y0298120D01*
X0143410Y0299414D01*
X0144110Y0301105D01*
X0144110Y0302935D01*
X0143410Y0304626D01*
X0142116Y0305920D01*
X0140425Y0306620D01*
X0138595Y0306620D01*
X0136904Y0305920D01*
X0135610Y0304626D01*
X0134910Y0302935D01*
X0134910Y0301105D01*
X0135610Y0299414D01*
X0136904Y0298120D01*
X0138595Y0297420D01*
X0136933Y0298108D02*
X0007176Y0298108D01*
X0007176Y0298707D02*
X0136318Y0298707D01*
X0135719Y0299305D02*
X0007176Y0299305D01*
X0007176Y0299904D02*
X0135407Y0299904D01*
X0135160Y0300502D02*
X0007176Y0300502D01*
X0007176Y0301101D02*
X0134912Y0301101D01*
X0134910Y0301699D02*
X0007177Y0301699D01*
X0007177Y0302298D02*
X0134910Y0302298D01*
X0134910Y0302896D02*
X0007177Y0302896D01*
X0007177Y0303495D02*
X0135142Y0303495D01*
X0135390Y0304094D02*
X0007177Y0304094D01*
X0007177Y0304692D02*
X0135677Y0304692D01*
X0136275Y0305291D02*
X0007177Y0305291D01*
X0007177Y0305889D02*
X0136874Y0305889D01*
X0138275Y0306488D02*
X0007177Y0306488D01*
X0007177Y0307086D02*
X0158546Y0307086D01*
X0158545Y0306488D02*
X0140745Y0306488D01*
X0140425Y0307420D02*
X0138595Y0307420D01*
X0136904Y0308120D01*
X0135610Y0309414D01*
X0134910Y0311105D01*
X0134910Y0312935D01*
X0135610Y0314626D01*
X0136904Y0315920D01*
X0138595Y0316620D01*
X0140425Y0316620D01*
X0142116Y0315920D01*
X0143410Y0314626D01*
X0144110Y0312935D01*
X0144110Y0311105D01*
X0143410Y0309414D01*
X0142116Y0308120D01*
X0140425Y0307420D01*
X0141064Y0307685D02*
X0158547Y0307685D01*
X0158548Y0308283D02*
X0142278Y0308283D01*
X0142877Y0308882D02*
X0158549Y0308882D01*
X0158550Y0309480D02*
X0143437Y0309480D01*
X0143685Y0310079D02*
X0158551Y0310079D01*
X0158552Y0310677D02*
X0143933Y0310677D01*
X0144110Y0311276D02*
X0158553Y0311276D01*
X0158554Y0311874D02*
X0144110Y0311874D01*
X0144110Y0312473D02*
X0158555Y0312473D01*
X0158555Y0313071D02*
X0144054Y0313071D01*
X0143806Y0313670D02*
X0158556Y0313670D01*
X0158557Y0314268D02*
X0143558Y0314268D01*
X0143169Y0314867D02*
X0158558Y0314867D01*
X0158559Y0315465D02*
X0142570Y0315465D01*
X0141768Y0316064D02*
X0158560Y0316064D01*
X0158561Y0316662D02*
X0007179Y0316662D01*
X0007179Y0316064D02*
X0137252Y0316064D01*
X0136450Y0315465D02*
X0007179Y0315465D01*
X0007179Y0314867D02*
X0135851Y0314867D01*
X0135462Y0314268D02*
X0007179Y0314268D01*
X0007178Y0313670D02*
X0135214Y0313670D01*
X0134966Y0313071D02*
X0007178Y0313071D01*
X0007178Y0312473D02*
X0134910Y0312473D01*
X0134910Y0311874D02*
X0007178Y0311874D01*
X0007178Y0311276D02*
X0134910Y0311276D01*
X0135087Y0310677D02*
X0007178Y0310677D01*
X0007178Y0310079D02*
X0135335Y0310079D01*
X0135583Y0309480D02*
X0007178Y0309480D01*
X0007178Y0308882D02*
X0136143Y0308882D01*
X0136742Y0308283D02*
X0007178Y0308283D01*
X0007178Y0307685D02*
X0137956Y0307685D01*
X0142146Y0305889D02*
X0158545Y0305889D01*
X0158544Y0305291D02*
X0142745Y0305291D01*
X0143343Y0304692D02*
X0158543Y0304692D01*
X0158542Y0304094D02*
X0143630Y0304094D01*
X0143878Y0303495D02*
X0158541Y0303495D01*
X0158540Y0302896D02*
X0144110Y0302896D01*
X0144110Y0302298D02*
X0158539Y0302298D01*
X0158538Y0301699D02*
X0144110Y0301699D01*
X0144108Y0301101D02*
X0158537Y0301101D01*
X0158536Y0300502D02*
X0143860Y0300502D01*
X0143612Y0299904D02*
X0158535Y0299904D01*
X0158535Y0299305D02*
X0143301Y0299305D01*
X0142702Y0298707D02*
X0158534Y0298707D01*
X0158533Y0298108D02*
X0142087Y0298108D01*
X0140642Y0297510D02*
X0158532Y0297510D01*
X0158507Y0281350D02*
X0144466Y0281350D01*
X0144355Y0280752D02*
X0158506Y0280752D01*
X0158505Y0280153D02*
X0144161Y0280153D01*
X0143865Y0279555D02*
X0158504Y0279555D01*
X0158504Y0278956D02*
X0143464Y0278956D01*
X0142919Y0278358D02*
X0158503Y0278358D01*
X0158502Y0277759D02*
X0142152Y0277759D01*
X0158562Y0317261D02*
X0007179Y0317261D01*
X0007179Y0317859D02*
X0158563Y0317859D01*
X0158564Y0318458D02*
X0007179Y0318458D01*
X0007179Y0319056D02*
X0158565Y0319056D01*
X0158565Y0319655D02*
X0007179Y0319655D01*
X0007179Y0320253D02*
X0158566Y0320253D01*
X0158567Y0320852D02*
X0007180Y0320852D01*
X0007180Y0321450D02*
X0158568Y0321450D01*
X0123264Y0232272D02*
X0054416Y0232272D01*
X0054416Y0231674D02*
X0123863Y0231674D01*
X0124461Y0231075D02*
X0054416Y0231075D01*
X0054416Y0230477D02*
X0125060Y0230477D01*
X0125658Y0229878D02*
X0054416Y0229878D01*
X0054416Y0229280D02*
X0126257Y0229280D01*
X0126855Y0228681D02*
X0054416Y0228681D01*
X0054416Y0228083D02*
X0127454Y0228083D01*
X0127680Y0227484D02*
X0054416Y0227484D01*
X0054416Y0226886D02*
X0127680Y0226886D01*
X0127680Y0226287D02*
X0054416Y0226287D01*
X0081104Y0198756D02*
X0081105Y0198756D01*
X0081104Y0198157D02*
X0081105Y0198157D01*
X0081104Y0197558D02*
X0081105Y0197558D01*
X0081104Y0196960D02*
X0081105Y0196960D01*
X0081104Y0196361D02*
X0081105Y0196361D01*
X0081104Y0195763D02*
X0081105Y0195763D01*
X0081104Y0195164D02*
X0081105Y0195164D01*
X0081104Y0194566D02*
X0081105Y0194566D01*
X0083634Y0195763D02*
X0084382Y0195763D01*
X0084717Y0195763D02*
X0084717Y0195763D01*
X0085051Y0195763D02*
X0085799Y0195763D01*
X0084717Y0195164D02*
X0084717Y0195164D01*
X0084717Y0194566D02*
X0084717Y0194566D01*
X0084717Y0193967D02*
X0084717Y0193967D01*
X0084717Y0193369D02*
X0084717Y0193369D01*
X0084717Y0193083D02*
X0084717Y0193083D01*
X0084717Y0192770D02*
X0084717Y0192770D01*
X0084717Y0192172D02*
X0084717Y0192172D01*
X0084717Y0191573D02*
X0084717Y0191573D01*
X0084717Y0190975D02*
X0084717Y0190975D01*
X0085788Y0190376D02*
X0083645Y0190376D01*
X0083790Y0189778D02*
X0085644Y0189778D01*
X0085640Y0189179D02*
X0083793Y0189179D01*
X0083651Y0188581D02*
X0085782Y0188581D01*
X0084717Y0187982D02*
X0084717Y0187982D01*
X0084717Y0187384D02*
X0084717Y0187384D01*
X0084717Y0186785D02*
X0084717Y0186785D01*
X0084717Y0186187D02*
X0084717Y0186187D01*
X0084717Y0185588D02*
X0084717Y0185588D01*
X0084717Y0184990D02*
X0084717Y0184990D01*
X0084717Y0184391D02*
X0084717Y0184391D01*
X0084717Y0183793D02*
X0084717Y0183793D01*
X0086460Y0183793D02*
X0090197Y0183793D01*
X0089682Y0184391D02*
X0086976Y0184391D01*
X0087272Y0184990D02*
X0089385Y0184990D01*
X0089248Y0185588D02*
X0087409Y0185588D01*
X0087398Y0186187D02*
X0089260Y0186187D01*
X0089409Y0186785D02*
X0088636Y0186785D01*
X0088329Y0186785D02*
X0088329Y0186785D01*
X0088022Y0186785D02*
X0087248Y0186785D01*
X0088329Y0187384D02*
X0088329Y0187384D01*
X0088329Y0187982D02*
X0088329Y0187982D01*
X0088329Y0188581D02*
X0088329Y0188581D01*
X0088329Y0189179D02*
X0088329Y0189179D01*
X0088329Y0189778D02*
X0088329Y0189778D01*
X0088329Y0190376D02*
X0088329Y0190376D01*
X0088329Y0190975D02*
X0088329Y0190975D01*
X0088329Y0191573D02*
X0088329Y0191573D01*
X0087255Y0192172D02*
X0089403Y0192172D01*
X0089257Y0192770D02*
X0087401Y0192770D01*
X0087406Y0193369D02*
X0089252Y0193369D01*
X0089392Y0193967D02*
X0087266Y0193967D01*
X0088329Y0194566D02*
X0088329Y0194566D01*
X0088329Y0195164D02*
X0088329Y0195164D01*
X0088329Y0195763D02*
X0088329Y0195763D01*
X0088329Y0196361D02*
X0088329Y0196361D01*
X0088329Y0196960D02*
X0088329Y0196960D01*
X0088329Y0197558D02*
X0088329Y0197558D01*
X0088329Y0198157D02*
X0088329Y0198157D01*
X0088329Y0198756D02*
X0088329Y0198756D01*
X0088329Y0199354D02*
X0088329Y0199354D01*
X0088769Y0199354D02*
X0089420Y0199354D01*
X0089265Y0199953D02*
X0087393Y0199953D01*
X0087410Y0200551D02*
X0089247Y0200551D01*
X0089374Y0201150D02*
X0087283Y0201150D01*
X0086994Y0201748D02*
X0089664Y0201748D01*
X0090171Y0202347D02*
X0086487Y0202347D01*
X0084717Y0202347D02*
X0084717Y0202347D01*
X0084717Y0201748D02*
X0084717Y0201748D01*
X0084717Y0201150D02*
X0084717Y0201150D01*
X0084717Y0200551D02*
X0084717Y0200551D01*
X0084717Y0199953D02*
X0084717Y0199953D01*
X0084717Y0199354D02*
X0084717Y0199354D01*
X0084717Y0198756D02*
X0084717Y0198756D01*
X0084717Y0198157D02*
X0084717Y0198157D01*
X0083663Y0197558D02*
X0085771Y0197558D01*
X0087237Y0199354D02*
X0087888Y0199354D01*
X0090887Y0197558D02*
X0092995Y0197558D01*
X0091941Y0198157D02*
X0091941Y0198157D01*
X0091941Y0198756D02*
X0091941Y0198756D01*
X0091941Y0199354D02*
X0091941Y0199354D01*
X0091941Y0199953D02*
X0091941Y0199953D01*
X0091941Y0200551D02*
X0091941Y0200551D01*
X0091941Y0201150D02*
X0091941Y0201150D01*
X0091941Y0201748D02*
X0091941Y0201748D01*
X0091941Y0202347D02*
X0091941Y0202347D01*
X0093711Y0202347D02*
X0122490Y0202347D01*
X0122490Y0201748D02*
X0094218Y0201748D01*
X0094508Y0201150D02*
X0122490Y0201150D01*
X0122490Y0200551D02*
X0094635Y0200551D01*
X0094617Y0199953D02*
X0122490Y0199953D01*
X0122490Y0199354D02*
X0095994Y0199354D01*
X0095819Y0199389D02*
X0095553Y0199389D01*
X0095553Y0196695D01*
X0095553Y0196695D01*
X0095553Y0196695D01*
X0098247Y0196695D01*
X0098247Y0196960D01*
X0122490Y0196960D01*
X0122490Y0197558D02*
X0098111Y0197558D01*
X0098143Y0197481D02*
X0097940Y0197971D01*
X0097646Y0198412D01*
X0097270Y0198787D01*
X0096829Y0199082D01*
X0096339Y0199285D01*
X0095819Y0199389D01*
X0095553Y0199354D02*
X0095553Y0199354D01*
X0095113Y0199354D02*
X0094462Y0199354D01*
X0095553Y0198756D02*
X0095553Y0198756D01*
X0095553Y0198157D02*
X0095553Y0198157D01*
X0095553Y0197558D02*
X0095553Y0197558D01*
X0095553Y0196960D02*
X0095553Y0196960D01*
X0095553Y0196361D02*
X0095553Y0196361D01*
X0095553Y0195763D02*
X0095553Y0195763D01*
X0095553Y0195164D02*
X0095553Y0195164D01*
X0095553Y0194566D02*
X0095553Y0194566D01*
X0094490Y0193967D02*
X0122490Y0193967D01*
X0122490Y0193369D02*
X0094631Y0193369D01*
X0094625Y0192770D02*
X0122490Y0192770D01*
X0122490Y0192172D02*
X0094479Y0192172D01*
X0095553Y0191573D02*
X0095553Y0191573D01*
X0095553Y0190975D02*
X0095553Y0190975D01*
X0095553Y0190376D02*
X0095553Y0190376D01*
X0095553Y0189778D02*
X0095553Y0189778D01*
X0095553Y0189471D02*
X0095553Y0189471D01*
X0095553Y0186777D01*
X0095819Y0186777D01*
X0096339Y0186881D01*
X0096829Y0187084D01*
X0097270Y0187378D01*
X0097646Y0187754D01*
X0097940Y0188195D01*
X0098143Y0188685D01*
X0098247Y0189205D01*
X0098247Y0189471D01*
X0095553Y0189471D01*
X0095553Y0189179D02*
X0095553Y0189179D01*
X0095553Y0188581D02*
X0095553Y0188581D01*
X0095553Y0187982D02*
X0095553Y0187982D01*
X0095553Y0187384D02*
X0095553Y0187384D01*
X0095553Y0186785D02*
X0095553Y0186785D01*
X0095247Y0186785D02*
X0094473Y0186785D01*
X0094622Y0186187D02*
X0122490Y0186187D01*
X0122490Y0186785D02*
X0095860Y0186785D01*
X0097276Y0187384D02*
X0122490Y0187384D01*
X0122490Y0187982D02*
X0097798Y0187982D01*
X0098100Y0188581D02*
X0122490Y0188581D01*
X0122490Y0189179D02*
X0098242Y0189179D01*
X0098239Y0189778D02*
X0122490Y0189778D01*
X0122490Y0190376D02*
X0098094Y0190376D01*
X0097788Y0190975D02*
X0122490Y0190975D01*
X0122490Y0191573D02*
X0097255Y0191573D01*
X0097215Y0194566D02*
X0122490Y0194566D01*
X0122490Y0195164D02*
X0097770Y0195164D01*
X0098083Y0195763D02*
X0122490Y0195763D01*
X0122490Y0196361D02*
X0098233Y0196361D01*
X0098247Y0196960D02*
X0098143Y0197481D01*
X0097816Y0198157D02*
X0122490Y0198157D01*
X0122490Y0198756D02*
X0097302Y0198756D01*
X0093024Y0195763D02*
X0092275Y0195763D01*
X0091941Y0195763D02*
X0091941Y0195763D01*
X0091607Y0195763D02*
X0090858Y0195763D01*
X0091941Y0195164D02*
X0091941Y0195164D01*
X0091941Y0194566D02*
X0091941Y0194566D01*
X0091941Y0193967D02*
X0091941Y0193967D01*
X0091941Y0193369D02*
X0091941Y0193369D01*
X0091941Y0193083D02*
X0091941Y0193083D01*
X0091941Y0192770D02*
X0091941Y0192770D01*
X0091941Y0192172D02*
X0091941Y0192172D01*
X0091941Y0191573D02*
X0091941Y0191573D01*
X0091941Y0190975D02*
X0091941Y0190975D01*
X0090869Y0190376D02*
X0093013Y0190376D01*
X0092868Y0189778D02*
X0091014Y0189778D01*
X0091017Y0189179D02*
X0092865Y0189179D01*
X0093006Y0188581D02*
X0090876Y0188581D01*
X0091941Y0187982D02*
X0091941Y0187982D01*
X0091941Y0187384D02*
X0091941Y0187384D01*
X0091941Y0186785D02*
X0091941Y0186785D01*
X0091941Y0186187D02*
X0091941Y0186187D01*
X0091941Y0185588D02*
X0091941Y0185588D01*
X0091941Y0184990D02*
X0091941Y0184990D01*
X0091941Y0184391D02*
X0091941Y0184391D01*
X0091941Y0183793D02*
X0091941Y0183793D01*
X0093685Y0183793D02*
X0122490Y0183793D01*
X0122490Y0184391D02*
X0094200Y0184391D01*
X0094497Y0184990D02*
X0122490Y0184990D01*
X0122490Y0185588D02*
X0094634Y0185588D01*
X0081105Y0187384D02*
X0081104Y0187384D01*
X0081104Y0187982D02*
X0081105Y0187982D01*
X0081104Y0188581D02*
X0081105Y0188581D01*
X0081104Y0189179D02*
X0081105Y0189179D01*
X0081104Y0189778D02*
X0081105Y0189778D01*
X0081104Y0190376D02*
X0081105Y0190376D01*
X0081104Y0190975D02*
X0081105Y0190975D01*
X0081104Y0191573D02*
X0081105Y0191573D01*
X0079093Y0110774D02*
X0117567Y0110774D01*
X0116969Y0110176D02*
X0079691Y0110176D01*
X0080290Y0109577D02*
X0116370Y0109577D01*
X0115772Y0108979D02*
X0080888Y0108979D01*
X0080950Y0108380D02*
X0115173Y0108380D01*
X0114575Y0107782D02*
X0080950Y0107782D01*
X0068226Y0106585D02*
X0060794Y0106585D01*
X0061973Y0105986D02*
X0067047Y0105986D01*
X0066448Y0105388D02*
X0062572Y0105388D01*
X0063167Y0104789D02*
X0065853Y0104789D01*
X0065605Y0104191D02*
X0063415Y0104191D01*
X0063662Y0103592D02*
X0065358Y0103592D01*
X0065110Y0102994D02*
X0063910Y0102994D01*
X0063910Y0102395D02*
X0065110Y0102395D01*
X0065110Y0101797D02*
X0063910Y0101797D01*
X0063910Y0101198D02*
X0065110Y0101198D01*
X0065295Y0100600D02*
X0063725Y0100600D01*
X0063477Y0100001D02*
X0065542Y0100001D01*
X0065790Y0099403D02*
X0063230Y0099403D01*
X0062724Y0098804D02*
X0066296Y0098804D01*
X0066895Y0098206D02*
X0062125Y0098206D01*
X0061161Y0097607D02*
X0067859Y0097607D01*
X0052040Y0042544D02*
X0114710Y0042544D01*
X0114710Y0041946D02*
X0052210Y0041946D01*
X0052305Y0041347D02*
X0114710Y0041347D01*
X0118010Y0041347D02*
X0158142Y0041347D01*
X0158141Y0040749D02*
X0118010Y0040749D01*
X0118010Y0040150D02*
X0158140Y0040150D01*
X0158139Y0039552D02*
X0118010Y0039552D01*
X0118010Y0038953D02*
X0158138Y0038953D01*
X0158138Y0038354D02*
X0118010Y0038354D01*
X0118010Y0037756D02*
X0158137Y0037756D01*
X0158136Y0037157D02*
X0134524Y0037157D01*
X0134035Y0037360D02*
X0135726Y0036660D01*
X0137020Y0035366D01*
X0137720Y0033675D01*
X0137720Y0031845D01*
X0137020Y0030154D01*
X0135726Y0028860D01*
X0134035Y0028160D01*
X0132205Y0028160D01*
X0130514Y0028860D01*
X0129220Y0030154D01*
X0128520Y0031845D01*
X0128520Y0033675D01*
X0129220Y0035366D01*
X0130514Y0036660D01*
X0132205Y0037360D01*
X0134035Y0037360D01*
X0131716Y0037157D02*
X0124524Y0037157D01*
X0125826Y0036559D02*
X0130414Y0036559D01*
X0129815Y0035960D02*
X0126425Y0035960D01*
X0127021Y0035362D02*
X0129219Y0035362D01*
X0128971Y0034763D02*
X0127269Y0034763D01*
X0127517Y0034165D02*
X0128723Y0034165D01*
X0128520Y0033566D02*
X0127720Y0033566D01*
X0127720Y0032968D02*
X0128520Y0032968D01*
X0128520Y0032369D02*
X0127720Y0032369D01*
X0127689Y0031771D02*
X0128551Y0031771D01*
X0128799Y0031172D02*
X0127441Y0031172D01*
X0127193Y0030574D02*
X0129047Y0030574D01*
X0129399Y0029975D02*
X0126841Y0029975D01*
X0126242Y0029377D02*
X0129998Y0029377D01*
X0130712Y0028778D02*
X0125528Y0028778D01*
X0124083Y0028180D02*
X0132157Y0028180D01*
X0134083Y0028180D02*
X0158122Y0028180D01*
X0158123Y0028778D02*
X0135528Y0028778D01*
X0136242Y0029377D02*
X0158124Y0029377D01*
X0158125Y0029975D02*
X0136841Y0029975D01*
X0137193Y0030574D02*
X0158126Y0030574D01*
X0158127Y0031172D02*
X0137441Y0031172D01*
X0137689Y0031771D02*
X0158128Y0031771D01*
X0158128Y0032369D02*
X0137720Y0032369D01*
X0137720Y0032968D02*
X0158129Y0032968D01*
X0158130Y0033566D02*
X0137720Y0033566D01*
X0137517Y0034165D02*
X0158131Y0034165D01*
X0158132Y0034763D02*
X0137269Y0034763D01*
X0137021Y0035362D02*
X0158133Y0035362D01*
X0158134Y0035960D02*
X0136425Y0035960D01*
X0135826Y0036559D02*
X0158135Y0036559D01*
X0158143Y0041946D02*
X0118010Y0041946D01*
X0118010Y0042544D02*
X0158144Y0042544D01*
X0158145Y0043143D02*
X0118010Y0043143D01*
X0118010Y0043741D02*
X0158146Y0043741D01*
X0158147Y0044340D02*
X0118010Y0044340D01*
X0118010Y0044938D02*
X0158148Y0044938D01*
X0158148Y0045537D02*
X0118010Y0045537D01*
X0118010Y0046135D02*
X0158149Y0046135D01*
X0158150Y0046734D02*
X0118010Y0046734D01*
X0118010Y0047332D02*
X0158151Y0047332D01*
X0158152Y0047931D02*
X0118010Y0047931D01*
X0118010Y0048529D02*
X0158153Y0048529D01*
X0158154Y0049128D02*
X0118010Y0049128D01*
X0118010Y0049726D02*
X0158155Y0049726D01*
X0158156Y0050325D02*
X0118010Y0050325D01*
X0118010Y0050923D02*
X0158157Y0050923D01*
X0158158Y0051522D02*
X0118010Y0051522D01*
X0118010Y0052120D02*
X0158159Y0052120D01*
X0158159Y0052719D02*
X0118010Y0052719D01*
X0118010Y0053317D02*
X0158160Y0053317D01*
X0158161Y0053916D02*
X0118010Y0053916D01*
X0118010Y0054514D02*
X0158162Y0054514D01*
X0158163Y0055113D02*
X0118010Y0055113D01*
X0118010Y0055711D02*
X0158164Y0055711D01*
X0140030Y0072470D02*
X0126971Y0072470D01*
X0127905Y0073068D02*
X0139653Y0073068D01*
X0139653Y0073667D02*
X0128527Y0073667D01*
X0128970Y0074265D02*
X0139653Y0074265D01*
X0139653Y0074864D02*
X0129293Y0074864D01*
X0129524Y0075462D02*
X0139653Y0075462D01*
X0139653Y0076061D02*
X0129679Y0076061D01*
X0129767Y0076659D02*
X0139653Y0076659D01*
X0139653Y0077258D02*
X0124968Y0077258D01*
X0124967Y0077856D02*
X0124367Y0077856D01*
X0124367Y0077258D02*
X0118010Y0077258D01*
X0118010Y0077856D02*
X0119636Y0077856D01*
X0119771Y0078455D02*
X0118010Y0078455D01*
X0118010Y0079053D02*
X0119980Y0079053D01*
X0120285Y0079652D02*
X0118010Y0079652D01*
X0118010Y0080250D02*
X0120710Y0080250D01*
X0121284Y0080849D02*
X0118010Y0080849D01*
X0118010Y0081447D02*
X0122123Y0081447D01*
X0119567Y0076659D02*
X0118010Y0076659D01*
X0118010Y0076061D02*
X0119656Y0076061D01*
X0119811Y0075462D02*
X0118010Y0075462D01*
X0118010Y0074864D02*
X0120042Y0074864D01*
X0120365Y0074265D02*
X0118010Y0074265D01*
X0118010Y0073667D02*
X0120808Y0073667D01*
X0121430Y0073068D02*
X0118010Y0073068D01*
X0118010Y0072470D02*
X0122364Y0072470D01*
X0124367Y0072470D02*
X0124967Y0072470D01*
X0124967Y0073068D02*
X0124367Y0073068D01*
X0124367Y0073667D02*
X0124967Y0073667D01*
X0124967Y0074265D02*
X0124367Y0074265D01*
X0124367Y0074864D02*
X0124967Y0074864D01*
X0124967Y0075462D02*
X0124367Y0075462D01*
X0124367Y0076061D02*
X0124967Y0076061D01*
X0124967Y0076659D02*
X0124367Y0076659D01*
X0124367Y0078455D02*
X0124967Y0078455D01*
X0124967Y0079053D02*
X0124367Y0079053D01*
X0124367Y0079652D02*
X0124967Y0079652D01*
X0124967Y0080250D02*
X0124367Y0080250D01*
X0124367Y0080849D02*
X0124967Y0080849D01*
X0124967Y0081447D02*
X0124367Y0081447D01*
X0127212Y0081447D02*
X0139907Y0081447D01*
X0139653Y0080849D02*
X0128051Y0080849D01*
X0128624Y0080250D02*
X0139653Y0080250D01*
X0139653Y0079652D02*
X0129050Y0079652D01*
X0129355Y0079053D02*
X0139653Y0079053D01*
X0139653Y0078455D02*
X0129564Y0078455D01*
X0129699Y0077856D02*
X0139653Y0077856D01*
X0121716Y0037157D02*
X0118010Y0037157D01*
X0118010Y0036559D02*
X0120414Y0036559D01*
X0124890Y0181399D02*
X0127680Y0181399D01*
X0127680Y0181997D02*
X0124890Y0181997D01*
X0124890Y0182596D02*
X0127680Y0182596D01*
X0127680Y0183194D02*
X0124890Y0183194D01*
X0124890Y0183793D02*
X0127680Y0183793D01*
X0127680Y0184391D02*
X0124890Y0184391D01*
X0124890Y0184990D02*
X0127680Y0184990D01*
X0127680Y0185588D02*
X0124890Y0185588D01*
X0124890Y0186187D02*
X0127680Y0186187D01*
X0127680Y0186785D02*
X0124890Y0186785D01*
X0124890Y0187384D02*
X0127680Y0187384D01*
X0127680Y0187982D02*
X0124890Y0187982D01*
X0124890Y0188581D02*
X0127680Y0188581D01*
X0127680Y0189179D02*
X0124890Y0189179D01*
X0124890Y0189778D02*
X0127680Y0189778D01*
X0127680Y0190376D02*
X0124890Y0190376D01*
X0124890Y0190975D02*
X0127680Y0190975D01*
X0127680Y0191573D02*
X0124890Y0191573D01*
X0124890Y0192172D02*
X0127680Y0192172D01*
X0127680Y0192770D02*
X0124890Y0192770D01*
X0124890Y0193369D02*
X0127680Y0193369D01*
X0127680Y0193967D02*
X0124890Y0193967D01*
X0124890Y0194566D02*
X0127680Y0194566D01*
X0127680Y0195164D02*
X0124890Y0195164D01*
X0124890Y0195763D02*
X0127680Y0195763D01*
X0127680Y0196361D02*
X0124890Y0196361D01*
X0124890Y0196960D02*
X0127680Y0196960D01*
X0127680Y0197558D02*
X0124890Y0197558D01*
X0124890Y0198157D02*
X0127680Y0198157D01*
X0127680Y0198756D02*
X0124890Y0198756D01*
X0124890Y0199354D02*
X0127680Y0199354D01*
X0127680Y0199953D02*
X0124890Y0199953D01*
X0124890Y0200551D02*
X0127680Y0200551D01*
X0127680Y0201150D02*
X0124890Y0201150D01*
X0124890Y0201748D02*
X0127680Y0201748D01*
X0127680Y0202347D02*
X0124890Y0202347D01*
X0124890Y0202945D02*
X0127680Y0202945D01*
X0127680Y0203544D02*
X0124890Y0203544D01*
X0124890Y0204142D02*
X0127680Y0204142D01*
X0127680Y0204741D02*
X0124890Y0204741D01*
X0124890Y0205339D02*
X0127680Y0205339D01*
X0127680Y0205938D02*
X0124890Y0205938D01*
X0124890Y0206536D02*
X0127680Y0206536D01*
X0127680Y0207135D02*
X0124890Y0207135D01*
X0124890Y0207733D02*
X0127680Y0207733D01*
X0127680Y0208332D02*
X0124890Y0208332D01*
X0124890Y0208930D02*
X0127680Y0208930D01*
X0127680Y0209529D02*
X0124890Y0209529D01*
X0124890Y0210127D02*
X0127680Y0210127D01*
X0127680Y0210726D02*
X0124890Y0210726D01*
X0124890Y0211324D02*
X0127680Y0211324D01*
X0127680Y0211923D02*
X0124890Y0211923D01*
X0124890Y0212521D02*
X0127680Y0212521D01*
X0127680Y0213120D02*
X0124890Y0213120D01*
X0124890Y0213718D02*
X0127680Y0213718D01*
X0127680Y0214317D02*
X0124890Y0214317D01*
X0124890Y0214915D02*
X0127680Y0214915D01*
X0127680Y0215514D02*
X0124890Y0215514D01*
X0124890Y0216112D02*
X0127680Y0216112D01*
X0127680Y0216711D02*
X0124890Y0216711D01*
X0124890Y0217309D02*
X0127680Y0217309D01*
X0127680Y0217908D02*
X0124890Y0217908D01*
X0124890Y0218506D02*
X0127680Y0218506D01*
X0127680Y0219105D02*
X0124890Y0219105D01*
X0124890Y0219703D02*
X0127680Y0219703D01*
X0127680Y0220302D02*
X0124890Y0220302D01*
X0124890Y0220900D02*
X0127680Y0220900D01*
X0127680Y0221499D02*
X0124890Y0221499D01*
X0125296Y0222097D02*
X0127680Y0222097D01*
X0127680Y0222696D02*
X0125895Y0222696D01*
X0126079Y0223294D02*
X0127680Y0223294D01*
X0127680Y0223893D02*
X0126079Y0223893D01*
X0126079Y0224491D02*
X0127680Y0224491D01*
X0127680Y0225090D02*
X0125848Y0225090D01*
X0125250Y0225689D02*
X0127680Y0225689D01*
D19*
X0123690Y0223870D03*
X0121310Y0266420D03*
X0113480Y0176530D03*
X0113700Y0130970D03*
X0076310Y0183020D03*
X0057600Y0220950D03*
X0049600Y0144890D03*
X0042110Y0124220D03*
X0049600Y0108960D03*
X0056549Y0110100D03*
X0072790Y0092140D03*
X0084200Y0054030D03*
X0077805Y0045070D03*
X0084520Y0025470D03*
D20*
X0116360Y0034520D02*
X0116360Y0085250D01*
X0129330Y0098220D01*
X0129330Y0228540D01*
X0121310Y0236560D01*
X0121310Y0266420D01*
X0049600Y0144890D02*
X0049600Y0108960D01*
X0049440Y0108800D01*
X0116360Y0034520D02*
X0121360Y0034520D01*
X0123120Y0032760D01*
M02*
